<?xml version="1.0" encoding="UTF-8"?>
<!DOCTYPE svg PUBLIC "-//W3C//DTD SVG 1.1//EN" "http://www.w3.org/Graphics/SVG/1.1/DTD/svg11.dtd">
<!-- Creator: CorelDRAW -->
<svg xmlns="http://www.w3.org/2000/svg" xml:space="preserve" width="107px" height="40px" version="1.1" style="shape-rendering:geometricPrecision; text-rendering:geometricPrecision; image-rendering:optimizeQuality; fill-rule:evenodd; clip-rule:evenodd"
viewBox="0 0 107 39.83"
 xmlns:xlink="http://www.w3.org/1999/xlink"
 xmlns:xodm="http://www.corel.com/coreldraw/odm/2003">
 <defs>
  <style type="text/css">
   <![CDATA[
    .fil0 {fill:white}
   ]]>
  </style>
 </defs>
 <g id="Layer_x0020_1">
  <metadata id="CorelCorpID_0Corel-Layer"/>
  <g id="_3142095809328">
   <path class="fil0" d="M46.16 31.02c0,0.15 0.03,0.11 -0.12,0.11l-1.32 0.75 -6.93 -3.96 0.01 -23.84c-0.19,-0.37 -2.92,-1.81 -3.43,-2.1 -1.16,-0.67 -2.29,-1.36 -3.49,-1.98l0.02 31.89c1.3,0.78 13.62,7.93 13.83,7.92 0.33,-0.02 12.18,-7.09 13.8,-7.9l0 -15.87c-0.08,-0.29 -13.69,-8.01 -13.73,-8.02 -0.31,-0.06 -4.43,2.3 -4.49,2.59l0.03 7.81c0.76,-0.32 2.07,-1.18 2.85,-1.62 1.91,-1.1 0.83,-1.34 5.69,1.53 0.26,0.15 2.66,1.37 2.74,1.73l-0.02 7.84 -5.44 3.12 0 0z"/>
   <path class="fil0" d="M78.76 31.9c1.27,0.76 13.66,7.92 13.82,7.91 0.3,-0.02 12.24,-7.1 13.79,-7.9l0.01 -15.87c-0.21,-0.37 -6.16,-3.71 -6.91,-4.07l-0.03 15.93 -6.86 3.99 -6.93 -3.96 -0.02 -8.03 -6.89 3.99 0.02 8.01 0 0z"/>
   <path class="fil0" d="M20.12 27.92l-6.93 3.96 -6.87 -3.98 -0.03 -7.97 -3.39 1.93c-1.1,0.63 -2.43,1.51 -3.51,2.01l-0.01 8.04c1.56,0.79 13.51,7.88 13.8,7.9 0.15,0.01 12.61,-7.16 13.82,-7.92l0.03 -15.97 -6.87 -3.97 -0.04 15.97z"/>
   <path class="fil0" d="M62.27 35.65c0,0.37 1.03,0.82 1.63,1.16 0.63,0.36 1.14,0.66 1.78,1.03 1.15,0.64 2.34,1.43 3.5,1.99 0,-2.75 0.11,-30.91 -0.04,-31.89 -1.75,0.91 -4.29,2.49 -6.21,3.57 -0.29,0.16 -0.66,0.26 -0.66,0.61l0 23.53 0 0z"/>
   <path class="fil0" d="M71.7 9.81l0 7.34c0,0.39 3.88,2.44 4.46,2.77 0.85,0.48 0.69,0.57 1.56,0.04 0.98,-0.59 2.06,-1.21 3.06,-1.76l3.08 -1.75c-0.28,-0.32 -8.83,-5.17 -10.61,-6.19 -0.4,-0.24 -1.12,-0.7 -1.54,-0.85l-0.01 0.4 0 0z"/>
   <path class="fil0" d="M85.73 11.92l5.54 3.25c0.99,0.56 5.05,3 5.68,3.24l0 -7.8c-0.07,-0.32 -2.3,-1.47 -2.74,-1.72 -0.34,-0.2 -1.05,-0.67 -1.41,-0.81 -0.46,-0.2 -1.07,0.33 -1.47,0.56 -0.91,0.55 -5.18,2.9 -5.6,3.28z"/>
   <path class="fil0" d="M6.37 11.92l11.2 6.51 0.04 -7.82c-0.19,-0.38 -0.97,-0.68 -1.33,-0.9 -3.23,-1.92 -2.75,-1.99 -4.29,-1.08 -1.02,0.61 -5.06,2.84 -5.62,3.29l0 0z"/>
   <path class="fil0" d="M46.16 31.02c-0.16,0.01 -0.12,-0.04 -0.12,0.11 0.15,0 0.12,0.04 0.12,-0.11z"/>
  </g>
 </g>
</svg>
