<?xml version="1.0" encoding="UTF-8"?>
<!DOCTYPE svg PUBLIC "-//W3C//DTD SVG 1.1//EN" "http://www.w3.org/Graphics/SVG/1.1/DTD/svg11.dtd">
<!-- Creator: CorelDRAW -->
<svg xmlns="http://www.w3.org/2000/svg" xml:space="preserve" width="113px" height="40px" version="1.1" style="shape-rendering:geometricPrecision; text-rendering:geometricPrecision; image-rendering:optimizeQuality; fill-rule:evenodd; clip-rule:evenodd"
viewBox="0 0 113 39.87"
 xmlns:xlink="http://www.w3.org/1999/xlink"
 xmlns:xodm="http://www.corel.com/coreldraw/odm/2003">
 <defs>
  <style type="text/css">
   <![CDATA[
    .fil0 {fill:white;fill-rule:nonzero}
   ]]>
  </style>
 </defs>
 <g id="Layer_x0020_1">
  <metadata id="CorelCorpID_0Corel-Layer"/>
  <g id="_3104457644960">
   <g>
    <path class="fil0" d="M7.4 21.01l2.93 0 7.52 18.48 -2.7 0 -1.8 -4.47 -9.05 0 -1.8 4.47 -2.62 0 7.52 -18.48zm5.03 11.74l-3.6 -9.04 -3.61 9.04 7.24 0 -0.03 0z"/>
    <path class="fil0" d="M19.09 32.68c0,-4.07 3.13,-7.14 7.3,-7.14 4.16,0 6.2,2.16 6.83,5.28l-2.44 0c-0.56,-1.83 -2.29,-3.05 -4.39,-3.05 -2.11,0 -4.91,2.11 -4.91,4.93 0,2.82 2.08,4.93 4.91,4.93 2.82,0 3.83,-1.24 4.39,-3.05l2.44 0c-0.61,3.1 -3.38,5.29 -6.83,5.29 -3.46,0 -7.3,-3.08 -7.3,-7.14l0 0 0 -0.05z"/>
    <path class="fil0" d="M35.43 32.68c0,-4.07 3.13,-7.14 7.27,-7.14 4.14,0 7.27,3.07 7.27,7.14 0,4.06 -0.03,0.66 -0.05,0.96l-12 0c0.41,2.42 2.34,4.07 4.91,4.07 2.56,0 3.55,-0.92 4.34,-2.29l2.57 0c-1.07,2.62 -3.71,4.4 -6.94,4.4 -3.23,0 -7.34,-3.08 -7.34,-7.14l0 0 -0.03 0zm2.49 -1.12l9.58 0c-0.4,-2.29 -2.34,-3.94 -4.83,-3.94 -2.49,0 -4.32,1.6 -4.77,3.94l0 0 0.02 0z"/>
    <path class="fil0" d="M53.02 25.84l2.31 0 0 2.59c1.04,-1.75 2.77,-2.82 4.9,-2.82l0.43 0 0 2.39 -0.43 0c-3.05,0 -4.9,1.83 -4.9,4.63l0 6.86 -2.31 0 0 -13.65 0 0z"/>
    <path class="fil0" d="M64.93 35.47l0 -7.54 -2.49 0 0 -2.09 1.61 0c0.63,0 0.99,-0.35 0.99,-1.01l0 -2.75 2.18 0 0 3.79 3.66 0 0 2.08 -3.66 0 0 7.17c0,1.39 0.89,2.28 2.34,2.28l1.35 0 0 2.11 -1.66 0c-2.77,0 -4.32,-1.47 -4.32,-4.01l0 0 0 -0.03z"/>
    <path class="fil0" d="M73.04 32.68c0,-4.07 2.92,-7.14 6.84,-7.14 3.91,0 4.14,1.06 5.31,2.79l0 -2.46 2.31 0 0 13.64 -2.31 0 0 -2.46c-1.15,1.7 -3.03,2.79 -5.31,2.79 -3.92,0 -6.84,-3.07 -6.84,-7.14l0 0 0 -0.02zm12.12 0c0,-2.82 -2.08,-4.93 -4.88,-4.93 -2.79,0 -4.9,2.11 -4.9,4.93 0,2.82 2.08,4.93 4.9,4.93 2.82,0 4.88,-2.11 4.88,-4.93z"/>
   </g>
   <g>
    <path class="fil0" d="M73.09 20.23c-0.43,-7.91 4.5,-15.63 11.82,-18.71 9.38,-3.96 20.94,0.08 25.64,9.15 4.88,8.95 1.85,20.74 -6.81,26.13 -3.28,2.13 -7.22,3.17 -11.06,3.02 -0.35,0 -0.63,-0.31 -0.61,-0.66 0,-0.33 0.28,-0.61 0.61,-0.61 1.78,-0.1 3.56,-0.41 5.27,-0.97 12.62,-4.24 16.61,-20.25 7.19,-29.76 -7.8,-7.95 -20.94,-6.4 -27.3,2.52 -2.05,2.85 -3.25,6.33 -3.43,9.94 -0.05,0.81 -1.24,0.81 -1.27,0l0 0 -0.05 -0.05z"/>
    <path class="fil0" d="M79.98 20.68c-0.33,-4.98 2.69,-9.88 7.32,-11.89 4.7,-2.03 10.57,-1.04 14.18,2.64 5.69,5.57 4.47,15.58 -2.29,19.67 -2.08,1.32 -4.55,1.93 -6.96,1.83 -0.54,-0.02 -0.54,-0.81 0,-0.86 9.68,-0.51 14.3,-11.89 7.44,-18.83 -4.75,-4.86 -12.58,-4.07 -16.59,1.32 -1.3,1.73 -2.09,3.89 -2.24,6.1 -0.02,0.53 -0.81,0.53 -0.86,0l0 0 0 0.02z"/>
   </g>
  </g>
 </g>
</svg>
