<?xml version="1.0" encoding="UTF-8"?>
<!DOCTYPE svg PUBLIC "-//W3C//DTD SVG 1.1//EN" "http://www.w3.org/Graphics/SVG/1.1/DTD/svg11.dtd">
<!-- Creator: CorelDRAW -->
<svg xmlns="http://www.w3.org/2000/svg" xml:space="preserve" width="167px" height="40px" version="1.1" style="shape-rendering:geometricPrecision; text-rendering:geometricPrecision; image-rendering:optimizeQuality; fill-rule:evenodd; clip-rule:evenodd"
viewBox="0 0 167 39.91"
 xmlns:xlink="http://www.w3.org/1999/xlink"
 xmlns:xodm="http://www.corel.com/coreldraw/odm/2003">
 <defs>
  <style type="text/css">
   <![CDATA[
    .fil0 {fill:white}
    .fil1 {fill:white;fill-rule:nonzero}
   ]]>
  </style>
 </defs>
 <g id="Layer_x0020_1">
  <metadata id="CorelCorpID_0Corel-Layer"/>
  <g id="_3104456339056">
   <g>
    <path class="fil0" d="M121.18 23.8c0,1.48 0.81,1.25 2.5,1.25l0 -22.96c6.58,0 12.94,-1.13 12.94,7.51 0,6.81 -7.16,6.26 -10.85,6.26 1.1,1.65 5.58,5.75 7.6,7.85 1.58,1.65 1.16,1.34 4.09,1.34 -0.56,-2.11 -4.02,-3.13 -6.68,-7.1 2.32,-0.19 4.42,-1.26 5.76,-2.59 5.37,-5.38 1.61,-15.36 -6.18,-15.36l-9.18 0 0 23.8z"/>
    <polygon class="fil0" points="166.68,0 147.48,0 147.48,25.05 166.68,25.05 166.68,22.54 149.98,22.54 149.98,2.09 166.68,2.09 "/>
    <path class="fil0" d="M89.86 12.52c0,6.24 5.14,12.53 11.28,12.53 7.01,0 11.69,-6.23 11.69,-13.36l0 -11.69 -2.09 0c0,7.52 1.02,14.01 -2.32,18.97 -4.53,6.74 -16.47,3.94 -16.47,-6.86l0 -12.11 -2.09 0 0 12.52z"/>
    <path class="fil0" d="M-0.32 25.05c2.85,0 2.33,0.4 4.46,-3.9 1.45,-2.92 7.71,-15.27 8.9,-16.14l10.44 20.04 2.51 0 -12.95 -25.05c-1.29,0.87 -3.93,6.39 -5.29,8.9 -1.77,3.3 -7.61,14.19 -8.07,16.15z"/>
    <path class="fil0" d="M61.89 23.8c0,0.96 0.29,1.25 1.25,1.25l17.96 0 0 -2.09 -16.7 0 0 -22.96 -2.51 0 0 23.8z"/>
    <polygon class="fil0" points="34.34,25.05 53.54,25.05 53.54,22.96 36.42,22.96 36.42,0 34.34,0 "/>
    <polygon class="fil0" points="152.49,17.95 166.68,17.95 166.68,15.86 152.49,15.86 "/>
   </g>
   <path class="fil1" d="M36.2 38.42c0,0.2 0.01,0.36 0.05,0.5 0.03,0.13 0.09,0.23 0.17,0.3 0.09,0.08 0.21,0.13 0.36,0.16 0.15,0.03 0.34,0.05 0.57,0.05 0.78,0 1.37,-0.19 1.77,-0.57 0.41,-0.38 0.61,-0.94 0.61,-1.66 0,-0.82 -0.26,-1.44 -0.76,-1.87 -0.51,-0.43 -1.27,-0.65 -2.28,-0.65 -0.08,0 -0.16,0 -0.23,0 -0.08,0.01 -0.15,0.01 -0.23,0.02 -0.01,0.31 -0.02,0.57 -0.03,0.78 0,0.21 0,0.37 0,0.49l0 2.26 0 0.19zm0.79 -4.17c0.28,0 0.55,0.01 0.79,0.03 0.25,0.02 0.48,0.05 0.71,0.1 0.22,0.06 0.43,0.13 0.63,0.24 0.19,0.1 0.38,0.23 0.57,0.4 0.31,0.28 0.55,0.59 0.7,0.93 0.15,0.33 0.23,0.69 0.23,1.1 0,0.45 -0.09,0.86 -0.27,1.23 -0.17,0.37 -0.43,0.68 -0.76,0.93 -0.31,0.23 -0.66,0.39 -1.05,0.48 -0.39,0.08 -0.83,0.12 -1.34,0.12l-2.45 0 0 -0.22c0.15,-0.01 0.27,-0.05 0.36,-0.1 0.09,-0.05 0.16,-0.12 0.21,-0.22 0.05,-0.09 0.08,-0.2 0.1,-0.35 0.01,-0.14 0.02,-0.31 0.02,-0.51l0 -2.6c0,-0.39 -0.05,-0.7 -0.13,-0.91 -0.09,-0.21 -0.27,-0.35 -0.56,-0.43l0 -0.22 2.24 0z"/>
   <path id="_1" class="fil1" d="M56.49 39.81l-3.95 0 0 -0.22c0.16,-0.01 0.28,-0.05 0.38,-0.11 0.09,-0.06 0.16,-0.14 0.2,-0.24 0.05,-0.11 0.07,-0.24 0.08,-0.4 0.01,-0.15 0.01,-0.34 0.01,-0.55l0 -2.13c0,-0.25 0,-0.48 -0.01,-0.67 -0.01,-0.19 -0.03,-0.36 -0.07,-0.49 -0.05,-0.14 -0.11,-0.26 -0.21,-0.34 -0.09,-0.08 -0.22,-0.14 -0.38,-0.19l0 -0.22 3.97 0 -0.06 1.12 -0.21 0c-0.03,-0.15 -0.06,-0.28 -0.11,-0.37 -0.05,-0.09 -0.12,-0.15 -0.21,-0.2 -0.08,-0.04 -0.19,-0.07 -0.31,-0.08 -0.12,-0.02 -0.27,-0.02 -0.44,-0.02 -0.08,0 -0.21,0 -0.4,0 -0.2,0 -0.45,0.01 -0.76,0.01 -0.01,0.35 -0.02,0.7 -0.03,1.04 -0.01,0.33 -0.01,0.68 -0.01,1.03l0.29 0c0.09,0 0.17,0 0.24,0 0.06,0 0.12,0.01 0.17,0.01 0.22,0 0.4,-0.01 0.56,-0.02 0.15,-0.01 0.28,-0.04 0.39,-0.08 0.11,-0.05 0.19,-0.11 0.25,-0.19 0.05,-0.08 0.1,-0.19 0.12,-0.34l0.2 0 0 1.63 -0.2 0c-0.03,-0.13 -0.08,-0.24 -0.14,-0.32 -0.07,-0.09 -0.15,-0.14 -0.24,-0.18 -0.1,-0.03 -0.22,-0.06 -0.35,-0.07 -0.14,0 -0.3,-0.01 -0.49,-0.01 -0.29,0 -0.56,0.01 -0.8,0.03l0 0.94c0,0.23 0.01,0.42 0.03,0.58 0.02,0.16 0.07,0.29 0.15,0.38 0.07,0.1 0.19,0.18 0.33,0.22 0.15,0.05 0.35,0.07 0.62,0.07 0.19,0 0.37,-0.02 0.53,-0.04 0.15,-0.03 0.29,-0.08 0.41,-0.14 0.11,-0.06 0.21,-0.15 0.29,-0.26 0.08,-0.1 0.15,-0.23 0.21,-0.39l0.21 0.04 -0.26 1.17z"/>
   <path id="_2" class="fil1" d="M71.4 35.47c-0.19,-0.62 -0.59,-0.92 -1.18,-0.92 -0.31,0 -0.55,0.08 -0.73,0.24 -0.17,0.16 -0.26,0.38 -0.26,0.65 0,0.16 0.03,0.3 0.09,0.41 0.05,0.11 0.14,0.22 0.25,0.31 0.1,0.09 0.24,0.18 0.4,0.26 0.15,0.08 0.34,0.16 0.54,0.25 0.23,0.11 0.44,0.21 0.62,0.31 0.18,0.11 0.32,0.22 0.44,0.35 0.12,0.13 0.21,0.27 0.27,0.44 0.07,0.16 0.1,0.35 0.1,0.58 0,0.22 -0.04,0.43 -0.12,0.62 -0.08,0.19 -0.19,0.35 -0.33,0.5 -0.13,0.14 -0.3,0.25 -0.49,0.32 -0.19,0.08 -0.4,0.12 -0.62,0.12 -0.15,0 -0.29,-0.01 -0.41,-0.03 -0.12,-0.02 -0.23,-0.05 -0.33,-0.08 -0.1,-0.03 -0.19,-0.05 -0.28,-0.07 -0.08,-0.02 -0.15,-0.04 -0.22,-0.04 -0.08,0 -0.15,0.06 -0.22,0.18l-0.17 0 -0.1 -1.37 0.2 0c0.17,0.34 0.38,0.59 0.61,0.76 0.23,0.16 0.51,0.24 0.83,0.24 0.15,0 0.28,-0.02 0.41,-0.07 0.12,-0.05 0.23,-0.11 0.32,-0.2 0.1,-0.08 0.17,-0.19 0.22,-0.3 0.05,-0.12 0.07,-0.25 0.07,-0.38 0,-0.26 -0.1,-0.47 -0.3,-0.63 -0.21,-0.16 -0.5,-0.33 -0.88,-0.5 -0.25,-0.12 -0.46,-0.23 -0.66,-0.34 -0.19,-0.1 -0.35,-0.22 -0.48,-0.35 -0.13,-0.13 -0.23,-0.27 -0.3,-0.43 -0.07,-0.16 -0.1,-0.35 -0.1,-0.58 0,-0.23 0.04,-0.44 0.12,-0.63 0.08,-0.19 0.19,-0.35 0.34,-0.49 0.15,-0.14 0.33,-0.24 0.54,-0.32 0.22,-0.07 0.45,-0.11 0.71,-0.11 0.25,0 0.44,0.03 0.59,0.08 0.15,0.05 0.26,0.08 0.34,0.08 0.07,0 0.14,-0.05 0.21,-0.13l0.2 0 -0.04 1.27 -0.2 0z"/>
   <path id="_3" class="fil1" d="M83.84 39.81l0 -0.22c0.16,-0.01 0.28,-0.05 0.38,-0.11 0.09,-0.06 0.16,-0.14 0.2,-0.24 0.04,-0.1 0.07,-0.23 0.08,-0.37 0.01,-0.15 0.01,-0.33 0.01,-0.52l0 -2.57c0,-0.22 0,-0.4 -0.01,-0.56 -0.01,-0.16 -0.04,-0.29 -0.08,-0.39 -0.04,-0.11 -0.11,-0.19 -0.2,-0.25 -0.09,-0.06 -0.22,-0.09 -0.38,-0.11l0 -0.22 2.1 0 0 0.22c-0.16,0.02 -0.29,0.05 -0.38,0.11 -0.09,0.06 -0.15,0.14 -0.2,0.25 -0.04,0.1 -0.07,0.23 -0.08,0.39 -0.01,0.16 -0.01,0.34 -0.01,0.56l0 2.51c0,0.21 0,0.4 0.01,0.55 0.01,0.16 0.04,0.29 0.08,0.4 0.05,0.1 0.11,0.18 0.2,0.24 0.09,0.06 0.22,0.1 0.38,0.11l0 0.22 -2.1 0z"/>
   <path id="_4" class="fil1" d="M103.35 37.4c-0.14,0.02 -0.25,0.06 -0.33,0.11 -0.08,0.06 -0.14,0.14 -0.18,0.24 -0.04,0.1 -0.06,0.23 -0.07,0.38 -0.01,0.16 -0.01,0.33 -0.01,0.54l0 0.95c-0.28,0.09 -0.56,0.16 -0.82,0.21 -0.26,0.04 -0.54,0.07 -0.82,0.07 -0.3,0 -0.56,-0.03 -0.78,-0.07 -0.23,-0.04 -0.42,-0.09 -0.58,-0.16 -0.62,-0.27 -1.09,-0.64 -1.4,-1.09 -0.32,-0.46 -0.47,-0.99 -0.47,-1.59 0,-0.5 0.11,-0.95 0.33,-1.36 0.22,-0.41 0.54,-0.74 0.95,-0.99 0.49,-0.31 1.06,-0.47 1.7,-0.47 0.21,0 0.4,0.01 0.57,0.04 0.18,0.03 0.33,0.06 0.47,0.09 0.13,0.04 0.25,0.07 0.35,0.1 0.1,0.02 0.18,0.04 0.25,0.04 0.12,0 0.22,-0.07 0.31,-0.19l0.16 0.02 -0.26 1.6 -0.19 -0.03c-0.08,-0.39 -0.27,-0.69 -0.56,-0.91 -0.3,-0.21 -0.68,-0.32 -1.16,-0.32 -0.29,0 -0.57,0.05 -0.82,0.16 -0.25,0.1 -0.46,0.24 -0.65,0.43 -0.18,0.18 -0.32,0.4 -0.43,0.65 -0.1,0.25 -0.15,0.53 -0.15,0.83 0,0.23 0.03,0.45 0.08,0.66 0.05,0.22 0.12,0.43 0.22,0.63 0.09,0.19 0.2,0.38 0.33,0.54 0.12,0.17 0.26,0.31 0.41,0.43 0.21,0.16 0.44,0.27 0.69,0.34 0.25,0.07 0.53,0.11 0.85,0.11 0.11,0 0.22,-0.01 0.33,-0.01 0.11,-0.01 0.22,-0.02 0.32,-0.04l0 -0.61c0,-0.22 0,-0.42 -0.01,-0.58 -0.01,-0.17 -0.03,-0.3 -0.07,-0.4 -0.05,-0.11 -0.11,-0.19 -0.2,-0.25 -0.1,-0.06 -0.22,-0.1 -0.38,-0.11l0 -0.22 2.02 0 0 0.23z"/>
   <path id="_5" class="fil1" d="M121.43 34.47c-0.18,0.03 -0.32,0.07 -0.43,0.13 -0.1,0.05 -0.17,0.13 -0.22,0.22 -0.05,0.09 -0.08,0.21 -0.1,0.35 -0.01,0.14 -0.01,0.31 -0.01,0.5l-0.02 2.65c0,0.3 0,0.58 0,0.84 0.01,0.26 0.02,0.5 0.03,0.71l-0.21 0c-0.11,-0.13 -0.22,-0.27 -0.34,-0.41 -0.12,-0.14 -0.25,-0.28 -0.38,-0.42l-3.33 -3.6 0 2.94c0,0.2 0,0.37 0.01,0.51 0.01,0.14 0.04,0.26 0.09,0.35 0.05,0.1 0.12,0.17 0.23,0.23 0.1,0.05 0.25,0.1 0.43,0.12l0 0.22 -1.98 0 0 -0.22c0.19,-0.02 0.34,-0.05 0.44,-0.11 0.11,-0.05 0.19,-0.12 0.24,-0.22 0.05,-0.09 0.08,-0.21 0.09,-0.36 0.01,-0.14 0.01,-0.32 0.01,-0.54l0 -3.33c-0.26,-0.31 -0.61,-0.49 -1.05,-0.56l0 -0.22 1.57 0c0.58,0.72 1.17,1.42 1.79,2.1 0.61,0.67 1.25,1.34 1.91,2l0 -2.66c0,-0.2 0,-0.37 -0.01,-0.51 -0.01,-0.14 -0.04,-0.26 -0.09,-0.35 -0.05,-0.1 -0.13,-0.18 -0.23,-0.23 -0.1,-0.06 -0.25,-0.1 -0.44,-0.13l0 -0.22 2 0 0 0.22z"/>
   <path id="_6" class="fil1" d="M136.11 35.47c-0.2,-0.62 -0.59,-0.92 -1.18,-0.92 -0.31,0 -0.55,0.08 -0.73,0.24 -0.18,0.16 -0.27,0.38 -0.27,0.65 0,0.16 0.03,0.3 0.09,0.41 0.06,0.11 0.14,0.22 0.25,0.31 0.11,0.09 0.24,0.18 0.4,0.26 0.16,0.08 0.34,0.16 0.55,0.25 0.23,0.11 0.44,0.21 0.61,0.31 0.18,0.11 0.33,0.22 0.45,0.35 0.12,0.13 0.21,0.27 0.27,0.44 0.06,0.16 0.09,0.35 0.09,0.58 0,0.22 -0.04,0.43 -0.11,0.62 -0.08,0.19 -0.19,0.35 -0.33,0.5 -0.14,0.14 -0.3,0.25 -0.5,0.32 -0.19,0.08 -0.39,0.12 -0.62,0.12 -0.15,0 -0.28,-0.01 -0.4,-0.03 -0.13,-0.02 -0.24,-0.05 -0.34,-0.08 -0.1,-0.03 -0.19,-0.05 -0.27,-0.07 -0.08,-0.02 -0.15,-0.04 -0.22,-0.04 -0.08,0 -0.16,0.06 -0.22,0.18l-0.17 0 -0.1 -1.37 0.19 0c0.18,0.34 0.38,0.59 0.62,0.76 0.23,0.16 0.51,0.24 0.82,0.24 0.15,0 0.29,-0.02 0.42,-0.07 0.12,-0.05 0.23,-0.11 0.32,-0.2 0.09,-0.08 0.16,-0.19 0.21,-0.3 0.05,-0.12 0.08,-0.25 0.08,-0.38 0,-0.26 -0.1,-0.47 -0.31,-0.63 -0.2,-0.16 -0.49,-0.33 -0.88,-0.5 -0.24,-0.12 -0.46,-0.23 -0.65,-0.34 -0.19,-0.1 -0.35,-0.22 -0.48,-0.35 -0.13,-0.13 -0.23,-0.27 -0.3,-0.43 -0.07,-0.16 -0.11,-0.35 -0.11,-0.58 0,-0.23 0.04,-0.44 0.12,-0.63 0.08,-0.19 0.2,-0.35 0.35,-0.49 0.15,-0.14 0.33,-0.24 0.54,-0.32 0.21,-0.07 0.45,-0.11 0.71,-0.11 0.24,0 0.44,0.03 0.59,0.08 0.14,0.05 0.26,0.08 0.33,0.08 0.08,0 0.15,-0.05 0.21,-0.13l0.21 0 -0.04 1.27 -0.2 0z"/>
  </g>
 </g>
</svg>
