<?xml version="1.0" encoding="UTF-8"?>
<!DOCTYPE svg PUBLIC "-//W3C//DTD SVG 1.1//EN" "http://www.w3.org/Graphics/SVG/1.1/DTD/svg11.dtd">
<!-- Creator: CorelDRAW -->
<svg xmlns="http://www.w3.org/2000/svg" xml:space="preserve" width="84px" height="40px" version="1.1" style="shape-rendering:geometricPrecision; text-rendering:geometricPrecision; image-rendering:optimizeQuality; fill-rule:evenodd; clip-rule:evenodd"
viewBox="0 0 84 39.85"
 xmlns:xlink="http://www.w3.org/1999/xlink"
 xmlns:xodm="http://www.corel.com/coreldraw/odm/2003">
 <defs>
  <style type="text/css">
   <![CDATA[
    .fil0 {fill:white}
   ]]>
  </style>
 </defs>
 <g id="Layer_x0020_1">
  <metadata id="CorelCorpID_0Corel-Layer"/>
  <g id="_2441181682240">
   <path class="fil0" d="M42.21 14.3c1.08,0.25 2.19,0.76 3.21,1.09 1.13,0.38 2.24,0.75 3.33,1.12l4.96 1.7c0.48,0.16 1.26,0.28 1.55,0.67 -1.26,0.3 -3.57,2.23 -8.04,0.54 -2.76,-1.05 -3.86,-2.94 -5.01,-5.12zm-0.56 -2.78l0 -0.97c0,-4.36 3.99,-8.47 9.17,-8.47 4.68,0 8.74,4.15 8.74,8.33 0,3.3 -0.31,4.18 -2.3,6.73 -1.05,1.36 -1.37,0.73 -5.25,-0.57l-8.57 -2.94c-1.46,-0.49 -1.79,-0.16 -1.79,-2.11zm-11.52 -6.94c0.18,0.77 0.71,1.78 1.03,2.58 0.3,0.74 0.9,1.91 1.05,2.56 -0.59,-0.05 -3.28,-1 -3.75,-1.25 0.14,-0.58 1.38,-3.55 1.67,-3.89zm-3.34 3.34c-0.8,-0.19 -1.75,-0.57 -2.51,-0.82 -0.72,-0.24 -1.93,-0.79 -2.62,-0.85l0 1.11c0.6,0.05 4.08,1.26 4.58,1.53 -0.09,1.02 -4.91,11.48 -5.28,13.05l1.81 0c1.43,-2.71 4,-10.1 5.27,-12.5 1.06,0.51 2.86,0.95 4.04,1.38 1.22,0.46 0.94,0.95 2.03,3.39 1.06,2.4 2.18,5.53 3.24,7.73l1.8 0c-0.06,-0.75 -2.4,-6.02 -2.99,-7.42 -0.31,-0.73 -0.88,-1.92 -1.03,-2.58 0.7,0.06 2.54,0.78 3.25,1.05 2.16,0.84 1.37,-0.03 2.22,2.09 1.22,3.05 3.72,5.32 6.76,6.29 4.17,1.33 7.14,0.07 10.12,-1.93 0.56,0.38 2.97,1.03 4.12,1.47 0.8,0.3 0.6,0.05 0.6,-0.92 -0.8,-0.06 -2.87,-1.01 -3.89,-1.25 0.76,-1.12 1.06,-0.99 2,-2.86 2.11,-4.22 1.16,-9.15 -2.24,-12.58 -5.1,-5.16 -14.6,-3.65 -17.57,4.02 -0.61,1.55 -0.65,2.92 -0.65,5.04 -1.28,-0.3 -2.77,-0.91 -4.08,-1.34 -1.09,-0.36 -1.18,-0.13 -1.58,-1.2l-4.06 -9.82c-0.38,0.28 -1.42,3.17 -1.72,3.84l-1.62 4.08z"/>
   <path class="fil0" d="M69.28 34.99l-2.22 0 0 -3.19c3.34,0 4.58,-0.43 4.58,1.8 0,1.15 -1.19,1.39 -2.36,1.39zm-3.47 4.86l1.25 0 0 -3.75c2.45,0 1.81,-0.32 3.41,1.73 0.35,0.44 1.34,1.6 1.45,2.02l1.67 0c-0.7,-1.32 -2.2,-2.52 -2.92,-3.89 2.88,-0.06 3.6,-5.41 -1.11,-5.41l-3.75 0 0 9.3z"/>
   <path class="fil0" d="M55.4 36.66c-1.34,-0.9 -5.27,-5.71 -6.25,-5.97l0 9.16 1.25 0 0 -6.25c0.68,0.78 5.67,5.86 6.25,6.25l0 -9.3c-1.38,0 -1.28,-0.11 -1.26,1.1l0.01 5.01z"/>
   <path class="fil0" d="M58.04 39.85l6.38 0 0 -1.25 -5.13 0 0 -2.5 5.13 0c0,-1.68 0.7,-1.25 -5.13,-1.25l0 -3.05 5.13 0 0 -1.25 -6.38 0 0 9.3z"/>
   <path class="fil0" d="M75.25 35.27c0,-1.78 1.18,-3.47 2.92,-3.47l0.97 0c3.73,0 3.91,7.19 -0.65,6.88 -1.92,-0.13 -3.24,-1.49 -3.24,-3.41zm7.92 -0.21l0 0.39c-0.09,2.24 -1.6,4.4 -4.72,4.4 -5.66,0 -6.05,-9.3 0.27,-9.3 2.82,0 4.37,2.23 4.45,4.51z"/>
   <path class="fil0" d="M26.94 39.85c0.45,-0.11 0.27,-0.75 0.27,-3.75l5 0 0 3.75 1.25 0 0 -8.89c0,-0.54 -0.36,-0.41 -1.25,-0.41l0 4.02c0,0.32 -0.1,0.42 -0.42,0.42l-4.58 0 0 -4.03c0,-0.54 -0.35,-0.41 -1.25,-0.41l0 9.3 0.98 0z"/>
   <path class="fil0" d="M20.96 34.99l-2.22 0 0 -3.19c3,0 4.58,-0.45 4.58,1.8 0,1.15 -1.19,1.39 -2.36,1.39zm-3.47 4.86l1.25 0 0 -3.75c3.09,0 5.83,0.54 5.83,-2.92 0,-3.22 -4.25,-2.63 -7.08,-2.63l0 9.3z"/>
   <path class="fil0" d="M39.34 33.21c0.34,0.26 0.8,1.23 0.92,1.78l-1.8 0 0.88 -1.78zm4.67 6.64l-1.25 0 -1.8 -3.75 -3.06 0 -1.8 3.75 -1.39 0 4.58 -9.3c0.45,0.33 2.11,3.8 2.5,4.58 0.41,0.81 2.16,3.99 2.22,4.72z"/>
   <path class="fil0" d="M3.79 33.21c0.35,0.26 0.8,1.23 0.93,1.78l-1.81 0 0.88 -1.78zm4.68 6.64l-1.25 0 -1.81 -3.75 -3.05 0 -1.81 3.75 -1.39 0 4.59 -9.3c0.38,0.28 4.69,8.91 4.72,9.3z"/>
   <path class="fil0" d="M9.99 39.85l5.98 0 0 -1.25 -4.73 0 0 -7.64c0,-0.32 -0.09,-0.41 -0.41,-0.41l-0.84 0 0 9.3z"/>
  </g>
 </g>
</svg>
