<?xml version="1.0" encoding="UTF-8"?>
<!DOCTYPE svg PUBLIC "-//W3C//DTD SVG 1.1//EN" "http://www.w3.org/Graphics/SVG/1.1/DTD/svg11.dtd">
<!-- Creator: CorelDRAW -->
<svg xmlns="http://www.w3.org/2000/svg" xml:space="preserve" width="262px" height="40px" version="1.1" style="shape-rendering:geometricPrecision; text-rendering:geometricPrecision; image-rendering:optimizeQuality; fill-rule:evenodd; clip-rule:evenodd"
viewBox="0 0 262 39.99"
 xmlns:xlink="http://www.w3.org/1999/xlink"
 xmlns:xodm="http://www.corel.com/coreldraw/odm/2003">
 <defs>
  <style type="text/css">
   <![CDATA[
    .fil0 {fill:white}
   ]]>
  </style>
 </defs>
 <g id="Layer_x0020_1">
  <metadata id="CorelCorpID_0Corel-Layer"/>
  <g id="_3104388342272">
   <path class="fil0" d="M37.76 26.06c1.97,0.46 4,1.39 5.86,1.99 2.06,0.69 4.08,1.37 6.07,2.04l9.04 3.1c0.87,0.29 2.29,0.51 2.82,1.22 -2.3,0.55 -6.51,4.07 -14.65,0.99 -5.03,-1.92 -7.04,-5.36 -9.14,-9.34zm-1.02 -5.06l0 -1.77c0,-7.95 7.28,-15.44 16.72,-15.44 8.53,0 15.93,7.57 15.93,15.19 0,6.01 -0.57,7.61 -4.19,12.26 -1.92,2.48 -2.5,1.33 -9.57,-1.04l-15.62 -5.36c-2.66,-0.89 -3.27,-0.29 -3.27,-3.84zm-20.99 -12.65c0.32,1.4 1.29,3.24 1.87,4.7 0.55,1.35 1.64,3.48 1.92,4.67 -1.08,-0.09 -5.98,-1.83 -6.84,-2.28 0.26,-1.06 2.52,-6.47 3.05,-7.09zm-6.09 6.09c-1.46,-0.35 -3.19,-1.04 -4.58,-1.5 -1.31,-0.44 -3.51,-1.44 -4.77,-1.55l0 2.03c1.09,0.09 7.43,2.29 8.35,2.78 -0.17,1.86 -8.95,20.93 -9.63,23.79l3.3 0c2.61,-4.94 7.29,-18.41 9.61,-22.78 1.93,0.92 5.21,1.73 7.36,2.51 2.22,0.84 1.71,1.73 3.7,6.18 1.93,4.37 3.98,10.08 5.91,14.09l3.28 0c-0.11,-1.37 -4.38,-10.97 -5.45,-13.53 -0.57,-1.33 -1.61,-3.49 -1.88,-4.7 1.28,0.11 4.63,1.42 5.92,1.92 3.94,1.53 2.5,-0.06 4.05,3.81 2.23,5.55 6.78,9.69 12.32,11.46 7.6,2.42 13.02,0.13 18.45,-3.52 1.02,0.7 5.41,1.88 7.51,2.68 1.46,0.55 1.09,0.09 1.09,-1.67 -1.46,-0.11 -5.23,-1.85 -7.09,-2.28 1.39,-2.04 1.94,-1.81 3.65,-5.22 3.84,-7.69 2.11,-16.67 -4.08,-22.93 -9.3,-9.4 -26.62,-6.65 -32.03,7.33 -1.11,2.83 -1.18,5.32 -1.18,9.19 -2.34,-0.55 -5.05,-1.66 -7.44,-2.44 -1.99,-0.66 -2.15,-0.24 -2.88,-2.19l-7.4 -17.9c-0.69,0.51 -2.59,5.78 -3.14,7l-2.95 7.44 0 0z"/>
   <g>
    <path class="fil0" d="M231.31 19.59l-4.75 0 0 -6.83c7.14,0 9.8,-0.92 9.8,3.86 0,2.46 -2.55,2.97 -5.05,2.97l0 0zm-7.43 10.4l2.68 0 0 -8.02c5.24,0 3.87,-0.69 7.29,3.7 0.75,0.94 2.87,3.42 3.11,4.32l3.57 0c-1.5,-2.82 -4.71,-5.39 -6.25,-8.32 6.17,-0.13 7.71,-11.58 -2.37,-11.58l-8.03 0 0 19.9 0 0z"/>
    <path class="fil0" d="M201.6 23.17c-2.86,-1.93 -11.27,-12.23 -13.37,-12.78l0 19.6 2.67 0 0 -13.37c1.46,1.67 12.14,12.54 13.38,13.37l0 -19.9c-2.95,0 -2.74,-0.24 -2.7,2.35l0.02 10.73 0 0z"/>
    <path class="fil0" d="M207.25 29.99l13.66 0 0 -2.67 -10.98 0 0 -5.35 10.98 0c0,-3.6 1.5,-2.68 -10.98,-2.68l0 -6.53 10.98 0 0 -2.67 -13.66 0 0 19.9z"/>
    <path class="fil0" d="M244.08 20.19c0,-3.81 2.53,-7.43 6.25,-7.43l2.08 0c7.98,0 8.37,15.39 -1.39,14.73 -4.11,-0.28 -6.94,-3.19 -6.94,-7.3l0 0zm16.95 -0.45l0 0.84c-0.19,4.79 -3.42,9.41 -10.1,9.41 -12.11,0 -12.94,-19.9 0.58,-19.9 6.03,0 9.35,4.77 9.52,9.65l0 0z"/>
    <path class="fil0" d="M140.7 29.99c0.96,-0.23 0.58,-1.6 0.58,-8.02l10.7 0 0 8.02 2.67 0 0 -19.02c0,-1.16 -0.77,-0.88 -2.67,-0.88l0 8.6c0,0.69 -0.22,0.9 -0.9,0.9l-9.8 0 0 -8.62c0,-1.16 -0.75,-0.88 -2.68,-0.88l0 19.9 2.1 0 0 0z"/>
    <path class="fil0" d="M127.9 19.59l-4.75 0 0 -6.83c6.42,0 9.8,-0.96 9.8,3.86 0,2.46 -2.55,2.97 -5.05,2.97l0 0zm-7.43 10.4l2.68 0 0 -8.02c6.61,0 12.48,1.15 12.48,-6.25 0,-6.89 -9.1,-5.63 -15.16,-5.63l0 19.9 0 0z"/>
    <path class="fil0" d="M167.23 15.78c0.73,0.56 1.72,2.63 1.97,3.81l-3.85 0 1.88 -3.81 0 0zm10 14.21l-2.68 0 -3.85 -8.02 -6.55 0 -3.85 8.02 -2.97 0 9.8 -19.9c0.96,0.7 4.51,8.13 5.35,9.8 0.88,1.73 4.62,8.54 4.75,10.1z"/>
    <path class="fil0" d="M91.16 15.78c0.74,0.56 1.71,2.63 1.99,3.81l-3.88 0 1.89 -3.81zm10.01 14.21l-2.67 0 -3.88 -8.02 -6.52 0 -3.88 8.02 -2.97 0 9.82 -19.9c0.81,0.6 10.04,19.07 10.1,19.9l0 0z"/>
    <path class="fil0" d="M104.42 29.99l12.8 0 0 -2.67 -10.12 0 0 -16.35c0,-0.69 -0.19,-0.88 -0.88,-0.88l-1.8 0 0 19.9 0 0z"/>
   </g>
  </g>
 </g>
</svg>
