<?xml version="1.0" encoding="UTF-8"?>
<!DOCTYPE svg PUBLIC "-//W3C//DTD SVG 1.1//EN" "http://www.w3.org/Graphics/SVG/1.1/DTD/svg11.dtd">
<!-- Creator: CorelDRAW -->
<svg xmlns="http://www.w3.org/2000/svg" xml:space="preserve" width="307px" height="38px" version="1.1" style="shape-rendering:geometricPrecision; text-rendering:geometricPrecision; image-rendering:optimizeQuality; fill-rule:evenodd; clip-rule:evenodd"
viewBox="0 0 307 37.91"
 xmlns:xlink="http://www.w3.org/1999/xlink"
 xmlns:xodm="http://www.corel.com/coreldraw/odm/2003">
 <defs>
  <style type="text/css">
   <![CDATA[
    .fil0 {fill:white}
    .fil1 {fill:white;fill-rule:nonzero}
   ]]>
  </style>
 </defs>
 <g id="Layer_x0020_1">
  <metadata id="CorelCorpID_0Corel-Layer"/>
  <g id="_2442127805696">
   <path class="fil0" d="M286.25 22.51c1.32,-0.79 1.07,-2.54 3.69,-6.56 2.72,-4.17 7.56,-7.45 12.38,-8.94 2.77,-0.85 3.63,-3.86 3.96,-6.94 -8.43,0.45 -16.66,9.41 -19.59,18.14 -0.19,0.58 -0.69,1.74 -0.76,2.1l0.32 2.2z"/>
   <path class="fil0" d="M299.14 23.82c-1.45,0.63 -0.28,0.21 -2.13,2.43 -0.85,1.02 -1.15,1.21 -2.11,2.06 -3.89,3.44 -6.96,4.44 -11.94,4.73 -1.76,0.1 -2.33,-0.21 -2.04,1.62 1.54,9.98 21.38,-5.19 18.22,-10.84z"/>
   <path class="fil0" d="M286.25 28.83c4.13,-2.68 3.41,-6.39 14.06,-8.52 0.62,-1.03 1.51,-3.41 1.53,-5.19 -7.25,-0.63 -12.06,6.25 -15.14,11.01 -1.34,2.07 -0.96,1.8 -0.45,2.7z"/>
  </g>
  <path class="fil1" d="M10.27 29.43l3.23 0 0 -13.13c0,-3.86 -1.01,-6.83 -6.63,-6.83 -5.53,0 -7.17,2.85 -7.34,5.32l3.74 0c0.08,-1.09 0.29,-3.69 3.48,-3.69 3.52,0 3.52,3.02 3.52,5.96l0 1.63c-2.73,0.09 -10.99,0.25 -10.99,6.25 0,2.89 2.02,4.95 5.03,4.95 3.28,0 4.99,-2.01 5.96,-3.15l0 2.69zm0 -6.96c0,2.09 -1.39,5.36 -4.24,5.36 -2.34,0 -3.18,-1.97 -3.18,-3.43 0,-4.11 5.66,-4.37 7.42,-4.41l0 2.48z"/>
  <path id="_1" class="fil1" d="M20.25 29.43l3.23 0 0 -29.36 -6.5 0.93 0 0.71c1.17,0.08 3.27,0.17 3.27,2.77l0 24.95z"/>
  <path id="_2" class="fil1" d="M52.2 28.08c-0.5,0.09 -1.05,0.17 -1.59,0.17 -2.06,0 -3.57,-0.54 -3.57,-3.06l0 -13.84 5.16 0 0 -1.42 -5.2 0 0 -6.42 -3.19 2.83 0 3.59 -3.22 0 0 1.42 3.22 0 0 12.63c0,3.94 0.38,5.91 6,5.91 0.8,0 1.59,-0.09 2.39,-0.25l0 -1.56z"/>
  <path id="_3" class="fil1" d="M66.21 29.43l3.23 0 0 -13.13c0,-3.86 -1.01,-6.83 -6.63,-6.83 -5.54,0 -7.17,2.85 -7.34,5.32l3.73 0c0.09,-1.09 0.3,-3.69 3.48,-3.69 3.53,0 3.53,3.02 3.53,5.96l0 1.63c-2.73,0.09 -10.99,0.25 -10.99,6.25 0,2.89 2.01,4.95 5.03,4.95 3.27,0 4.99,-2.01 5.96,-3.15l0 2.69zm0 -6.96c0,2.09 -1.39,5.36 -4.24,5.36 -2.35,0 -3.19,-1.97 -3.19,-3.43 0,-4.11 5.67,-4.37 7.43,-4.41l0 2.48z"/>
  <path id="_4" class="fil1" d="M91.24 9.93l-2.22 0 -5.7 15.18 -6.25 -15.18 -6 0 0 0.71c2.81,0.21 3.27,1.3 4.4,4.03l6.21 14.76 -0.55 1.47c-1.38,3.6 -2.05,5.45 -3.81,5.45 -1.97,0 -2.52,-2.39 -2.52,-3.48l-3.65 0c0,1.51 1.14,5.11 5.58,5.11 3.94,0 5.03,-2.93 6.79,-7.55l7.72 -20.5z"/>
  <path id="_5" class="fil1" d="M107.3 27.75c-0.92,0.25 -1.97,0.5 -2.98,0.5 -5.83,0 -8.76,-5.91 -8.76,-9.98l0 -0.88 12.24 0 0 -0.63c0,-4.99 -3.1,-7.29 -7.04,-7.29 -6.12,0 -8.43,3.56 -8.43,9.6 0,7 3.61,10.82 9.77,10.82 2.6,0 4.7,-0.55 5.2,-0.76l0 -1.38zm-3.15 -11.78l-8.55 0c0.13,-1.43 0.8,-4.87 4.61,-4.87 2.52,0 3.94,2.14 3.94,4.49l0 0.38z"/>
  <path id="_6" class="fil1" d="M112.75 29.43l3.23 0 0 -10.07c0,-2.56 0.59,-6.66 4.65,-6.66 0.47,0 0.93,0.16 1.39,0.29l0 -3.48c-0.13,-0.04 -0.25,-0.04 -0.38,-0.04 -3.98,0 -5.03,3.23 -5.58,4.99l-0.08 0 0 -4.99 -6.42 1 0 0.72c1.22,0.12 3.19,0.25 3.19,2.89l0 15.35z"/>
  <g id="_2442127802192">
   <path class="fil0" d="M205.06 25.43l0 2.99 -3.14 0c-1.39,0 -2.5,-0.05 -3.33,-0.15 -0.82,-0.09 -1.44,-0.23 -1.81,-0.4 -0.39,-0.18 -0.79,-0.76 -1.19,-1.73 -0.41,-0.98 -0.61,-2.26 -0.61,-3.86 0,-1.13 0.05,-2.74 0.13,-4.83 0.07,-2.1 0.11,-3.76 0.11,-5.01 0,-4.23 -0.37,-7.32 -1.1,-9.26l2.03 -2.58c0.67,1.93 1.01,4.99 1.01,9.18l0 0.05 -0.02 1.41 -0.05 2.78c-0.02,0.48 -0.07,1.59 -0.14,3.33 -0.08,1.58 -0.13,2.8 -0.13,3.65 0,1.39 0.19,2.48 0.56,3.26 0.37,0.8 1.1,1.17 2.21,1.17l5.47 0zm-55.67 2.99c-1.3,0 -2.3,-0.21 -3.02,-0.64 -0.72,-0.42 -1.34,-1.19 -1.85,-2.3 -0.28,3.75 -1.49,6.88 -3.63,9.39 -2.14,2.5 -4.14,3.01 -6.16,3.01 -1.65,0 -6.41,0.8 -3.65,-2.1 0.98,-1.03 4.02,-0.53 5.94,-1.84 1.92,-1.3 3.42,-2.74 4.52,-4.31 1.1,-1.58 1.64,-2.79 1.64,-3.64 0,-1.26 -0.14,-2.57 -0.42,-3.94 -0.28,-1.36 0.1,-5.3 -1.32,-7.77l1.51 -3.09c1.25,1.95 0.79,5.91 1.42,9.84 0.48,2.97 2.27,4.42 5.02,4.42l2.8 0 0 2.97 -2.8 0zm2.81 0l0 -2.97 21.37 0c1.15,0 2.33,-0.25 3.54,-0.77 1.22,-0.51 1.83,-1.04 1.83,-1.57 0,-2.87 -0.85,-5.22 -2.53,-7.06l1.66 -4.11c1.86,2.8 2.8,5.75 2.8,8.84 0,1.64 -0.52,3.34 -1.57,5.06 -1.05,1.72 -2.32,2.58 -3.82,2.58l-23.28 0zm10.89 4.38l-2.62 2.6 -2.67 -2.65 2.67 -2.6 2.43 2.38 2.62 -2.58 2.63 2.6 -2.63 2.65 -2.43 -2.4z"/>
   <path class="fil0" d="M200.67 25.42l0 2.97 14.79 0c4.41,0 7.39,-0.77 8.92,-2.31 0.74,1.54 1.77,2.31 3.1,2.31l0 -2.97c-1.03,0 -1.75,-0.21 -2.17,-0.65 0.55,-1.06 0.83,-2.38 0.83,-3.96 0,-2.08 -0.47,-3.83 -1.4,-5.25 -0.93,-1.41 -2.24,-2.12 -3.9,-2.12 -1.17,0 -2.39,0.37 -3.67,1.11 -1.29,0.76 -2.59,1.87 -3.88,3.36l-4.35 4.9c0.64,-2.8 0.97,-4.58 0.97,-5.32 0,-0.44 -0.04,-1.57 -0.1,-3.38 -0.08,-1.82 -0.12,-3.29 -0.12,-4.38 0,-3.82 0.37,-6.12 1.11,-6.89l-2.31 -2.32 -1.8 2.94c0.95,1.59 1.43,6.57 1.43,14.97 0,2.96 -1.03,5.28 -3.09,6.99l-4.36 0zm7.67 0l11.99 0c1.46,0 2.47,-0.26 3.04,-0.8 0.56,-0.53 0.84,-1.39 0.84,-2.61 0,-1.44 -0.41,-2.71 -1.23,-3.81 -0.82,-1.1 -1.89,-1.64 -3.19,-1.64 -0.93,0 -1.95,0.31 -3.03,0.91 -1.09,0.6 -2.74,2.12 -4.94,4.57 -1.56,1.71 -2.72,2.84 -3.48,3.38zm19.15 2.97l0 -2.97 23.42 0c1.68,0 2.52,-0.5 2.52,-1.5 0,-3.93 -0.24,-7.99 -0.71,-12.18 -0.47,-4.18 -1.11,-7.04 -1.91,-8.55 0.53,-1.01 1.22,-2.05 2.05,-3.12 0.65,1.4 1.35,2.46 2.11,3.17l-1.42 2.44c1.14,8.77 1.71,14.92 1.71,18.44 0,1.25 -0.34,2.27 -1,3.08 -0.67,0.8 -2.41,1.19 -5.24,1.19l-21.53 0zm43.05 -1.43c0,-3.87 -0.16,-8.01 -0.48,-12.41 -0.33,-4.62 -0.48,-8.02 -0.48,-10.22l2.5 -4.01 -0.09 3.75c0,2.69 0.04,5.15 0.12,7.39 0.12,3.52 0.19,5.98 0.19,7.4 0,4.72 -0.59,7.42 -1.76,8.1z"/>
  </g>
 </g>
</svg>
