<?xml version="1.0" encoding="UTF-8"?>
<!DOCTYPE svg PUBLIC "-//W3C//DTD SVG 1.1//EN" "http://www.w3.org/Graphics/SVG/1.1/DTD/svg11.dtd">
<!-- Creator: CorelDRAW -->
<svg xmlns="http://www.w3.org/2000/svg" xml:space="preserve" width="174px" height="40px" version="1.1" style="shape-rendering:geometricPrecision; text-rendering:geometricPrecision; image-rendering:optimizeQuality; fill-rule:evenodd; clip-rule:evenodd"
viewBox="0 0 174 40.05"
 xmlns:xlink="http://www.w3.org/1999/xlink"
 xmlns:xodm="http://www.corel.com/coreldraw/odm/2003">
 <defs>
  <style type="text/css">
   <![CDATA[
    .fil1 {fill:none}
    .fil0 {fill:white}
   ]]>
  </style>
 </defs>
 <g id="Layer_x0020_1">
  <metadata id="CorelCorpID_0Corel-Layer"/>
  <g id="_3104378385680">
   <path class="fil0" d="M15.42 24.15c-2.64,0 -7.63,-2.94 -9.7,-4.04l-5.84 5.47c1.47,5.68 5.37,8.43 6.65,13.92l16.97 0c1.04,-1.97 1.77,-3.78 2.97,-5.91 1.82,-3.25 8.91,-15.51 9.14,-18.32 -4.04,0.94 -18.17,8.88 -20.19,8.88z"/>
   <path class="fil0" d="M155.99 27.38c0,-5.55 10.5,-8.39 10.5,1.62 0,5.54 -10.5,5.37 -10.5,-1.62zm-6.47 -0.8c0,15.77 13.56,12.51 16.26,12.45 9.7,-0.23 7.98,6.75 7.98,-22.96 -7.37,0 -5.21,0.85 -10.2,-0.29 -7.6,-1.75 -14.04,5.68 -14.04,10.8z"/>
   <path class="fil0" d="M43.69 27.38c0,-6.67 10.5,-6.52 10.5,0 0,7.76 -10.5,7.64 -10.5,0zm15.35 12.1l1.38 -0.79 0.25 -22.62c-3.2,0 -5.66,0.6 -7.68,0.29 -3.74,-0.56 -3.48,-1.54 -6.99,-0.48 -11.27,3.43 -11.87,17.15 -2.64,22.33 2.36,1.32 4,1.54 7.48,1.17 4.66,-0.49 3.31,0.15 8.2,0.1z"/>
   <path class="fil0" d="M25.92 11.23c0,-13.57 -17.24,-14.56 -20.69,-4.48 -1.43,4.17 -0.35,8.74 2.33,11.52 6.57,6.82 18.36,1.55 18.36,-7.04z"/>
   <path class="fil0" d="M129.76 28.57c4.03,-4.96 -6.1,7.54 0,0zm-5.28 8.8l0.81 2.13 3.23 0.02c2.85,-1.1 2.19,-1.23 3.22,-4.06 0.99,-4.18 5.04,-13.23 6.47,-19.39l-7.27 0c-0.32,3.84 -2.07,6.31 -2.42,10.51l-1.62 0c-0.08,-3.51 -1.65,-7.18 -2.42,-10.51l-7.27 0c0.86,3.72 2.25,6.29 3.54,10.2 1.29,3.9 2.35,7.63 3.73,11.1z"/>
   <path class="fil0" d="M78.43 33.97c3.82,0.78 4.64,1.69 5.64,5.53l5.67 0 0 -5.65c-3.28,0 -2.6,0.27 -4.85,-0.81l0 -11.31 5.66 0 0 -5.66 -5.66 0 0 -6.46 -6.46 0 0 6.46c-3.28,0 -2.6,-0.27 -4.85,0.81l0 4.85 4.85 0 0 12.24z"/>
   <polygon class="fil0" points="64.7,36.71 71.58,33.85 71.99,7.19 64.7,7.19 "/>
   <path class="fil0" d="M139.83 24.77l0.04 1.33c-0.07,5.07 0.18,6.28 0.43,11.78l-0.14 1.62c8.35,0 7.07,0.49 6.95,-8.06 -0.07,-5.11 -0.01,-10.25 -0.01,-15.37l-7.27 0 0 8.7z"/>
   <path class="fil0" d="M139.02 8.8c0,1.73 0.18,2.54 1.1,3.75 3.41,4.53 10.1,-0.56 6.67,-5.06 -3.33,-4.38 -7.77,0.34 -7.77,1.31z"/>
   <path class="fil1" d="M108.23 38.46c1.63,0.06 0.79,0.34 1.71,1.02 2.06,-0.86 3.02,-1.84 5.65,-2.01l0 -3.64c-2.96,0.43 -6.19,-3.27 -8.87,-2.41 -0.86,0.28 -2.18,1.38 -2.77,1.62 -2.02,0.83 -5.97,4.03 -5.9,4.03 0.08,0 0.49,0.07 -0.22,1.12"/>
   <path class="fil0" d="M64.7 36.71c-0.3,1.93 0.17,2.71 1.52,2.86 3.52,0.4 5.74,0.86 5.36,-5.72 -3.63,0.29 -5.11,0.86 -6.88,2.86z"/>
   <path class="fil0" d="M84.07 39.5c1.26,-0.83 -0.92,-1.81 -1.16,-5.12l-4.48 -0.41c-0.75,3.63 3.63,5.82 5.64,5.53z"/>
   <path class="fil0" d="M97.8 27.89c0,-6.67 10.5,-6.52 10.5,0 0,7.76 -10.5,7.64 -10.5,0zm15.34 12.1l1.39 -0.79 0.24 -22.62c-3.2,0 -5.66,0.6 -7.68,0.29 -3.74,-0.56 -3.47,-1.54 -6.99,-0.48 -11.27,3.43 -11.86,17.15 -2.63,22.33 2.35,1.32 3.99,1.54 7.48,1.17 4.66,-0.49 3.31,0.15 8.19,0.1z"/>
  </g>
 </g>
</svg>
