<?xml version="1.0" encoding="UTF-8"?>
<!DOCTYPE svg PUBLIC "-//W3C//DTD SVG 1.1//EN" "http://www.w3.org/Graphics/SVG/1.1/DTD/svg11.dtd">
<!-- Creator: CorelDRAW -->
<svg xmlns="http://www.w3.org/2000/svg" xml:space="preserve" width="137px" height="40px" version="1.1" style="shape-rendering:geometricPrecision; text-rendering:geometricPrecision; image-rendering:optimizeQuality; fill-rule:evenodd; clip-rule:evenodd"
viewBox="0 0 137 40.07"
 xmlns:xlink="http://www.w3.org/1999/xlink"
 xmlns:xodm="http://www.corel.com/coreldraw/odm/2003">
 <defs>
  <style type="text/css">
   <![CDATA[
    .fil0 {fill:white}
   ]]>
  </style>
 </defs>
 <g id="Layer_x0020_1">
  <metadata id="CorelCorpID_0Corel-Layer"/>
  <g id="_3141889242160">
   <path class="fil0" d="M23.31 22.3c0.05,0.06 0.09,0.08 0.15,0.13l2.85 2.59c0.11,0.12 0.18,0.15 0.27,0.25 0.11,0.11 0.19,0.16 0.28,0.25l1.36 1.24c0.1,0.08 0.17,0.16 0.27,0.24l0.55 0.51c0.1,0.08 0.17,0.16 0.27,0.24 0.1,0.08 0.17,0.17 0.27,0.25l1.64 1.49c0.1,0.09 0.17,0.16 0.27,0.25 0.1,0.08 0.47,0.41 0.53,0.5 -0.14,0.47 -0.55,1.55 -0.74,2.07 -0.24,0.66 -2.13,6.03 -2.23,6.16l-5.77 -16.17c-0.06,-0.1 0,-0.05 0,-0.05 0.02,0.01 0.01,0.03 0.03,0.05zm-11.98 -12.33c0.03,-0.19 1.52,-4.27 1.59,-4.48l1.2 -3.35c0.12,-0.33 0.26,-0.79 0.41,-1.09l6.24 17.49 -0.44 -0.39c-0.54,-0.53 -1.23,-1.09 -1.77,-1.62l-3.69 -3.35c-0.35,-0.31 -0.9,-0.85 -1.19,-1.08 -0.1,-0.08 -0.18,-0.18 -0.29,-0.26 -0.25,-0.2 -0.5,-0.47 -0.74,-0.68 -0.05,-0.05 -0.1,-0.08 -0.15,-0.13 -0.26,-0.23 -0.98,-0.92 -1.17,-1.06zm-11.69 -9.18c0.14,0.16 0.31,0.3 0.48,0.44 0.28,0.23 0.52,0.51 0.81,0.73l7.8 7.1c0.06,0.05 0.12,0.09 0.17,0.14l1.15 1.04c-0.03,0.27 -0.53,1.52 -0.66,1.88l-4.67 13.03c-0.89,2.48 -1.76,4.98 -2.67,7.45 -0.8,2.16 -1.54,4.35 -2.34,6.51 -0.11,0.3 -0.25,0.65 -0.33,0.95l1.1 0c0.06,-0.03 0.04,-0.01 0.07,-0.07l0.12 -0.34c0.05,-0.16 0.1,-0.3 0.16,-0.45l0.98 -2.73c1.32,-3.63 2.57,-7.27 3.91,-10.89 0.44,-1.2 0.86,-2.41 1.29,-3.61 0.44,-1.21 0.88,-2.42 1.3,-3.64l2.28 -6.35c0.1,-0.26 0.27,-0.67 0.32,-0.92 0.16,0.09 0.26,0.22 0.4,0.34l0.38 0.34c0.24,0.22 0.5,0.49 0.76,0.7l0.57 0.51c0.08,0.06 0.1,0.1 0.18,0.17l1.91 1.73c0.07,0.07 0.11,0.1 0.19,0.17 0.07,0.06 0.12,0.12 0.19,0.18 0.14,0.11 0.26,0.23 0.39,0.34l2.08 1.9c0.06,0.07 0.13,0.11 0.19,0.17l0.58 0.53c0.18,0.18 0.38,0.32 0.57,0.51 0.08,0.09 0.1,0.1 0.18,0.17 0.27,0.22 0.51,0.48 0.77,0.7 0.21,0.18 1.27,1.11 1.32,1.22 0.15,0.34 0.61,1.72 0.77,2.16 1,2.86 2.07,5.71 3.06,8.58 0.87,2.5 1.82,5 2.68,7.5 0.12,0.33 0.31,0.77 0.38,1.08l1.11 0.01c0.07,-0.05 0.05,-0.04 0.08,-0.14 0.56,-1.62 1.15,-3.23 1.73,-4.85 0.61,-1.66 1.2,-3.34 1.79,-5 0.59,-1.66 1.2,-3.32 1.79,-4.99 0.58,-1.67 1.21,-3.32 1.78,-5 0.58,-1.68 1.21,-3.32 1.79,-5 1.17,-3.35 2.4,-6.65 3.57,-10 0.29,-0.84 0.6,-1.66 0.9,-2.5 0.15,-0.45 0.79,-2.13 0.89,-2.53l-1 0c-0.1,0.03 -0.17,0.34 -0.2,0.43 -0.83,2.27 -1.61,4.54 -2.44,6.81 -0.88,2.42 -1.74,4.84 -2.61,7.26 -0.86,2.43 -1.72,4.84 -2.6,7.27 -0.44,1.21 -0.88,2.42 -1.3,3.63 -0.16,0.45 -1.23,3.32 -1.31,3.66 -0.06,-0.04 -0.01,-0.01 -0.05,-0.04l-3.17 -2.87c-0.06,-0.07 -0.12,-0.1 -0.19,-0.17 -0.08,-0.09 -0.11,-0.1 -0.19,-0.17 -0.31,-0.26 -0.96,-0.9 -1.31,-1.21l-0.76 -0.68c-0.28,-0.29 -0.89,-0.77 -1.15,-1.04l-1.5 -1.37c-0.08,-0.07 -0.1,-0.08 -0.19,-0.17 -0.18,-0.19 -0.38,-0.33 -0.56,-0.52l-0.38 -0.34c-0.58,-0.47 -0.52,-0.54 -0.82,-1.34 -1.8,-4.96 -3.53,-9.95 -5.32,-14.9l-1.33 -3.71c-0.03,-0.09 -0.06,-0.18 -0.09,-0.27 -0.12,-0.32 0.04,-0.28 -0.96,-0.26l-0.75 0.01c-0.07,0.3 -0.28,0.82 -0.4,1.13 -0.14,0.38 -0.27,0.75 -0.41,1.14l-1.63 4.54c-0.14,0.38 -0.27,0.75 -0.4,1.13 -0.11,0.31 -0.29,0.9 -0.42,1.15 -0.17,-0.18 -0.42,-0.38 -0.61,-0.56l-6.47 -5.87c-0.26,-0.24 -0.55,-0.46 -0.79,-0.72l-0.32 -0.3c-0.06,-0.05 -0.1,-0.08 -0.16,-0.12l-1.75 -1.59c-0.14,0.11 -0.23,0.26 -0.36,0.38 -0.08,0.07 -0.11,0.12 -0.18,0.2 -0.08,0.09 -0.13,0.1 -0.17,0.21z"/>
   <g>
    <path class="fil0" d="M64.01 12.69c-0.05,0.02 0.03,0.02 -0.15,0.06l-0.46 0.02c-0.49,0 -1.56,0.05 -1.91,-0.04 -0.01,-0.19 -0.1,-2.11 0.07,-2.23 0.87,-0.03 2.61,-0.14 3.19,0.3 0.84,0.64 0.38,1.86 -0.74,1.89zm-4.5 5.02l1.99 0.01 0 -3.5 2.18 0 1.45 3.52 2.11 0 -1.67 -3.84c2.35,-0.79 2.42,-4.42 -0.94,-4.83 -0.6,-0.07 -4.71,-0.12 -5.12,-0.01l0 8.65z"/>
    <path class="fil0" d="M79.05 17.71l1.66 0.01 0 -5.73c0.23,0.16 0.35,0.44 0.54,0.72l3.15 4.7c0.11,0.18 0.15,0.33 0.33,0.33l1.77 -0.02 -0.01 -8.66c-0.47,-0.1 -1.13,-0.04 -1.62,-0.04 0,1.01 0.04,4.79 -0.03,5.51l-2.77 -4.16c-0.2,-0.29 -0.75,-1.23 -0.99,-1.35 -0.47,0 -1.65,-0.06 -2.03,0.04l0 8.65z"/>
    <path class="fil0" d="M91.66 10.48c1.68,-0.27 2.3,0.96 2.39,2.47 0.1,1.62 -0.22,3.09 -1.65,3.35 -1.67,0.31 -2.31,-1.03 -2.4,-2.48 -0.1,-1.58 0.23,-3.11 1.66,-3.34zm-0.7 7.33l2.12 0c0.2,-0.11 0.5,-0.18 0.74,-0.28 0.66,-0.29 1.23,-0.8 1.62,-1.38 1.63,-2.43 0.79,-7.33 -3.46,-7.26 -4.89,0.09 -5.38,6.96 -1.78,8.64 0.23,0.11 0.54,0.16 0.76,0.28z"/>
    <path class="fil0" d="M113.62 17.71l6.45 0.01 0 -1.55c-0.51,-0.14 -3.66,-0.04 -4.43,-0.04 -0.07,-0.52 -0.03,-1.47 -0.03,-2.04l3.53 -0.03 -0.01 -1.54c-0.44,-0.12 -2.85,-0.04 -3.49,-0.04 -0.07,-0.52 -0.03,-1.3 -0.03,-1.85l4.39 -0.02 0 -1.55c-0.32,-0.09 -6.07,-0.09 -6.38,0l0 8.65z"/>
    <path class="fil0" d="M124.45 11.11l1.11 3.09 -2.29 -0.01 1.18 -3.08zm-4.23 6.63l1.76 0 0.73 -2.04 3.45 -0.02c0.08,0.28 0.65,2.01 0.85,2.06l2.03 0 -3.28 -8.72c-2.75,0 -2.18,-0.29 -2.67,1.01 -0.15,0.37 -0.27,0.73 -0.42,1.11l-1.63 4.36c-0.24,0.63 -0.67,1.62 -0.82,2.24z"/>
    <path class="fil0" d="M54.12 11.1l1.1 3.1 -2.28 -0.01 1.18 -3.09zm-4.23 6.64l1.76 0 0.73 -2.04 3.45 -0.02c0.08,0.28 0.65,2.01 0.85,2.06l1.99 0 -3.24 -8.72c-2.75,0 -2.18,-0.29 -2.67,1.01 -0.15,0.37 -0.27,0.73 -0.42,1.11 -0.28,0.75 -0.55,1.45 -0.81,2.18l-1.64 4.42z"/>
    <path class="fil0" d="M99.68 17.81l2.21 0c0.27,-0.15 0.67,-0.21 0.99,-0.4 0.29,-0.16 0.63,-0.4 0.79,-0.6 0.47,-0.58 0.58,-1.28 0.59,-2.19 0.02,-1.85 0,-3.72 0,-5.58l-1.65 -0.02c0,1.47 0,2.93 0,4.4 0,1.55 0.24,2.85 -1.59,2.85 -1.8,0 -1.61,-1.22 -1.61,-2.78 0,-1.48 0,-2.97 0,-4.45l-2.03 -0.02c0,1.86 0,3.7 0,5.53 0,1.34 0.25,2.23 1.31,2.86 0.29,0.18 0.69,0.24 0.99,0.4z"/>
    <path class="fil0" d="M131.79 17.81l2.21 0c0.91,-0.51 2.33,-0.37 2.37,-3.19 0.02,-1.85 0,-3.73 0,-5.58l-1.65 -0.02c0,1.47 0,2.93 0,4.4 0,1.56 0.24,2.84 -1.59,2.85 -1.77,0 -1.62,-1.24 -1.62,-2.78 0,-1.48 0,-2.97 0,-4.45l-2.02 -0.02c0,1.86 0,3.7 0,5.53 -0.01,1.34 0.25,2.23 1.31,2.86 0.29,0.18 0.69,0.24 0.99,0.4z"/>
    <g>
     <path class="fil0" d="M108.52 26.06c-0.21,0.11 -0.33,0.08 -0.61,0.08 -0.22,0 -0.44,0 -0.66,0 -0.4,0 -0.86,0.06 -1.24,-0.04l-0.01 -1.77c-0.01,-0.21 -0.05,-0.37 0.07,-0.46 0.88,-0.04 2.61,-0.14 3.2,0.3 0.83,0.64 0.38,1.86 -0.75,1.89zm-4.5 5.02l2 0.01 0 -3.5 2.17 0 1.46 3.51 2.11 0.01 -1.67 -3.85c2.34,-0.79 2.41,-4.41 -0.95,-4.82 -0.59,-0.07 -4.71,-0.13 -5.12,-0.01l0 8.65z"/>
     <path class="fil0" d="M73.51 29.43c-0.08,0.18 -1.56,0.13 -1.8,0.06 -0.08,-0.79 -0.02,-3.75 -0.02,-4.96l0 -0.53c0.04,-0.15 0,-0.04 0.07,-0.13 1.52,-0.03 3.23,-0.21 3.75,1.95 0.44,1.83 -0.58,3.61 -2,3.61zm-3.84 1.68l3.54 0c2.5,0 4.52,-1.71 4.52,-4.19 0,-2.76 -1.75,-4.53 -4.52,-4.53l-3.54 0 0 8.72z"/>
     <path class="fil0" d="M96.54 26.79c0,-1.17 0.26,-2.3 1.05,-2.74 0.79,-0.44 2.04,-0.35 2.6,0.62 0.6,1.03 1.04,5.03 -1.65,5.03 -1.53,0 -2,-1.42 -2,-2.91zm0.99 4.39l2.11 0c0.37,-0.22 0.59,-0.11 1.37,-0.65 2.89,-1.99 2.33,-8.29 -2.41,-8.27 -4.94,0.02 -5.47,6.95 -1.84,8.64 0.23,0.11 0.54,0.15 0.77,0.28z"/>
     <path class="fil0" d="M79.03 31.08l6.45 0.01 0 -1.55c-0.51,-0.14 -3.66,-0.04 -4.43,-0.04 -0.07,-0.53 -0.03,-1.48 -0.03,-2.05l3.53 -0.02 0 -1.55c-0.45,-0.12 -2.86,-0.04 -3.5,-0.04 -0.06,-0.51 -0.03,-1.3 -0.03,-1.84l4.39 -0.03 0 -1.54c-0.31,-0.09 -6.07,-0.09 -6.38,0l0 8.65z"/>
     <path class="fil0" d="M89.08 31.18l2.12 0c0.46,-0.28 1.11,-0.28 1.8,-1.09 0.4,-0.45 0.85,-1.17 0.83,-2.03l-1.8 -0.17c-0.33,0.8 -0.07,0.84 -0.74,1.43 -0.4,0.35 -1.02,0.51 -1.62,0.29 -1.88,-0.67 -1.85,-5.23 0.03,-5.74 0.65,-0.18 1.26,0.01 1.62,0.37 0.48,0.48 0.41,0.77 0.71,1.42l1.83 -0.14c-0.26,-1.61 -1.08,-2.72 -2.51,-3.11 -5.31,-1.46 -6.82,6.04 -3.28,8.33 0.37,0.24 0.7,0.27 1.01,0.44z"/>
    </g>
    <polygon class="fil0" points="107.92,17.74 109.87,17.74 112.93,9.03 111.19,9.02 109.1,15.15 107.01,9.02 104.92,9.02 "/>
    <path class="fil0" d="M67.57 10.63l2.52 0.01 0 7.1 2.11 -0.02 0 -7.09 2.53 -0.02 0 -1.55c-0.6,-0.13 -6.09,-0.04 -7.16,-0.04l0 1.61z"/>
   </g>
  </g>
 </g>
</svg>
