<?xml version="1.0" encoding="UTF-8"?>
<!DOCTYPE svg PUBLIC "-//W3C//DTD SVG 1.1//EN" "http://www.w3.org/Graphics/SVG/1.1/DTD/svg11.dtd">
<!-- Creator: CorelDRAW -->
<svg xmlns="http://www.w3.org/2000/svg" xml:space="preserve" width="211px" height="40px" version="1.1" style="shape-rendering:geometricPrecision; text-rendering:geometricPrecision; image-rendering:optimizeQuality; fill-rule:evenodd; clip-rule:evenodd"
viewBox="0 0 211 40.09"
 xmlns:xlink="http://www.w3.org/1999/xlink"
 xmlns:xodm="http://www.corel.com/coreldraw/odm/2003">
 <defs>
  <style type="text/css">
   <![CDATA[
    .fil1 {fill:white}
    .fil0 {fill:white;fill-rule:nonzero}
   ]]>
  </style>
 </defs>
 <g id="Layer_x0020_1">
  <metadata id="CorelCorpID_0Corel-Layer"/>
  <g id="_2442142978912">
   <path class="fil0" d="M60.45 17.31l-5.96 0 0 -16.95 5.72 0c1.48,0 2.6,0.43 3.36,1.3 0.76,0.87 1.14,1.98 1.14,3.35 0,0.88 -0.17,1.64 -0.51,2.28 -0.34,0.65 -0.8,1.14 -1.38,1.47 0.63,0.3 1.14,0.78 1.51,1.43 0.38,0.66 0.57,1.43 0.57,2.32 0,1.5 -0.39,2.67 -1.15,3.52 -0.76,0.85 -1.86,1.28 -3.3,1.28zm-0.07 -7l-3.18 0 0 3.87 3.18 0c1.14,0 1.71,-0.64 1.71,-1.93 0,-0.59 -0.14,-1.06 -0.42,-1.41 -0.29,-0.35 -0.72,-0.53 -1.29,-0.53zm-0.19 -6.82l-2.99 0 0 3.67 2.99 0c0.54,0 0.97,-0.15 1.26,-0.46 0.3,-0.31 0.45,-0.77 0.45,-1.38 0,-0.54 -0.14,-0.98 -0.43,-1.32 -0.28,-0.34 -0.71,-0.51 -1.28,-0.51z"/>
   <path id="_1" class="fil0" d="M78.37 17.31l-3.22 0 -2.53 -6.42 -2.67 0 0 6.42 -2.79 0 0 -16.95 6.14 0c1.44,0 2.55,0.49 3.34,1.46 0.79,0.97 1.18,2.25 1.18,3.84 0,1.14 -0.2,2.14 -0.62,2.98 -0.41,0.85 -1.01,1.47 -1.78,1.86l2.95 6.81zm-3.77 -10.16c0.29,-0.36 0.44,-0.85 0.44,-1.49 0,-0.64 -0.15,-1.15 -0.45,-1.53 -0.3,-0.38 -0.73,-0.57 -1.29,-0.57l-3.35 0 0 4.13 3.35 0c0.57,0 1.01,-0.18 1.3,-0.54z"/>
   <path id="_2" class="fil0" d="M81.46 17.31l-2.91 0 4.88 -16.95 3.14 0 4.87 16.95 -2.77 0 -0.82 -2.92 -5.56 0 -0.83 2.92zm3.63 -12.66l-0.04 0.01 -1.88 6.61 3.79 0 -1.87 -6.62z"/>
   <polygon id="_3" class="fil0" points="95.76,6.11 95.76,17.31 93.05,17.31 93.05,0.36 95.83,0.36 101.77,11.6 101.77,0.36 104.47,0.36 104.47,17.31 101.67,17.31 "/>
   <path id="_4" class="fil0" d="M112.19 17.31l-4.86 0 0 -16.95 4.86 0c2.25,0 4,0.78 5.26,2.34 1.25,1.56 1.87,3.6 1.87,6.13 0,2.53 -0.62,4.58 -1.87,6.14 -1.26,1.56 -3.01,2.34 -5.26,2.34zm3.14 -4.6c0.7,-0.93 1.06,-2.22 1.06,-3.88 0,-1.65 -0.36,-2.94 -1.06,-3.88 -0.71,-0.93 -1.78,-1.39 -3.21,-1.39l-2 0 0 10.55 2 0c1.43,0 2.5,-0.47 3.21,-1.4z"/>
   <path id="_5" class="fil0" d="M137.97 2.51c1.32,1.67 1.98,3.78 1.98,6.32 0,2.55 -0.66,4.66 -1.98,6.33 -1.32,1.67 -3.01,2.5 -5.05,2.5 -2.05,0 -3.73,-0.83 -5.06,-2.5 -1.32,-1.67 -1.98,-3.78 -1.98,-6.33 0,-2.54 0.66,-4.65 1.98,-6.32 1.33,-1.67 3.01,-2.51 5.06,-2.51 2.04,0 3.73,0.84 5.05,2.51zm-2.1 10.32c0.76,-1.01 1.15,-2.34 1.15,-4 0,-1.65 -0.39,-2.98 -1.15,-4 -0.76,-1.01 -1.75,-1.51 -2.95,-1.51 -1.21,0 -2.2,0.5 -2.96,1.51 -0.76,1.02 -1.14,2.35 -1.14,4 0,1.66 0.38,2.99 1.14,4 0.76,1.01 1.75,1.52 2.96,1.52 1.2,0 2.19,-0.51 2.95,-1.52z"/>
   <path id="_6" class="fil0" d="M144.96 7.69l3.02 0c0.61,0 1.06,-0.19 1.37,-0.55 0.3,-0.37 0.46,-0.87 0.46,-1.51 0,-0.63 -0.16,-1.14 -0.46,-1.51 -0.31,-0.38 -0.76,-0.56 -1.37,-0.56l-3.02 0 0 4.13zm0 3.2l0 6.42 -2.78 0 0 -16.95 5.8 0c1.55,0 2.7,0.49 3.47,1.46 0.76,0.97 1.14,2.24 1.14,3.81 0,1.56 -0.39,2.83 -1.17,3.8 -0.78,0.97 -1.93,1.46 -3.44,1.46l-3.02 0z"/>
   <polygon id="_7" class="fil0" points="163.32,0.36 163.32,3.63 159.61,3.63 159.61,17.31 156.82,17.31 156.82,3.63 153.1,3.63 153.1,0.36 "/>
   <polygon id="_8" class="fil0" points="167.63,0.36 167.63,17.31 164.85,17.31 164.85,0.36 "/>
   <path id="_9" class="fil0" d="M181.95 2.51c1.32,1.67 1.98,3.78 1.98,6.32 0,2.55 -0.66,4.66 -1.98,6.33 -1.32,1.67 -3.01,2.5 -5.05,2.5 -2.05,0 -3.73,-0.83 -5.06,-2.5 -1.32,-1.67 -1.98,-3.78 -1.98,-6.33 0,-2.54 0.66,-4.65 1.98,-6.32 1.33,-1.67 3.01,-2.51 5.06,-2.51 2.04,0 3.73,0.84 5.05,2.51zm-2.1 10.32c0.76,-1.01 1.15,-2.34 1.15,-4 0,-1.65 -0.39,-2.98 -1.15,-4 -0.76,-1.01 -1.75,-1.51 -2.95,-1.51 -1.21,0 -2.2,0.5 -2.96,1.51 -0.76,1.02 -1.14,2.35 -1.14,4 0,1.66 0.38,2.99 1.14,4 0.76,1.01 1.75,1.52 2.96,1.52 1.2,0 2.19,-0.51 2.95,-1.52z"/>
   <polygon id="_10" class="fil0" points="188.87,6.11 188.87,17.31 186.16,17.31 186.16,0.36 188.94,0.36 194.87,11.6 194.87,0.36 197.58,0.36 197.58,17.31 194.78,17.31 "/>
   <path id="_11" class="fil0" d="M205.05 14.54c0.75,0 1.34,-0.17 1.76,-0.52 0.42,-0.34 0.63,-0.82 0.63,-1.44 0,-0.44 -0.14,-0.81 -0.4,-1.1 -0.27,-0.28 -0.62,-0.5 -1.05,-0.65 -0.42,-0.15 -0.89,-0.31 -1.4,-0.49 -0.5,-0.18 -1.02,-0.36 -1.54,-0.54 -0.52,-0.18 -0.99,-0.45 -1.42,-0.79 -0.42,-0.34 -0.77,-0.83 -1.04,-1.48 -0.26,-0.64 -0.4,-1.41 -0.4,-2.3 0,-1.48 0.45,-2.72 1.34,-3.73 0.89,-1 2.09,-1.5 3.6,-1.5 1.53,0 2.74,0.54 3.63,1.62 0.9,1.09 1.37,2.43 1.4,4.04l-2.72 0c-0.03,-0.76 -0.25,-1.38 -0.66,-1.85 -0.41,-0.47 -0.98,-0.71 -1.69,-0.71 -0.65,0 -1.17,0.18 -1.56,0.53 -0.4,0.35 -0.59,0.8 -0.59,1.34 0,0.45 0.13,0.81 0.41,1.09 0.27,0.28 0.62,0.5 1.05,0.65 0.43,0.15 0.9,0.31 1.42,0.49 0.52,0.18 1.04,0.37 1.57,0.55 0.53,0.18 1,0.45 1.43,0.8 0.43,0.35 0.78,0.86 1.04,1.52 0.27,0.67 0.4,1.46 0.4,2.39 0,1.53 -0.49,2.77 -1.48,3.74 -0.98,0.96 -2.28,1.44 -3.88,1.44 -0.9,0 -1.7,-0.16 -2.38,-0.49 -0.69,-0.32 -1.23,-0.77 -1.62,-1.32 -0.4,-0.56 -0.69,-1.16 -0.89,-1.82 -0.2,-0.65 -0.31,-1.34 -0.33,-2.07l2.74 0c0.04,0.74 0.28,1.36 0.73,1.86 0.44,0.49 1.08,0.74 1.9,0.74z"/>
   <path id="_12" class="fil0" d="M105.56 33.48l0 -3.13 5.81 0c0.02,0.24 0.02,0.54 0.02,0.89 0,2.61 -0.64,4.72 -1.92,6.33 -1.29,1.62 -2.89,2.43 -4.81,2.43 -2.03,0 -3.69,-0.81 -4.98,-2.41 -1.29,-1.61 -1.94,-3.73 -1.94,-6.35 0,-2.61 0.66,-4.73 1.98,-6.36 1.31,-1.64 2.96,-2.45 4.94,-2.45 1.66,0 3.08,0.58 4.28,1.75 1.21,1.17 1.96,2.7 2.28,4.6l-2.99 0c-0.2,-0.94 -0.63,-1.68 -1.28,-2.22 -0.65,-0.54 -1.41,-0.81 -2.29,-0.81 -1.23,0 -2.2,0.49 -2.91,1.48 -0.71,0.98 -1.07,2.32 -1.07,4.01 0,1.67 0.36,3.01 1.08,4.02 0.71,1.01 1.68,1.51 2.9,1.51 0.93,0 1.73,-0.29 2.4,-0.88 0.66,-0.59 1.12,-1.39 1.36,-2.41l-2.86 0z"/>
   <path id="_13" class="fil0" d="M124.83 39.73l-3.22 0 -2.53 -6.42 -2.67 0 0 6.42 -2.79 0 0 -16.94 6.14 0c1.44,0 2.55,0.48 3.34,1.45 0.79,0.97 1.18,2.25 1.18,3.85 0,1.14 -0.21,2.14 -0.62,2.98 -0.41,0.84 -1.01,1.46 -1.78,1.86l2.95 6.8zm-3.77 -10.15c0.29,-0.36 0.44,-0.86 0.44,-1.49 0,-0.64 -0.15,-1.15 -0.45,-1.53 -0.3,-0.38 -0.73,-0.57 -1.29,-0.57l-3.35 0 0 4.12 3.35 0c0.57,0 1.01,-0.17 1.3,-0.53z"/>
   <path id="_14" class="fil0" d="M137.93 24.93c1.32,1.68 1.98,3.78 1.98,6.33 0,2.55 -0.66,4.66 -1.98,6.33 -1.32,1.67 -3.01,2.5 -5.05,2.5 -2.05,0 -3.73,-0.83 -5.05,-2.5 -1.33,-1.67 -1.99,-3.78 -1.99,-6.33 0,-2.55 0.66,-4.65 1.99,-6.33 1.32,-1.67 3,-2.5 5.05,-2.5 2.04,0 3.73,0.83 5.05,2.5zm-2.1 10.33c0.76,-1.01 1.15,-2.34 1.15,-4 0,-1.65 -0.39,-2.99 -1.15,-4 -0.76,-1.01 -1.74,-1.51 -2.95,-1.51 -1.21,0 -2.19,0.5 -2.96,1.51 -0.76,1.01 -1.14,2.35 -1.14,4 0,1.66 0.38,2.99 1.14,4 0.77,1.01 1.75,1.51 2.96,1.51 1.21,0 2.19,-0.5 2.95,-1.51z"/>
   <path id="_15" class="fil0" d="M151.94 38.21c-1.09,1.25 -2.46,1.88 -4.1,1.88 -1.64,0 -3,-0.63 -4.1,-1.88 -1.09,-1.26 -1.63,-3.07 -1.63,-5.45l0 -9.97 2.78 0 0 10.07c0,1.24 0.24,2.22 0.73,2.94 0.49,0.71 1.23,1.07 2.22,1.07 1,0 1.74,-0.36 2.22,-1.07 0.49,-0.72 0.74,-1.7 0.74,-2.94l0 -10.07 2.78 0 0 9.97c0,2.38 -0.54,4.19 -1.64,5.45z"/>
   <path id="_16" class="fil0" d="M159.19 30.11l3.01 0c0.61,0 1.07,-0.18 1.37,-0.54 0.31,-0.37 0.46,-0.87 0.46,-1.51 0,-0.63 -0.15,-1.14 -0.46,-1.51 -0.3,-0.38 -0.76,-0.56 -1.37,-0.56l-3.01 0 0 4.12zm0 3.2l0 6.42 -2.79 0 0 -16.94 5.8 0c1.55,0 2.71,0.48 3.47,1.45 0.76,0.97 1.14,2.25 1.14,3.82 0,1.56 -0.39,2.83 -1.17,3.8 -0.78,0.97 -1.93,1.45 -3.44,1.45l-3.01 0z"/>
   <g>
    <path class="fil1" d="M24.49 34.98c0.39,-1.64 -0.09,-0.86 1.15,-1.72l0.57 -1.15 0.57 -1.15c0.05,-2.01 0.68,-6.77 1.49,-8.26 1.24,-2.3 2.89,-3.54 6.51,-3.24 5.96,0.49 8.5,6.92 4.23,11.5l0.16 8.03c18.96,-8.13 4.24,-34.03 -11.6,-25.01 -2.05,1.17 -3.04,2.62 -4.8,3.8 -0.61,2.6 -1.84,3.37 -2.22,6.38 -0.41,3.3 -0.28,5.08 -2.19,6.99 -3.36,3.36 -9.7,1.76 -11.28,-2.28 -1.08,-2.76 -0.39,-13.6 -0.36,-17.4 0.04,-7.58 -0.65,-10.02 -6.89,-11.47 0,4.41 -0.36,9.08 -0.57,13.63l0 10.01c0.63,8.36 3.49,14.92 12.85,16.31 2.4,0.36 5.11,-0.38 7,-1.18 2.5,-1.06 3.49,-2.52 5.38,-3.79z"/>
    <path class="fil1" d="M22.77 17.78c-0.22,-2.57 -1.47,-3.15 -3.42,-4.04 -1.85,-0.86 -3.4,-1.23 -6.34,-1.17 -7.32,0.15 -5.72,2.88 -5.72,9.79 2.33,-1.56 2.1,-3.05 6.29,-2.93 4.48,0.13 4.23,1.98 6.32,3.51 1.05,-2.18 0.91,-3.73 2.87,-5.16z"/>
    <path class="fil1" d="M26.78 30.96l-0.57 1.15 -0.57 1.15c-0.4,1.63 0.08,0.86 -1.15,1.72 0.58,5.35 11.23,6.15 14.68,4.01l-0.16 -8.03c-1.18,1.41 -3.62,2.62 -6.15,2.01 -3.09,-0.76 -3.38,-2.31 -5.5,-3.73 0,3.04 -0.01,0.86 -0.58,1.72z"/>
   </g>
  </g>
 </g>
</svg>
