<?xml version="1.0" encoding="UTF-8"?>
<!DOCTYPE svg PUBLIC "-//W3C//DTD SVG 1.1//EN" "http://www.w3.org/Graphics/SVG/1.1/DTD/svg11.dtd">
<!-- Creator: CorelDRAW -->
<svg xmlns="http://www.w3.org/2000/svg" xml:space="preserve" width="164px" height="40px" version="1.1" style="shape-rendering:geometricPrecision; text-rendering:geometricPrecision; image-rendering:optimizeQuality; fill-rule:evenodd; clip-rule:evenodd"
viewBox="0 0 164 40.12"
 xmlns:xlink="http://www.w3.org/1999/xlink"
 xmlns:xodm="http://www.corel.com/coreldraw/odm/2003">
 <defs>
  <style type="text/css">
   <![CDATA[
    .fil0 {fill:white}
   ]]>
  </style>
 </defs>
 <g id="Layer_x0020_1_0">
  <metadata id="CorelCorpID_0Corel-Layer"/>
  <g id="_3141877810288">
   <g>
    <path class="fil0" d="M24.77 38.81c-0.68,-0.1 -1.15,-0.54 -1.38,-0.99 0.18,-0.19 1.32,-1.06 1.78,-0.83 0.61,0.3 -0.28,1.47 -0.4,1.82zm3.68 -1.4c0.12,-0.84 0.33,-1.32 0.35,-2.23 0.03,-0.88 0.02,-1.77 0.02,-2.65 0.39,-0.06 0.65,-0.22 0.93,-0.36l-0.01 3.26c0,0.48 0.07,0.57 -0.17,0.89 -0.22,0.29 -0.8,0.98 -1.12,1.09l0 0 0 0zm-5.51 -1.67l0.06 -0.09c0.1,0.2 0.01,0.06 -0.02,0.1 -0.17,0.5 -0.25,1 -0.28,1.56 -0.55,0.14 -1.66,0.63 -2.16,-0.35 0.58,-0.35 0.75,-0.1 2.4,-1.22l0 0 0 0zm-2.63 0.27c-0.01,-0.49 0.39,-1.65 0.73,-2.08l0.05 -0.06c0.29,0.43 0.23,0.6 0.71,0.8 0.46,0.2 0.87,0.06 1.36,0.08 -0.71,0.71 -1.57,1.06 -2.85,1.26l0 0zm15.99 -1.13c-0.2,-0.37 -0.1,-1.21 0.4,-0.95 0.17,0.09 0.23,0.38 0.11,0.61 -0.08,0.18 -0.3,0.31 -0.51,0.34zm-9.24 -3.02l0.07 0.05c0.01,0 0.02,0.01 0.03,0.02 0.01,0.01 0.02,0.02 0.03,0.03 0.52,0.46 0.34,0.3 0.96,0.57l0.15 5.03c-0.16,0.15 -0.48,0.34 -0.67,0.43 -0.53,-0.59 -0.59,-5.04 -0.57,-6.13l0 0 0 0zm-5.03 1.43c0.38,-0.21 0.73,0.11 0.86,0.4 -0.35,0.05 -0.88,-0.03 -0.86,-0.4zm0.45 -1.03c0.06,-0.07 0.04,-0.05 0.14,-0.11l0.45 -0.2c0.77,-0.29 1.3,-0.27 1.98,0.2 1.26,0.88 -0.15,1.32 -1.04,1.38 -0.33,-0.42 -0.45,-1.18 -1.53,-1.27zm12.32 -0.94l0.12 -0.15c-0.09,0.25 -0.04,0.1 -0.12,0.15zm-7.66 -2.73c0.07,-0.15 0.04,-0.09 0.23,-0.17l0.7 -0.33 0.04 3.21c-1.07,-0.2 -0.97,-1.76 -0.97,-2.71l0 0 0 0zm1.7 2.77c-0.01,-0.97 -0.01,-1.95 -0.03,-2.92 -0.01,-0.76 -0.12,-0.86 0.21,-1.14 0.28,-0.22 0.47,-0.49 0.74,-0.7l-0.01 4.41c-0.23,0.15 -0.53,0.36 -0.91,0.35l0 0zm-7.78 -2.97c0.31,0.42 0.9,1.46 0.87,2.17 -0.94,0.59 -2.89,1.88 -4.31,1.88 -1.17,0 -2.07,-0.95 -1.81,-2.22l1.3 -0.28c-0.66,1.36 0.49,2.12 0.65,0.69 -0.12,0.15 -0.23,0.32 -0.51,0.27 -0.16,-0.23 -0.12,-0.57 -0.01,-0.86 0.12,-0.32 1.09,-0.43 2.19,-1.23 0.66,-0.48 1.69,-1.5 1.91,-2.66 0.63,-0.1 0.57,-0.17 0.99,-0.45 0.18,-0.12 0.22,-0.03 0.49,0.02 0.21,0.04 0.46,0.04 0.66,0.07 0.03,0.06 0,-0.06 0.04,0.13 0.01,0.05 0.01,0.12 0.01,0.18 0.07,1.28 0.12,4.09 -0.39,5.04 -0.09,0.15 -1.15,0.84 -1.56,1.21 -0.66,0.6 -1.26,1.65 -1.59,2.57 -0.1,0.28 -0.24,0.92 -0.33,1.11 -1.57,0.08 -2.04,-1.23 -1.36,-2.46 0.16,-0.3 0.27,-0.26 0.85,-0.46 -0.82,1.5 0.28,2.37 0.54,0.88 -0.61,0.68 -0.72,0.04 -0.54,-0.51 0.11,-0.35 0.09,-0.42 0.4,-0.59 0.54,-0.28 2,-1.25 2.39,-1.67 0.8,-0.85 0.54,-1.74 0.39,-2.56l0.37 0.03c-0.1,-0.24 -0.77,-1.44 -0.91,-1.59 -0.17,0.4 -0.52,0.88 -0.73,1.29l0 0zm6.05 -6.91c0.48,0.98 0.63,1.6 0.76,2.8 0.1,1.09 0.18,2.31 0.18,3.42 -0.11,0.19 -0.7,0.61 -0.92,0.7l-0.02 -6.92 0 0zm-0.64 6.88l0.19 7.61c0.01,0.4 0.03,0.8 0.07,1.19 0.04,0.38 0.15,0.86 0.16,1.19 -0.47,0.3 -1.38,0.52 -2.03,0.48 0.05,-0.14 0.47,-0.59 0.79,-1.22 0.17,-0.33 0.58,-1.23 0.27,-1.56 -0.64,-0.71 -2.27,0.88 -2.76,1.01 -0.02,-0.74 0.37,-2.25 0.68,-2.5 0.21,-0.17 1.3,-0.1 2.07,-1.1 1.36,-1.75 -0.28,-3.32 -2.28,-2.51 0.64,-1.58 0.41,-2.04 0.46,-3.75 0.02,-0.44 -0.04,-1.02 0.01,-1.43l0.46 -0.03c-0.16,0.75 -0.68,1.83 -0.16,2.61 0.18,0.28 0.54,0.62 1.03,0.57 0.39,-0.04 0.91,-0.39 1.04,-0.56l0 0 0 0zm-6.26 -3.13c-0.23,0.01 -0.43,-0.01 -0.6,-0.12 -0.1,-0.07 -0.29,-0.26 -0.14,-0.42 0.36,-0.39 0.68,0.27 0.74,0.54l0 0zm10.2 -1.06l0.26 0.3 -0.29 0.53 0.03 -0.83zm5.4 4.82c-0.22,-0.2 -0.44,-0.52 -0.63,-0.76l-3.05 -3.66c-0.94,-1.08 -0.69,-0.42 -0.51,-1.81 0.56,0.28 3.53,4.35 4.32,5.35 0.15,0.18 0.17,0.19 0.08,0.44 -0.07,0.17 -0.12,0.32 -0.21,0.44l0 0zm-12.89 -6.3c0.2,0.13 0.74,0.62 0.69,0.99 -0.02,0.19 -0.51,0.86 -0.83,0.75 -0.25,-0.06 -0.81,-0.51 -0.74,-0.93 0.05,-0.31 0.58,-0.74 0.88,-0.81l0 0zm1.23 0.62c0.52,0.11 1.15,0.45 1.34,0.86 -0.17,0.43 -0.88,0.44 -1.38,0.44 0.04,-0.56 0.12,-0.69 0.04,-1.3l0 0 0 0zm-18.51 -0.36c0.27,-0.25 0.91,-0.61 1.27,-0.82 0.99,-0.61 3,-1.83 4.05,-2.08 -0.15,2.51 2.28,4.57 4.11,5.73 0.32,0.2 0.65,0.42 1.02,0.62 0.22,0.11 0.93,0.44 1.08,0.55l-0.54 0.7c-0.16,0.22 -0.33,0.44 -0.49,0.7 -0.28,0.44 -0.15,0.42 -0.8,0.46 -0.36,0.03 -0.75,0.03 -1.13,0.02 -1.93,-0.09 -3.9,-0.8 -5.34,-1.89 -0.47,-0.36 -0.97,-0.73 -1.34,-1.1 -0.61,-0.6 -1.72,-2.03 -1.89,-2.89l0 0 0 0zm25.36 0.34c-0.82,-0.72 -0.61,-0.73 -0.61,-1.85 0.01,0.01 0.02,0.02 0.03,0.02l0.08 0.05c0,0.01 0.02,0.02 0.03,0.03 0.05,0.04 0.02,0.02 0.08,0.07 0.05,0.06 0.09,0.09 0.14,0.15 0.12,0.12 0.16,0.17 0.2,0.39 0.06,0.34 0.1,0.79 0.05,1.14l0 0zm-2.23 3.83c0,-1.77 -0.12,-3.4 -0.39,-5.08 0.38,0.2 0.96,1.03 1.38,1.38 0,0.79 0.01,1.56 0.01,2.35 0,0.51 -0.34,0.7 -0.71,1.08 -0.1,0.1 -0.15,0.19 -0.29,0.27l0 0zm0.18 -5.89c-1.65,-1.62 -1.86,-0.64 -1.86,-2.77l2.1 1.78c0.33,0.35 0.59,0.39 0.59,0.72l-0.02 1.01 -0.81 -0.74 0 0 0 0zm-4.18 4.49c0.56,-0.14 0.88,-0.27 1.1,-0.73 0.22,-0.43 0.29,-1 0.18,-1.5 -0.28,-1.23 -1.88,-1.36 -1.95,-1.64l0.01 -1.48 -0.03 -1.57c0.23,0.03 0.93,0.5 1.16,0.64 -0.18,0.4 -0.44,0.49 -0.44,1.17 0,0.92 0.71,0.91 0.84,-0.1 -0.12,0.15 -0.25,0.34 -0.51,0.28 -0.32,-0.18 0.11,-1.15 0.15,-1.29 0.4,0.14 0.73,0.53 1.06,0.7l0.1 6.65c0.01,0.69 -0.8,1.14 -1.43,0.79 -0.56,-0.31 -0.34,-1.23 -0.24,-1.92l0 0zm10.7 -0.27c-0.55,-0.69 -1.21,-1.37 -1.69,-1.96l-2.23 -2.43c-0.08,-0.11 -0.2,-0.59 -0.29,-0.77 -0.09,-0.23 -0.23,-0.47 -0.35,-0.67 -0.58,-0.97 -0.54,-0.54 -0.54,-1.54 0,-0.68 0.02,-1.41 0,-2.09 0.2,0.13 0.34,0.35 0.5,0.54l1 1.08c0.16,0.2 0.32,0.34 0.49,0.55 0.31,0.36 0.61,0.75 0.93,1.15 1.71,2.08 3.14,4.47 3.14,7.32l-0.96 -1.18 0 0 0 0zm-22.68 -6.69c0.23,-0.47 1.05,-0.98 1.71,-1.23 1.87,-0.7 4.35,-0.47 6.25,0.01 1.5,0.38 1.61,0.55 2.63,0.87l0.05 2.77c-0.22,-0.15 -0.75,-0.53 -0.99,-0.62 -0.06,0.38 -0.29,0.93 -0.26,1.29 0.14,0.12 0.2,0.13 0.29,0.25 -0.07,0.19 -0.23,0.38 -0.35,0.58 -0.7,1.15 -0.46,1.16 -0.35,2.17 -0.16,0.15 -0.24,0.17 -0.52,0.22 -0.1,-0.51 -0.4,-1.13 -0.68,-1.45 -0.91,-1.01 -1.85,1.01 -1.82,1.9 0.05,1.1 1.31,0.92 2.03,0.83 -0.25,0.53 -1.17,1.24 -1.79,1.58 -0.61,0.32 -1.75,0.71 -2.54,0.74 0.23,-0.48 1.34,-1.93 1.77,-2.36 0.11,-0.11 0.15,-0.15 0.23,-0.28 -0.32,-0.2 -0.67,-0.34 -1.01,-0.53 -1.06,-0.6 -1.75,-0.96 -2.74,-1.72 -0.78,-0.58 -2.35,-2.03 -2.35,-3.61 0,-0.49 0.02,-0.48 0.52,-0.44 1.79,0.13 4.65,3.44 6.58,3.3 0.9,-0.07 1.55,-1.06 1.55,-2.07 0,-0.38 -0.1,-1.19 -0.29,-1.47 -0.17,0.13 -0.7,0.62 -0.81,0.83 0.31,0.74 1,1.97 -0.6,1.54 -2.38,-0.65 -3.1,-2.83 -6.51,-3.1l0 0 0 0zm11.27 -1.57c0.18,0.14 1.02,1.18 1.16,1.47l-1.14 -0.56 -0.02 -0.91zm2.27 1.19c-0.12,-0.12 -0.6,-0.78 -0.68,-0.95 0.24,0.13 0.49,0.29 0.67,0.47l0.01 0.48 0 0zm0.76 -1.96c0.44,0.39 1.26,1.4 1.66,1.84 0.19,0.2 0.36,0.4 0.5,0.61 -0.44,-0.34 -1.77,-1.46 -2.18,-1.65l0.02 -0.8 0 0zm-21.95 3.75c0,-2.15 1.62,-3.88 2.68,-4.69 1.37,-1.05 3.3,-1.85 5.55,-1.85l0.84 0c2.62,0 5.73,0.91 8.08,1.92 0.18,0.07 0.4,0.19 0.58,0.28 0.63,0.32 0.5,1.03 0.5,1.97 -0.46,-0.13 -0.94,-0.36 -1.43,-0.51 -2.02,-0.64 -3.56,-0.86 -5.71,-0.86 -1.75,0 -4.24,0.6 -4.96,2.34 -0.14,0.36 -0.05,0.21 -0.61,0.43 -1.6,0.6 -2.68,1.46 -3.97,2.27 -0.37,0.24 -0.88,0.68 -1.25,0.84 -0.26,-0.46 -0.3,-1.55 -0.3,-2.14l0 0 0 0zm18.14 -5.73c0,0 -0.03,-0.02 -0.03,-0.02l-0.61 -0.76c-0.16,-0.22 -0.41,-0.56 -0.55,-0.83 -0.35,-0.7 0.71,-1.38 1.1,-1.54l0.09 3.15zm2.98 -0.67c-0.3,-0.21 -1.22,-1.44 -1.39,-1.94 -0.29,-0.8 0.94,-1.66 1.34,-1.81 0.01,0.99 0.09,2.86 0.05,3.75l0 0zm3.29 -0.55c-0.24,-0.19 -0.59,-0.65 -0.82,-0.94 -0.22,-0.28 -0.53,-0.71 -0.68,-1.1 -0.31,-0.84 0.88,-1.86 1.3,-2.09l0.2 4.13zm-3.02 -11.11c-0.02,-0.02 -0.07,-0.06 -0.09,-0.08 -1.08,2 -0.81,0.69 -0.53,3.16 0.14,1.23 0.29,2.68 0.27,3.91 -1.3,0.76 -2.42,1.54 -1.84,3.71 0.24,0.94 1.1,1.89 1.79,2.52 0.19,0.18 0.16,0.22 0.16,0.57 0,0.25 0.03,0.48 0,0.73 -0.33,-0.12 -0.76,-0.47 -1.1,-0.67 -0.35,-0.2 -0.8,-0.5 -1.18,-0.64 -0.06,-2.79 -0.04,-5.59 -0.32,-8.36 -0.07,-0.74 -0.14,-1.89 -0.32,-2.58 -0.16,0.15 -0.53,0.83 -0.68,1.08 -0.17,0.28 0.07,1.14 0.11,1.5 0.11,0.83 0.36,2.5 0.32,3.28 -0.61,0.47 -1.03,0.86 -1.37,1.57 -0.18,0.37 -0.24,0.8 -0.24,1.27 0.02,0.62 0.2,0.77 0.32,1.22 -0.93,-0.25 -1.52,-0.56 -2.87,-0.87 -4.85,-1.1 -11.01,-0.57 -13.84,3.84 -0.48,0.75 -0.87,1.63 -1.08,2.64 -0.27,1.33 -0.11,2.07 0.14,3.31 -0.18,0.16 -0.38,0.28 -0.57,0.42 -0.92,0.69 -3.57,2.63 -3.85,3.42 0.42,-0.14 3.72,-2.77 4.59,-3.26 0.11,0.12 0.57,1.12 0.75,1.41l0.69 0.95c2.33,2.86 5.52,4.2 9.49,4.08 -0.09,1.23 -0.4,2.75 1.31,3.19 0.54,0.15 0.87,0.08 1.43,0.04 -0.23,0.79 -0.97,1.59 -0.68,2.59 0.25,0.86 1.27,1.13 2.37,1.05 0.14,0.64 0.55,1.2 1.06,1.42 0.75,0.34 1.37,-0.1 1.96,-0.29 0.3,0.52 0.28,1.46 1.73,1.65 1.05,0.14 2.01,-0.25 2.74,-0.67 0.23,0.24 0.35,0.51 0.67,0.68 0.33,0.16 0.72,0.27 1.1,0.18 0.6,-0.13 1.23,-0.86 1.44,-1.4 0.44,0.27 0.98,1.09 1.73,-0.62 0.21,0.16 0.64,0.49 1.03,0.19 0.37,-0.28 0.31,-0.53 0.5,-0.97 0.35,0.1 0.77,0.38 1.19,-0.13 0.26,-0.33 0.33,-0.84 0.32,-1.36 0.67,0.59 0.97,0.34 1.16,0.69 0.07,0.15 0.12,0.28 0.2,0.41l-0.01 -0.67c0.31,-0.38 0.7,-0.66 0.87,-1.34 0.42,-1.72 -1.21,-3.02 -1.56,-1.8 -0.23,0.81 0.05,1.55 -0.01,1.9 -0.02,0.12 0.02,0.03 -0.04,0.1 -0.41,0.24 -0.9,-0.64 -1.06,-0.91 -0.23,-0.38 -0.46,-1.15 -0.81,-1.29 -0.06,0.15 -0.01,0.38 0,0.56 0.07,0.77 -0.06,0.47 0.4,0.94 0.27,0.28 0.65,0.9 0.54,1.28 -0.09,0.33 -0.29,0.64 -0.6,0.7 -0.46,0.07 -0.56,-0.31 -0.73,-0.58 -0.09,0.45 -0.13,0.9 -0.4,1.24 -0.12,0.14 -0.28,0.3 -0.58,0.23 -0.25,-0.06 -0.27,-0.27 -0.34,-0.52 -0.22,0.48 -0.57,1.37 -1.19,1.25 -0.28,-0.05 -0.3,-0.28 -0.32,-0.56 -0.52,0.66 -0.81,1.61 -1.83,1.6 -0.43,0 -0.6,-0.18 -0.85,-0.29 0.1,-0.21 -0.01,-0.05 0.15,-0.19 0.07,-0.06 0.1,-0.09 0.16,-0.13 0.77,-0.59 1.57,-1.36 1.95,-2.32 0.36,-0.92 -0.11,-3.98 0.18,-4.69l0.09 0.16c0.22,0.45 0.48,0.96 1.14,0.79 0.54,-0.15 0.68,-0.83 0.93,-1.21 0.18,0.21 0.37,0.53 0.76,0.56 0.44,0.04 0.65,-0.25 0.77,-0.6 0.24,-0.77 0.16,-1.72 -0.33,-2.2 -0.12,0.13 -0.3,0.59 -0.33,0.75 -0.02,0.15 0.06,0.25 0.13,0.38 0.04,0.1 0.17,0.31 0.11,0.4 -0.23,0.32 -0.87,-0.09 -0.99,-0.51 -0.07,-0.23 0.01,-0.34 -0.16,-0.46 -0.17,0.19 -0.11,0.74 -0.16,1 -0.08,0.31 -0.24,0.54 -0.52,0.65 -0.33,0.14 -0.74,0.07 -0.9,-0.14 -0.2,-0.25 -0.14,-0.72 -0.13,-1.07 -0.01,0.01 -0.03,0.01 -0.03,0.03 -0.01,0.02 -0.03,0.02 -0.04,0.03l-0.31 0.36c-0.08,0.07 0.01,0.01 -0.1,0.07 0,-0.49 -0.07,-4.27 0.02,-4.57 0,-0.01 0.53,-0.88 0.6,-0.96 0.38,0.2 2.89,3.59 3.16,3.97l1.03 1.36c-0.35,0.79 -1.3,1.72 -1.87,2.36 -0.22,0.25 -0.49,0.5 -0.68,0.77 -0.24,-0.09 -0.54,-0.38 -0.76,-0.52 -0.06,0.04 -0.02,0.02 -0.08,0.07 -0.19,0.19 -0.46,0.53 -0.55,0.78 0.13,0.14 0.66,0.5 0.83,0.57 0.25,-0.18 0.4,-0.5 0.64,-0.72 0.6,-0.57 1.2,-1.16 1.72,-1.81l0.28 -0.31c0.01,-0.01 0.02,-0.02 0.02,-0.03l0.05 -0.04c-0.05,0.35 -0.38,0.93 -0.07,1.37 0.34,0.51 0.68,-0.2 0.72,-0.62 -0.12,0.17 -0.22,0.33 -0.52,0.28 -0.24,-0.4 0.02,-0.94 0.19,-1.31 -0.18,0.03 -0.08,0 -0.11,-0.02 0.06,-0.1 0.07,-0.08 0.11,-0.11l0.23 -0.3c0.1,-0.1 -0.02,-0.02 0.13,-0.1 0.16,0.32 1.01,1.17 1.31,1.41 0.49,0.4 1.01,0.76 1.74,0.99 1.22,0.38 3.64,0.27 5.08,0.37 1.63,0.12 3.22,0.32 4.76,0.69 0.65,0.16 1.47,0.42 2.01,0.72 0.42,0.23 0.39,0.14 1.18,0.09 0.43,-0.04 0.85,-0.07 1.29,-0.1 -0.33,-0.65 -3.02,-1.26 -3.99,-1.45 -1.6,-0.3 -3.3,-0.48 -4.98,-0.53 -3.02,-0.09 -5.04,-0.15 -7.11,-2.45 -0.2,-0.22 -0.41,-0.56 -0.61,-0.74 0.09,-0.23 0.23,-0.38 0.32,-0.63l0.22 0.22c0.08,0.09 0.12,0.14 0.18,0.21 0.14,0.16 0.24,0.31 0.36,0.43 0.32,0.32 0.51,0.54 0.82,0.82 0.6,0.52 1.11,0.86 2.1,1.12 2.97,0.78 6.77,0.06 11.39,1.49 0.78,0.24 1.65,0.56 2.3,0.92 0.18,0.11 0.32,0.17 0.5,0.29 0.27,0.18 0.28,0.2 0.69,0.16 0.5,-0.04 1.02,-0.08 1.53,-0.11 -0.2,-0.34 -1.86,-1.17 -2.44,-1.42 -3.07,-1.3 -6.73,-1.35 -10.05,-1.52 -3.76,-0.2 -5.14,-1.46 -6.88,-3.74 -0.23,-0.31 -0.2,-0.26 -0.13,-0.71 0.51,-3.23 -1.14,-6.26 -2.93,-8.57 -0.44,-0.57 -2.16,-2.66 -2.67,-3.13l-0.95 -1.03c-0.25,-0.28 -0.18,-0.25 -0.18,-0.73 -0.03,-3.1 -0.19,-7.2 -0.48,-10.2 -0.1,-0.93 -0.26,-2.55 -0.54,-3.37 -0.14,0.13 -0.32,0.5 -0.43,0.7 -0.21,0.35 -0.32,0.38 -0.23,0.8 0.15,0.65 0.23,1.34 0.31,2.02 0.17,1.42 0.28,2.89 0.32,4.35 -0.03,0.18 -1.19,1.08 -1.61,1.99 -0.43,0.96 -0.51,2 0.01,2.91 0.2,0.34 0.53,0.71 0.77,1.01 0.27,0.34 0.54,0.65 0.81,0.98 0.49,0.57 0.38,0.2 0.44,1.34 0.03,0.58 0.09,1.2 0.06,1.79 -0.13,-0.11 -1.47,-1.87 -1.89,-2.29 -1.06,-1.1 -0.83,-0.71 -0.83,-2.13 0,-0.77 -0.01,-1.59 -0.03,-2.37 -0.07,-2.47 -0.09,-4.38 -0.28,-6.84 -0.06,-0.7 -0.18,-1.46 -0.21,-2.15l0 0 0 0z"/>
    <path class="fil0" d="M31.94 28.38c-0.25,-0.14 -0.57,-0.41 -0.85,-0.51l-0.56 0.9c0.25,0.21 0.59,0.38 0.85,0.61 0.28,-0.18 0.36,-0.56 0.61,-0.8l0.84 0.52c0.13,-0.27 0.41,-0.67 0.58,-0.91l-0.88 -0.6 -0.3 0.4c-0.1,0.16 -0.16,0.3 -0.29,0.39l0 0 0 0z"/>
    <path class="fil0" d="M32.28 34.86c-0.26,-0.1 -0.56,-0.39 -0.84,-0.48 -0.12,0.14 -0.48,0.71 -0.57,0.87 0.14,0.11 0.76,0.49 0.92,0.53 0.11,-0.14 0.16,-0.25 0.26,-0.39l0.29 -0.37 0.78 0.47c0.1,-0.09 0.09,-0.08 0.17,-0.2l0.41 -0.66 -0.86 -0.56 -0.15 0.17c-0.05,0.07 -0.1,0.15 -0.14,0.21 -0.1,0.15 -0.18,0.28 -0.27,0.41l0 0z"/>
    <path class="fil0" d="M35.76 38.12l-0.94 -0.23 -0.28 1.01c0.27,0.14 0.7,0.21 1.02,0.24l0.26 -0.9 0.93 0.19c0.1,-0.18 0.26,-0.79 0.29,-0.97l-1.02 -0.29 -0.26 0.95 0 0 0 0z"/>
    <path class="fil0" d="M16.6 23.82l0.82 0.77c0.17,-0.08 0.77,-0.75 0.86,-0.92 -0.29,-0.17 -0.57,-0.58 -0.88,-0.73 -0.23,0.31 -0.55,0.57 -0.8,0.88l0 0z"/>
    <path class="fil0" d="M18.98 30.43c0.14,0.13 0.78,0.58 0.99,0.66 0.11,-0.27 0.45,-0.72 0.63,-1.01l-0.94 -0.64 -0.68 0.99 0 0 0 0z"/>
    <path class="fil0" d="M30.9 27.27c0.29,0.11 0.61,0.44 0.89,0.52 0.14,-0.17 0.5,-0.68 0.58,-0.84l-0.86 -0.59c-0.16,0.18 -0.52,0.71 -0.61,0.91l0 0 0 0z"/>
    <path class="fil0" d="M24.82 35.13c0.11,0.11 0.72,0.49 0.88,0.55 0.16,-0.2 0.48,-0.62 0.59,-0.85 -0.23,-0.12 -0.68,-0.43 -0.87,-0.57 -0.17,0.18 -0.5,0.65 -0.6,0.87l0 0z"/>
   </g>
   <g>
    <path class="fil0" d="M76.3 29.15c0.54,0.53 0.74,0.77 0.68,1.76 -1.19,0.06 -1.68,-0.39 -1.89,-1.42l1.21 -0.34zm-7.26 -0.97c-1.17,0 -1.71,-0.03 -1.65,-1.35 0.05,-1.16 0.6,-1.34 1.74,-1.34l-0.09 2.69zm6.01 -0.29c-0.02,-1.11 0.34,-1.85 0.92,-2.43 0.54,0.24 0.78,0.55 0.83,1.37 -0.4,0.55 -0.82,0.92 -1.75,1.06zm22.88 1.44l2.7 0.06c0,-1.31 0.17,-4.13 -0.13,-5.22l-1.21 0 -0.16 4.03c-0.33,0.03 -0.29,0.08 -0.65,0.01 -0.34,-0.04 -0.18,-0.04 -0.35,-0.17 -1.2,-0.26 -0.79,-1.55 -0.79,-3l-1.6 -0.02c0,2.1 0.53,3.29 -1.9,3.15l-0.02 -3.15 -1.46 0 -0.12 3.15 -2.25 0.09c-0.94,-0.11 -0.24,0 -0.57,-0.21l-0.04 -6.56 -1.53 0 -0.02 6.67 -10.2 0c0.61,-1.88 1.2,-2.96 -1.81,-4.51 -1.16,1.19 -2,2.05 -2.21,4.51l-2.9 -0.03 -0.05 -3.95c-2.17,-0.09 -4.35,0.07 -4.85,2.07 -0.24,0.98 0.03,2.01 0.57,2.58 0.74,0.75 1.51,0.61 2.74,0.64 -0.23,1.85 -1.62,1.21 -2.92,0.92l-0.52 1.14c1.42,0.71 3.87,0.87 4.71,-0.71 0.24,-0.43 0.18,-0.55 0.27,-0.8 0.21,-0.5 -0.06,-0.33 0.42,-0.55l2.34 -0.02c0.71,0.49 0.63,1.7 1.55,2.31 0.43,0.27 4.2,1.95 3.15,-2.26 3.23,-0.26 10.53,0 14.58,-0.03 2.03,-0.02 2.77,0.31 4.15,-0.71l1.08 0.56 0 0.01 0 0z"/>
    <path class="fil0" d="M128.83 25.65c0.29,-0.26 0,-0.22 0.73,-0.16 0.25,0.76 0.21,1.9 0.03,2.71 -0.63,0.09 -0.63,0.11 -1.06,-0.12 -0.54,-0.24 -0.76,-0.59 -0.65,-1.41 0.03,-0.26 0.13,-0.57 0.32,-0.74 0.52,-0.5 0.1,-0.2 0.63,-0.28l0 0zm31.45 2.43c-0.89,-1.82 0.45,-3.48 1.56,-2.28 0.79,0.82 0.02,2.8 -1.56,2.28zm-13.16 0.07c-0.65,-1.03 -0.36,-3.56 1.34,-2.5 0.78,0.49 0.68,2.55 -1.34,2.5zm-1.56 -0.08c-0.13,0.08 -0.09,0.13 -0.42,0.19 -0.11,0.02 -0.4,0.02 -0.53,0.02 -2.59,0.03 -12.51,0.09 -13.51,-0.1l-0.01 -3.93 -2.19 0.05c-3.1,0.21 -3.65,4.59 -1.15,4.96l1.9 0.19c-0.01,0.79 -0.08,0.46 -0.21,0.62 -0.53,1.08 -1.54,0.58 -2.72,0.34l-0.53 1.19c2.33,0.75 4.8,0.67 4.98,-2.15 4.06,0 8.12,0 12.17,0 1.58,0 4.35,0.28 5.61,-0.29 1.61,-0.74 0.32,0.05 2,0.28l8.99 0.01c1.87,0.02 3.38,-0.29 3.72,-2.14 0.39,-2.01 -0.87,-3.24 -2.83,-3.08 -2.34,0.21 -2.28,1.5 -2.21,3.55l0.21 0.45c-0.31,0.03 -0.78,0.08 -1.08,0.06 -0.66,-0.04 -0.47,0.1 -0.71,-0.26 -1.52,-2.15 0.11,-5.1 -5.27,-3.51l0.42 1.21c0.67,-0.23 1.82,-0.71 2.4,0.13 0.05,0.08 0.74,2.19 0.76,2.32 -3.12,0.05 -4.94,0.55 -4.92,-0.92 0,-0.51 0.21,-1.08 -0.34,-1.95 -0.42,-0.68 -1.08,-1.11 -2.24,-1.1 -2.48,0.07 -2.95,1.6 -2.29,3.86l0 0 0 0z"/>
    <path class="fil0" d="M109.6 28.12c-2.43,0.32 -2.4,-2.84 0,-2.57l0 2.57zm-1.01 -3.79c-1.98,0.14 -3.1,2.22 -2,3.92 0.95,1.5 3.11,1.21 5.22,1.21 4.35,0.01 8.75,0.06 13.14,0l0.05 -1.26c-1.42,-0.03 -3.05,0.34 -3.23,-1.23 -0.21,-1.71 1.02,-1.67 2.42,-1.4l0.45 -0.18 0.16 -0.66c-0.14,-0.4 -0.01,-0.22 -0.17,-0.47 -1.36,-0.08 -2.46,-0.48 -3.57,0.47 -0.74,0.61 -1.27,2.1 -0.42,3.1 0.34,0.3 0.15,-0.36 0.33,0.45l-9.85 -0.1 -0.02 -4.43 -1.46 0.01 -0.07 0.46 -0.98 0.11 0 0 0 0z"/>
    <path class="fil0" d="M99.55 9.65c2.99,-1.26 4.09,3.54 1.61,4.56 -2.82,1.13 -4.31,-3.45 -1.61,-4.56zm-0.38 -1.65c-4.98,1.42 -2.96,9.5 2.39,7.85 4.85,-1.48 3.05,-9.41 -2.39,-7.85z"/>
    <path class="fil0" d="M146.46 12.58c-0.8,3.03 -4.96,1.92 -4.24,-1.31 0.7,-3.04 5.15,-1.98 4.24,1.31zm-3.3 -4.58c-4.88,1.52 -3.06,9.37 2.39,7.87 1.87,-0.52 3.41,-2.66 2.72,-5.14 -0.52,-1.86 -2.61,-3.5 -5.11,-2.73l0 0 0 0z"/>
    <path class="fil0" d="M117.45 14.4c-0.58,0.29 -0.85,0.29 -1.58,0.07 -0.14,-0.62 -0.34,-1.79 0.18,-2.02 0.79,0 1.74,-0.1 2.09,0.47 0.47,0.76 -0.01,1.32 -0.69,1.48l0 0zm-1.45 -3.27c-0.37,-0.39 -0.24,-1.15 -0.14,-1.74 1.16,-0.13 0.83,-0.2 1.51,0.16 0.6,0.18 0.63,0.26 0.49,1.16 -0.68,0.53 -0.71,0.44 -1.86,0.42zm-1.87 4.67c2.07,0.04 5.14,0.37 5.8,-1.22 0.7,-1.69 -0.43,-2.39 -1.14,-2.9 0.19,-0.2 0.9,-0.63 0.92,-1.62 0.01,-0.79 -0.42,-1.32 -0.89,-1.61 -1.08,-0.71 -3.29,-0.46 -4.69,-0.42l0 7.77 0 0z"/>
    <path class="fil0" d="M128.62 12.85l1.37 0.13c0.02,0.16 0.08,0.34 0.07,0.52 -0.15,0.85 0.01,0.21 -0.28,0.55 -1.72,1.17 -3.9,-0.29 -3.59,-2.53 0.11,-0.97 0.76,-1.76 1.53,-1.96 1.32,-0.35 2.01,0.42 2.64,0.79 0.47,-0.37 0.87,-0.61 1.13,-1.25 -3.88,-2.98 -7.12,-0.26 -7.19,2.77 -0.08,4.13 4.68,5.32 7.22,3.13l0.1 -3.45 -2.98 -0.02 -0.02 1.32 0 0 0 0z"/>
    <path class="fil0" d="M89.68 12.95c0.15,-0.45 -0.29,-0.39 1.58,-0.37 0.61,0.01 1.15,-0.02 1.74,0.05l0.13 3.17 1.47 0.02c0.32,-1.39 0.11,-5.93 0.11,-7.64l-1.64 0 -0.05 2.79 -3.34 0.05 0 -3 -1.8 0.03 0.01 7.71 1.76 0.06 0.03 -2.87 0 0 0 0z"/>
    <path class="fil0" d="M69.18 12.63c0.24,0.21 0.32,-0.49 0.31,1.4 -0.02,0.56 0,1.13 0,1.71l1.64 -0.1 -0.02 -7.61 -1.78 0.02 0 2.98 -3.24 -0.05c-0.13,-0.19 -0.12,-0.05 -0.18,-0.38l-0.03 -2.45 -1.65 0 -0.03 7.67 1.76 -0.03 0.03 -3.15 3.19 -0.01 0 0 0 0z"/>
    <path class="fil0" d="M135.09 9.48l1.83 0.18c0.29,0.78 0.29,0.94 0.02,1.78l-1.87 0.06 0.01 -2.02 0.01 0 0 0zm-1.75 5.63l0.04 0.73 1.66 -0.02 0.05 -2.82c1.27,-0.05 0.99,0.03 1.51,1.11 0.97,1.98 0.71,1.76 2.76,1.69l-1.6 -3.01c0.64,-0.82 1.64,-1.44 1.1,-3.11 -0.65,-2.03 -3.31,-1.66 -5.52,-1.66l0 7.09 0 0 0 0z"/>
    <path class="fil0" d="M112.41 8.02l-1.82 0.03c0,3.3 0.59,6.29 -1.49,6.27 -1.35,-0.02 -1.45,-0.97 -1.45,-2.27 0,-1.34 0,-2.68 0,-4l-1.82 -0.03c0,3.51 -0.88,8.04 3.27,8.02 4.21,0 3.31,-4.41 3.31,-8.02l0 0z"/>
    <path class="fil0" d="M156.26 13.58l0.09 -5.45 -1.67 0 -0.01 4.63c-0.08,0.48 -0.1,0.3 -0.16,0.42 -0.21,1.66 -2.48,1.46 -2.81,0.06 -0.19,-0.85 -0.05,-4.11 -0.05,-5.21l-1.78 0c0,2.53 -0.5,5.89 1.04,7.27 1.81,1.6 5.15,0.63 5.35,-1.72l0 0z"/>
    <path class="fil0" d="M75.22 12.37l0.87 -2.45 0.71 2.34c0.15,0.19 0.2,-0.32 0.16,0.51l-1.9 -0.06 0.16 -0.34 0 0zm-2.93 3.45l1.81 -0.02 0.59 -1.74 2.69 0 0.62 1.71 1.9 0.05 -2.13 -5.96c-0.29,-0.79 -0.47,-1.71 -0.93,-1.84l-1.44 0c-0.61,0.16 -1.43,3.17 -1.68,3.79 -0.43,1.14 -1.24,2.91 -1.43,4.01l0 0z"/>
    <path class="fil0" d="M62.91 14.55c-0.24,-0.63 -0.61,-0.84 -1.02,-1.2 -0.83,0.37 -1.22,1.32 -2.86,0.87 -2.16,-0.59 -1.92,-4.14 0.03,-4.66 1.5,-0.4 2.01,0.55 2.9,0.89 0.31,-0.39 0.5,-0.48 0.9,-1.11 -0.56,-0.69 -0.85,-1.03 -1.82,-1.32 -0.87,-0.26 -2.05,-0.24 -2.9,0.09 -5.58,2.26 -0.95,11.69 4.77,6.44l0 0z"/>
    <path class="fil0" d="M159.91 9.5c0.98,-0.01 2.06,-0.18 2.03,1.1 -0.02,1.16 -0.94,1.04 -2.03,1.04l0 -2.14zm-1.78 6.3l1.76 0 0.02 -2.7c2.32,-0.04 4.41,-0.55 3.72,-3.31 -0.52,-2.08 -3.3,-1.9 -5.5,-1.74l0 7.75 0 0z"/>
    <polygon class="fil0" points="81.07,15.11 81.11,15.82 86.56,15.82 86.56,14.24 82.85,14.22 82.85,8.02 81.07,8.02 "/>
    <path class="fil0" d="M57.91 28.07c-0.95,-0.34 -0.64,-1.26 -0.53,-2.4l-1.45 0 -0.35 1.21 0 0.93 0.53 1c0.3,0.35 0.43,0.37 0.93,0.5l7.5 0.1 -0.12 -5.23 -1.19 -0.03c-0.35,1.27 0.02,2.71 -0.19,4.01 -0.78,0.26 -1.76,0.13 -2.6,0.13 -1.04,0 -2,0.15 -2.53,-0.22l0 0 0 0z"/>
    <path class="fil0" d="M96.32 21.7c-0.56,-0.24 -1.74,-0.29 -1.32,0.84 0.31,0.81 1.47,0.87 1.32,-0.84z"/>
    <path class="fil0" d="M98.01 22.93c0.29,-1.05 -0.21,-1.92 -0.96,-1.31 -0.66,0.53 -0.41,1.6 0.96,1.31z"/>
    <path class="fil0" d="M60.7 32.1c0.84,-2.16 -1.79,-2.02 -0.97,-0.03l0.97 0.03z"/>
    <path class="fil0" d="M154.28 32c1.02,-1.88 -1.92,-1.96 -0.9,0.11l0.9 -0.11z"/>
    <path class="fil0" d="M108.38 22.99l0.8 -0.06c0.26,-0.97 0.26,-1.58 -0.98,-1.31 -0.48,0.73 -0.35,0.89 0.18,1.37z"/>
    <path class="fil0" d="M110.94 22.9c0.16,-0.46 0.15,-0.86 -0.03,-1.29l-0.91 -0.07c-0.64,0.98 -0.14,1.66 0.94,1.36l0 0z"/>
    <path class="fil0" d="M96.13 20.07c-0.18,0.54 -0.11,0.81 0,1.15l0.87 0.01 0.14 -1.14 -1.01 -0.02z"/>
   </g>
  </g>
 </g>
</svg>
