<?xml version="1.0" encoding="UTF-8"?>
<!DOCTYPE svg PUBLIC "-//W3C//DTD SVG 1.1//EN" "http://www.w3.org/Graphics/SVG/1.1/DTD/svg11.dtd">
<!-- Creator: CorelDRAW -->
<svg xmlns="http://www.w3.org/2000/svg" xml:space="preserve" width="130px" height="40px" version="1.1" style="shape-rendering:geometricPrecision; text-rendering:geometricPrecision; image-rendering:optimizeQuality; fill-rule:evenodd; clip-rule:evenodd"
viewBox="0 0 130 40.04"
 xmlns:xlink="http://www.w3.org/1999/xlink"
 xmlns:xodm="http://www.corel.com/coreldraw/odm/2003">
 <defs>
  <style type="text/css">
   <![CDATA[
    .fil0 {fill:white}
    .fil1 {fill:white;fill-rule:nonzero}
   ]]>
  </style>
 </defs>
 <g id="Layer_x0020_1">
  <metadata id="CorelCorpID_0Corel-Layer"/>
  <g id="_3104677819600">
   <g>
    <path class="fil0" d="M7.87 15.36c0,-7.49 7.54,-13.8 17.57,-15.1 -1.37,-0.19 -2.74,-0.26 -4.04,-0.26 -11.97,0 -21.67,6.9 -21.67,15.36 0,8.45 9.7,15.42 21.67,15.42 1.37,0 2.73,-0.07 4.03,-0.26 -10.02,-1.37 -17.56,-7.62 -17.56,-15.16l0 0zm0 0l0 0 0 0z"/>
   </g>
   <path class="fil0" d="M30.25 24.46c0.13,7.55 -7.35,13.86 -17.37,15.36 1.36,0.2 2.73,0.26 4.03,0.2 11.97,-0.13 21.6,-7.16 21.47,-15.69 -0.13,-8.45 -9.89,-15.29 -21.86,-15.09 -1.37,0 -2.73,0.13 -4.03,0.32 10.02,1.24 17.69,7.42 17.76,14.9z"/>
   <path class="fil1" d="M64.15 10.93l0.06 3.25c-0.26,-0.32 -0.71,-0.84 -1.43,-1.43 -0.71,-0.58 -1.62,-0.91 -2.8,-0.91 -0.91,0 -1.75,0.26 -2.53,0.85 -0.78,0.58 -1.37,1.36 -1.83,2.41 -0.39,1.04 -0.65,2.14 -0.65,3.25 0,0.52 0.07,0.97 0.13,1.43 0.07,0.45 0.26,1.04 0.52,1.82 0.33,0.78 0.85,1.43 1.7,2.02 0.84,0.58 1.75,0.91 2.79,0.91 1.18,0 2.09,-0.26 2.8,-0.85 0.72,-0.52 1.17,-1.04 1.5,-1.43l-0.46 3.13 -0.45 0.19c-0.78,0.33 -1.5,0.52 -2.15,0.65 -0.65,0.13 -1.3,0.2 -1.95,0.2 -2.02,0 -3.71,-0.59 -5.08,-1.7 -1.36,-1.1 -2.21,-2.34 -2.47,-3.64 -0.26,-1.3 -0.39,-2.21 -0.39,-2.8 0,-2.34 0.85,-4.23 2.47,-5.79 1.63,-1.56 3.65,-2.34 6.12,-2.34 0.58,0 1.11,0.06 1.69,0.13 0.59,0.06 1.11,0.19 1.56,0.32l0.85 0.33zm1.76 15.36c0.32,-0.52 0.52,-1.24 0.52,-2.15l0 -10.8c0,-0.85 -0.13,-1.56 -0.33,-2.02l-0.19 -0.39c1.32,-0.12 2.63,-0.38 3.9,-0.78l-0.13 0.39c-0.26,0.85 -0.39,1.76 -0.39,2.8l0.13 3.71 0.65 -0.72 0.71 -0.91c0.4,-0.19 0.72,-0.26 1.05,-0.26l0.71 0c1.95,0 2.99,1.04 2.99,3.06l0 5.85c0,0.52 0,0.91 0.07,1.18 0.07,0.19 0.13,0.45 0.26,0.71l0.2 0.26 -3.91 0c0.13,-0.26 0.26,-0.58 0.39,-0.91 0.07,-0.33 0.13,-0.78 0.13,-1.24l0 -5.85c0,-0.91 -0.39,-1.37 -1.23,-1.37 -0.2,0 -0.4,0.07 -0.66,0.13 -0.26,0.07 -0.52,0.2 -0.71,0.39 -0.2,0.2 -0.39,0.33 -0.52,0.52 -0.13,0.2 -0.2,0.33 -0.2,0.39l0 5.86c0,0.45 0.07,0.84 0.13,1.17 0.07,0.33 0.2,0.65 0.39,0.98l-3.96 0zm11.97 0l0.13 -0.26c0.26,-0.52 0.39,-1.11 0.39,-1.89l0 -6.9c0,-0.26 0,-0.58 -0.07,-0.84 -0.06,-0.33 -0.13,-0.59 -0.26,-0.85l-0.13 -0.32 3.39 0 0 2.01c0.26,-0.65 0.65,-1.17 1.3,-1.49 0.58,-0.33 1.1,-0.52 1.56,-0.52 0.19,0 0.39,0.06 0.58,0.13 -0.13,0.52 -0.26,0.97 -0.32,1.43 -0.07,0.39 -0.13,0.84 -0.13,1.36 -0.2,-0.19 -0.46,-0.39 -0.72,-0.52 -0.32,-0.13 -0.58,-0.19 -0.84,-0.19 -0.33,0 -0.59,0.06 -0.85,0.26 -0.26,0.19 -0.39,0.45 -0.45,0.71 -0.07,0.26 -0.13,0.52 -0.13,0.65l0 5.08c0,0.84 0.19,1.56 0.52,2.15l-3.97 0zm7.67 -11l4.04 0c0,0.2 -0.07,0.33 -0.07,0.46 0,0.26 0.07,0.52 0.2,0.91l2.02 5.01 1.88 -5.14c0.07,-0.13 0.13,-0.39 0.13,-0.65 0,-0.26 -0.06,-0.46 -0.13,-0.65l3.52 0c-0.59,0.65 -1.05,1.49 -1.44,2.47l-3.38 8.33c-0.39,0.97 -0.84,1.75 -1.23,2.27 -0.39,0.52 -0.92,0.98 -1.57,1.43l-2.4 0c0.52,-0.39 1.1,-1.04 1.69,-1.82 0.65,-0.78 1.1,-1.75 1.49,-2.99l-3.12 -7.22c-0.32,-0.65 -0.52,-1.17 -0.78,-1.5 -0.19,-0.26 -0.45,-0.58 -0.85,-0.91l0 0zm18.81 0.26l0 1.24c0,0.13 0.06,0.45 0.13,0.97l-0.33 -0.26c-0.39,-0.32 -0.84,-0.58 -1.23,-0.78 -0.39,-0.19 -0.78,-0.26 -1.11,-0.26 -0.13,0 -0.26,0 -0.39,0.07 -0.13,0 -0.32,0.13 -0.65,0.26 -0.26,0.13 -0.46,0.45 -0.46,0.91 0,0.32 0.07,0.52 0.2,0.71 0.13,0.2 0.26,0.33 0.39,0.39 0.13,0.13 0.26,0.2 0.39,0.33l0.98 0.78c0.91,0.65 1.56,1.17 1.88,1.69 0.33,0.52 0.46,1.11 0.46,1.76 0,0.97 -0.39,1.75 -1.11,2.34 -0.71,0.59 -1.75,0.85 -2.99,0.85 -0.33,0 -0.78,0 -1.24,-0.07 -0.52,-0.06 -1.04,-0.19 -1.62,-0.39l0.06 -1.24 -0.06 -1.3 0.19 0.26c0.46,0.52 0.91,0.85 1.37,1.11 0.45,0.26 0.84,0.39 1.3,0.39 0.26,0 0.52,-0.06 0.91,-0.26 0.33,-0.13 0.52,-0.52 0.52,-1.04 0,-0.33 -0.06,-0.52 -0.19,-0.65l-0.46 -0.46c-0.19,-0.13 -0.32,-0.26 -0.52,-0.39l-0.65 -0.45 -0.33 -0.2c-0.78,-0.52 -1.3,-1.04 -1.62,-1.56 -0.33,-0.52 -0.52,-1.11 -0.52,-1.82 0,-0.98 0.32,-1.76 1.04,-2.34 0.71,-0.59 1.69,-0.85 2.99,-0.85l0.85 0c0.32,0 0.58,0 0.78,0.07 0.19,-0.13 0.52,0 1.04,0.19l0 0zm10.99 5.53l-6.11 0 0 0.39c0,0.13 0.06,0.39 0.13,0.91 0.06,0.52 0.32,0.98 0.84,1.5 0.46,0.45 1.11,0.71 1.89,0.71 0.78,0 1.69,-0.26 2.67,-0.71l0.52 -0.33c-0.46,0.72 -0.78,1.5 -1.04,2.28 -0.59,0.26 -1.11,0.39 -1.63,0.46 -0.52,0.06 -0.91,0.13 -1.3,0.13 -1.56,0 -2.8,-0.46 -3.71,-1.37 -0.91,-0.91 -1.36,-2.15 -1.36,-3.84 0,-0.52 0.06,-1.24 0.19,-2.15 0.13,-0.91 0.52,-1.69 1.04,-2.34 0.52,-0.65 1.17,-1.1 1.95,-1.36 0.72,-0.26 1.37,-0.33 1.96,-0.33 1.23,0 2.21,0.46 2.92,1.43 0.72,0.98 1.04,2.34 1.04,4.17l0 0.45zm-6.05 -1.43l3.58 0c0,-0.2 0.07,-0.39 0,-0.46 0,-0.84 -0.13,-1.49 -0.45,-1.95 -0.33,-0.45 -0.72,-0.71 -1.24,-0.71 -0.19,0 -0.46,0.06 -0.78,0.19 -0.33,0.13 -0.52,0.39 -0.78,0.78 -0.2,0.39 -0.33,0.98 -0.46,1.76l0 0.39 0.13 0zm7.75 6.64l0.19 -0.26c0.13,-0.2 0.2,-0.46 0.26,-0.78 0.07,-0.33 0.07,-0.66 0.07,-1.11l0 -10.8c0,-0.91 0,-1.56 -0.07,-1.89 -0.06,-0.32 -0.19,-0.71 -0.39,-1.04l3.84 0 -0.13 0.33c-0.13,0.39 -0.26,0.71 -0.33,1.1 -0.06,0.39 -0.06,0.91 -0.06,1.56l0 10.8c0,0.52 0.06,0.91 0.13,1.24 0.06,0.33 0.19,0.65 0.45,0.91l-3.96 0 0 -0.06zm12.42 -10.74l0 1.24c0,0.13 0.07,0.45 0.13,0.97l-0.32 -0.26c-0.39,-0.32 -0.85,-0.58 -1.24,-0.78 -0.39,-0.19 -0.78,-0.26 -1.1,-0.26 -0.13,0 -0.26,0 -0.39,0.07 -0.13,0.06 -0.33,0.13 -0.65,0.26 -0.26,0.13 -0.46,0.45 -0.46,0.91 0,0.32 0.07,0.52 0.2,0.71 0.13,0.2 0.26,0.33 0.39,0.39 0.13,0.13 0.26,0.2 0.39,0.33l0.97 0.78c0.91,0.65 1.56,1.17 1.89,1.69 0.32,0.52 0.45,1.11 0.45,1.76 0,0.97 -0.39,1.75 -1.1,2.34 -0.72,0.59 -1.76,0.85 -2.99,0.85 -0.33,0 -0.79,0 -1.24,-0.07 -0.52,-0.06 -1.04,-0.19 -1.63,-0.39l0.07 -1.24 -0.07 -1.3 0.2 0.26c0.45,0.52 0.91,0.85 1.36,1.11 0.46,0.26 0.85,0.39 1.31,0.39 0.26,0 0.52,-0.06 0.91,-0.26 0.32,-0.13 0.52,-0.52 0.52,-1.04 0,-0.33 -0.07,-0.52 -0.2,-0.65l-0.45 -0.46c-0.2,-0.13 -0.33,-0.26 -0.52,-0.39l-0.66 -0.45 -0.32 -0.2c-0.78,-0.52 -1.3,-1.04 -1.63,-1.56 -0.32,-0.52 -0.52,-1.11 -0.52,-1.82 0,-0.98 0.33,-1.76 1.04,-2.34 0.72,-0.59 1.69,-0.85 3,-0.85l0.84 0c0.33,0 0.59,0 0.78,0.07 0.2,-0.13 0.59,0 1.04,0.19l0 0z"/>
  </g>
 </g>
</svg>
