<?xml version="1.0" encoding="UTF-8"?>
<!DOCTYPE svg PUBLIC "-//W3C//DTD SVG 1.1//EN" "http://www.w3.org/Graphics/SVG/1.1/DTD/svg11.dtd">
<!-- Creator: CorelDRAW -->
<svg xmlns="http://www.w3.org/2000/svg" xml:space="preserve" width="121px" height="40px" version="1.1" style="shape-rendering:geometricPrecision; text-rendering:geometricPrecision; image-rendering:optimizeQuality; fill-rule:evenodd; clip-rule:evenodd"
viewBox="0 0 121 40"
 xmlns:xlink="http://www.w3.org/1999/xlink"
 xmlns:xodm="http://www.corel.com/coreldraw/odm/2003">
 <defs>
  <style type="text/css">
   <![CDATA[
    .fil0 {fill:white}
   ]]>
  </style>
 </defs>
 <g id="Layer_x0020_1">
  <metadata id="CorelCorpID_0Corel-Layer"/>
  <g id="_3142095542064">
   <path class="fil0" d="M81.37 21.46l-0.11 15.37c-0.94,0.32 -8.33,0.27 -9.14,-0.09 -4.47,-0.78 -8.95,-2.82 -11.46,-6.55 -1.37,-2.05 -2.27,-3.24 -2.91,-6.04 -1.27,-5.55 -0.21,-9.94 2.87,-14.24 0.4,-0.55 0.46,-0.74 0.98,-1.26 6.27,-6.3 11.41,-5.45 19.52,-5.45 0,3.53 1.57,2.79 -7.83,2.79 -2.47,0 -4.34,0.76 -6.22,1.79 -5.78,3.18 -8.44,10.1 -6.47,16.51 0.29,0.94 1.22,2.96 1.75,3.64 2.72,3.44 5.22,5.35 10.14,6.08 1.18,0.17 3.81,0.3 5.3,0.14 1.19,-0.12 0.72,-1.75 0.72,-4.67 0,-3.61 0,-7.21 0,-10.81l29.82 0 0 2.79 -26.96 0zm-43.39 15.28c-0.83,0.37 -7.61,0.2 -8.23,0.13l-0.03 -2.84 8.36 -0.14c3.12,0.36 7.99,-2.62 9.8,-5.05 2.67,-3.58 4.37,-9.23 1.87,-14.39 -0.8,-1.68 -0.12,-0.63 -1.31,-2.42l-1.71 -2.01c-1.49,-1.87 -4.76,-3.34 -7.33,-3.86 -2.33,-0.47 -4.17,-0.16 -6.91,-0.16l0 15.46 -29.82 0 0 -2.79 27.02 0 0 -15.47c3.94,0 10.49,-0.56 14.27,1.57 2.25,1.27 4.77,2.77 6.38,5.17 3.41,5.08 4.31,10.17 2.21,16.12 -0.69,1.94 -1.77,3.45 -3.05,4.96 -0.29,0.34 -0.19,0.31 -0.49,0.64 -2.34,2.64 -7.39,5.08 -11.03,5.08zm17.63 -24.22c-0.01,0.02 -0.15,0.76 -0.41,-0.19 -0.28,-1.56 -2.88,-5.05 -3.94,-6.1 -1.72,-1.71 -3.63,-3.18 -5.98,-4.27 -2.79,-1.3 -5.13,-1.74 -8.32,-1.74 -3.42,0 -6.83,0 -10.25,0l0 15.28 -27.21 0 0 8.94 36.15 0 0 -15.28c3.18,0 5.48,0.21 7.88,2.2 0.87,0.72 1.09,0.81 1.79,1.74 0.56,0.76 0.9,1.14 1.33,2.02 0.37,0.76 0.72,1.72 0.92,2.63 1.2,5.34 -2.11,11.09 -7.56,12.73 -3,0.9 -9.43,0.49 -13.3,0.49l0 8.94c5.98,0 13.48,0.7 18.76,-1.92 1.46,-0.73 3.45,-1.91 4.58,-3.06 2.52,-2.57 1.29,-0.9 3.63,-4.2 0.32,-0.45 0.73,-1.19 0.97,-1.64 0.16,-0.31 0.24,-0.56 0.41,-0.9 0.16,-0.34 0.25,-0.55 0.53,-0.76 0.64,2.71 3.94,6.59 6.23,8.3 1.49,1.12 2.89,1.96 4.61,2.67 1.4,0.58 4.08,1.53 6.12,1.26l11.54 0.1 -0.01 -13.45c0,-0.3 -0.02,-0.66 -0.01,-0.95l0.22 -0.92 27.2 0 0 -8.94 -36.15 0c0,5.38 -0.18,10.14 -0.18,15.47 -4.58,0 -6.99,-1.12 -9.65,-4.14 -4.78,-5.43 -2.18,-15.11 5.33,-17.32 2.86,-0.84 9.56,-0.53 13.45,-0.53 0,-2.05 0,-4.1 0,-6.15 0,-3.35 0.74,-2.8 -3.54,-2.8 -10.07,0 -12.93,-0.37 -19.94,5.04 -0.6,0.46 -1.1,0.92 -1.6,1.56 -0.53,0.68 -0.91,1.08 -1.41,1.76 -0.71,0.96 -1.97,2.95 -2.19,4.13z"/>
   <path class="fil0" d="M90.07 34.13l18.26 0 0 2.61 -18.26 0 0 -2.61zm-3.17 5.78l24.59 0 0 -8.94 -24.59 0 0 8.94z"/>
   <path class="fil0" d="M2.67 3.17l18.08 0c0.27,0.49 0.24,1.53 0.14,2.78l-18.36 0.05c-0.09,-1.04 -0.2,-2.25 0.14,-2.83zm-3.17 5.99l24.41 0 0 -9.13 -24.41 0 0 9.13z"/>
   <path class="fil0" d="M90.07 3.2l18.26 0 0 2.61 -18.26 0 0 -2.61zm21.25 5.75l-0.01 -8.76 -24.6 0 0.3 0 0 8.76 24.31 0z"/>
   <path class="fil0" d="M2.53 36.88c-0.26,-0.82 -0.29,-2.06 0.03,-2.89l18.29 0.04c0.31,0.79 0.28,2.02 0.04,2.9l-18.36 -0.05zm-3.03 3.03l24.41 0 0 -8.94 -24.41 0 0 8.94z"/>
   <path class="fil0" d="M117.46 15.5c0,-0.57 0.17,-1.12 0.74,-1.12 0.44,0 0.75,0.31 0.75,0.75l0 2.05 -1.49 0 0 -1.68zm-2.8 1.12c0,-3.13 1.31,-2.05 1.31,-1.49l0 2.05c-0.91,0 -1.31,0.12 -1.31,-0.56zm1.87 -2.8c-0.44,-1.64 -3.17,-1.02 -3.17,0.75l0 4.28 6.52 0c0.9,0 0.56,-1.35 0.56,-3.72 0,-1.35 -0.85,-2.42 -1.86,-2.42 -1.16,0 -1.37,0.66 -2.05,1.11z"/>
   <path class="fil0" d="M116.34 33.58l0 2.98 1.49 0 0 -1.87c1.22,0.03 1.36,0.99 1.18,1.92 -0.43,2.16 -4.35,2.48 -4.35,-0.61 0,-0.85 0.4,-0.97 0.75,-1.49 -0.13,-0.55 -0.33,-0.87 -0.56,-1.31 -2.81,1.49 -2.23,6.71 2.23,6.71 4.59,0 3.79,-6.89 1.68,-6.89 -1.71,0 -2.42,-0.24 -2.42,0.56z"/>
   <path class="fil0" d="M116.9 25.56c-2.84,0 -3.15,-4.1 -0.19,-4.1 1.36,0 2.54,0.55 2.36,2.18 -0.07,0.63 -0.34,1.07 -0.68,1.36 -0.26,0.23 -1.05,0.56 -1.49,0.56zm-3.73 -2.23c0,1.22 0.35,2.1 0.97,2.76 0.33,0.35 0.62,0.6 1.07,0.79 2.77,1.14 5.23,-0.82 5.23,-2.99 0,-1.48 0.06,-2.09 -1.06,-3.23 -2.24,-2.27 -6.21,-0.54 -6.21,2.67z"/>
   <path class="fil0" d="M115.22 8.61c0.88,-0.21 1.71,-0.67 2.61,-0.75l0 1.86c-0.66,-0.15 -2.22,-0.59 -2.61,-1.11zm-1.86 -0.94l0 2.05c0.85,0.45 6.24,2.59 7.08,2.61l0 -1.67 -1.3 -0.4 -0.01 -2.96c0.45,-0.21 0.85,-0.32 1.31,-0.56l0 -1.67c-1.36,0.31 -2.3,0.89 -3.52,1.33l-3.56 1.27z"/>
   <polygon class="fil0" points="118.95,3.02 113.36,3.02 113.36,4.51 120.44,4.51 120.44,0.03 118.95,0.03 "/>
   <polygon class="fil0" points="118.95,30.38 113.36,30.41 113.36,31.91 120.2,31.92 120.2,27.6 119.06,27.6 "/>
  </g>
 </g>
</svg>
