<?xml version="1.0" encoding="UTF-8"?>
<!DOCTYPE svg PUBLIC "-//W3C//DTD SVG 1.1//EN" "http://www.w3.org/Graphics/SVG/1.1/DTD/svg11.dtd">
<!-- Creator: CorelDRAW -->
<svg xmlns="http://www.w3.org/2000/svg" xml:space="preserve" width="64px" height="40px" version="1.1" style="shape-rendering:geometricPrecision; text-rendering:geometricPrecision; image-rendering:optimizeQuality; fill-rule:evenodd; clip-rule:evenodd"
viewBox="0 0 64 39.98"
 xmlns:xlink="http://www.w3.org/1999/xlink"
 xmlns:xodm="http://www.corel.com/coreldraw/odm/2003">
 <defs>
  <style type="text/css">
   <![CDATA[
    .fil0 {fill:white}
   ]]>
  </style>
 </defs>
 <g id="Layer_x0020_1">
  <metadata id="CorelCorpID_0Corel-Layer"/>
  <g id="_3141834355584">
   <path class="fil0" d="M24.71 17.6c-0.16,-0.18 -0.09,0.02 -0.12,-0.37 -0.01,-0.1 0,-0.3 0,-0.41 0,-0.32 -0.08,-0.66 0.13,-0.77 -0.11,-1.1 -0.03,-7.98 -0.03,-9.68 0,-3.55 -0.45,-5.68 2.77,-6.2 0.01,0 0.21,-0.04 0.24,-0.05l0.21 -0.09c0.02,0 0.05,-0.02 0.07,-0.03l-10.25 0c0.02,0.01 0.05,0 0.06,0.03 0.05,0.14 2.13,0.25 2.78,1.41 0.49,0.89 0.44,2.47 0.44,3.83l0 17.22c0,1.45 0.04,2.91 -0.38,3.9 -0.37,0.88 -1.66,1.48 -2.9,1.48l0 0.3 10.25 0 0 -0.3c-1.51,0 -2.75,-0.67 -3.1,-1.98 -0.34,-1.26 -0.24,-6.9 -0.17,-8.29z"/>
   <path class="fil0" d="M37.44 10.68l0.25 -0.05 0.17 -0.08 0.04 -0.01 0.17 -0.08 0.04 -0.01c0,-0.16 -0.03,-0.1 0.16,-0.09l0.12 -0.02 0.17 -0.09 0.04 0c0,-0.16 -0.03,-0.1 0.17,-0.09l0.11 -0.03 0.17 -0.08 0 -0.02c0.2,-0.08 -0.26,-0.19 0.25,-0.05l-0.04 1.43c0,-0.01 -0.02,0.05 -0.04,0.07l-0.16 0.07 -0.17 0.09 -0.04 0c0,0.16 0.03,0.1 -0.17,0.09l-0.11 0.03 -0.17 0.08 -0.04 0.01 -0.17 0.08 -0.32 0.12 -0.17 0.09 -0.04 0c0,0.16 0.03,0.1 -0.15,0.1l-0.06 0.1c-0.19,2.99 0.29,12.3 -0.32,13.93 -0.29,0.77 -1.27,1.39 -2.09,1.5 -0.44,0.06 -0.68,0.01 -0.89,0.3 0.56,0.27 8.83,0.1 10.25,0.1l0 -0.3c-1.17,0 -2.49,-0.64 -2.88,-1.4 -0.18,-0.33 -0.34,-1.24 -0.39,-1.7 -0.1,-1.01 -0.01,-17.01 -0.01,-19.4 0,-2.34 -0.18,-4.09 1.59,-4.87 1.06,-0.47 1.2,-0.16 1.69,-0.5l-10.15 0c0.55,0.38 2.47,0.17 3,2.07 0.33,1.17 0.19,7.01 0.19,8.61z"/>
   <path class="fil0" d="M17.63 39.81l0.99 0 0 -4.87c0.32,0.23 0.86,1.95 1.03,2.36l0.96 2.51 0.9 0 1.79 -4.58c0.08,-0.16 0.09,-0.17 0.2,-0.29l0 4.87 1 0 0 -7.06 -1.3 0c-0.09,0.38 -0.35,0.95 -0.51,1.37l-1.58 4.1 -1.97 -4.9c-0.24,-0.68 0.06,-0.57 -1.51,-0.57l0 7.06z"/>
   <path class="fil0" d="M38.88 10.13l-0.11 0.03 -0.17 0.09 -0.04 0 -0.17 0.09 -0.12 0.02 -0.16 0.09 -0.04 0.01 -0.17 0.08 -0.04 0.01 -0.17 0.08 -0.25 0.05 -11.14 4.66c-0.31,0.13 -1.34,0.52 -1.58,0.71l-0.01 1.55 9.46 -3.95c0.57,-0.23 2.91,-1.28 3.28,-1.31l0.06 -0.1 0.15 -0.1 0.04 0 0.17 -0.09 0.32 -0.12 0.17 -0.08 0.04 -0.01 0.17 -0.08 0.11 -0.03 0.17 -0.09 0.04 0 0.17 -0.09 0.16 -0.07c0.02,-0.27 0.02,-0.55 0.02,-0.83 0,-0.06 0,-0.36 -0.02,-0.4 -0.09,-0.32 0.15,-0.05 -0.17,-0.22l0 0.02c0,0.16 0.03,0.1 -0.17,0.08z"/>
   <path class="fil0" d="M40.02 39.02c-3.19,0 -2.91,-5.48 -0.2,-5.48 1.78,0 2.49,1.08 2.49,2.89 0,1.27 -0.71,2.59 -2.29,2.59zm-3.38 -2.79c0,5.16 6.67,4.67 6.67,0.5l0 -0.9c0,-4.29 -6.67,-4.52 -6.67,0.4z"/>
   <polygon class="fil0" points="8.87,39.81 13.85,39.81 13.85,38.82 9.86,38.82 9.86,36.63 13.55,36.63 13.55,35.63 9.86,35.63 9.86,33.64 13.85,33.64 13.85,32.75 8.87,32.75 "/>
   <path class="fil0" d="M-0.98 39.81c1.43,0 1.09,0.52 1.09,-3.28l3.48 0 0 3.28 1 0 0 -7.06 -1 0 0 2.88 -3.48 0 0 -2.88 -1.09 0 0 7.06z"/>
   <path class="fil0" d="M57.04 39.81l1 0c0,-2.83 -0.2,-2.23 0.52,-2.86 0.28,-0.25 0.3,-0.42 0.67,-0.52 0.08,0.27 0.53,0.78 0.74,1.05 0.29,0.37 0.51,0.63 0.8,1 1.27,1.62 0.88,1.33 2.25,1.33 -0.04,-0.47 -1.2,-1.68 -1.51,-2.07 -0.28,-0.35 -0.52,-0.65 -0.8,-1l-0.78 -1.01c0.39,-0.58 1.03,-0.97 1.52,-1.46l1.57 -1.52c-1.04,0 -1.31,-0.16 -1.73,0.26 -0.42,0.42 -0.61,0.64 -1.08,1.01l-2.17 2.01 0 -3.28 -1 0 0 7.06z"/>
   <path class="fil0" d="M46.89 36.23c0,1.03 0.32,1.97 0.82,2.56 0.63,0.73 0.98,0.97 2.14,1.16 0.91,0.15 1.85,-0.22 2.39,-0.76 0.73,-0.71 0.76,-1.16 1.02,-2.26l-1.09 0c0,0.58 -0.21,1.07 -0.48,1.41 -1.09,1.37 -3.7,0.63 -3.7,-1.71l0 -0.7c0,-2.46 2.6,-2.89 3.59,-1.9 0.31,0.31 0.39,0.7 0.59,1.1l0.99 0c-0.2,-0.87 -0.27,-1.28 -0.87,-1.81 -1.83,-1.63 -5.4,-0.61 -5.4,2.91z"/>
   <polygon class="fil0" points="28.78,39.81 33.45,39.81 33.45,38.82 29.77,38.82 29.77,32.75 28.78,32.75 "/>
   <path class="fil0" d="M24.71 17.6l0.01 -1.55c-0.21,0.11 -0.13,0.45 -0.13,0.77 0,0.11 -0.01,0.31 0,0.41 0.03,0.39 -0.04,0.19 0.12,0.37z"/>
   <path class="fil0" d="M39.22 11.48c0.02,-0.02 0.04,-0.08 0.04,-0.07l0.04 -1.43c-0.51,-0.14 -0.05,-0.03 -0.25,0.05 0.32,0.17 0.08,-0.1 0.17,0.22 0.02,0.04 0.02,0.34 0.02,0.4 0,0.28 0,0.56 -0.02,0.83z"/>
   <path class="fil0" d="M38.85 11.64l-0.17 0.09c0.2,0.01 0.17,0.07 0.17,-0.09z"/>
   <path class="fil0" d="M38.27 10.36c-0.19,-0.01 -0.16,-0.07 -0.16,0.09l0.16 -0.09z"/>
   <path class="fil0" d="M39.05 10.05l-0.17 0.08c0.2,0.02 0.17,0.08 0.17,-0.08z"/>
   <path class="fil0" d="M38.77 10.16c-0.2,-0.01 -0.17,-0.07 -0.17,0.09l0.17 -0.09z"/>
   <path class="fil0" d="M37.66 12.14l-0.15 0.1c0.18,0 0.15,0.06 0.15,-0.1z"/>
   <polygon class="fil0" points="38.36,11.85 38.19,11.93 "/>
   <polygon class="fil0" points="38.57,11.76 38.4,11.84 "/>
   <polygon class="fil0" points="39.06,11.55 38.89,11.64 "/>
   <polygon class="fil0" points="37.87,12.05 37.7,12.14 "/>
   <polygon class="fil0" points="37.86,10.55 37.69,10.63 "/>
   <polygon class="fil0" points="38.07,10.46 37.9,10.54 "/>
   <polygon class="fil0" points="38.56,10.25 38.39,10.34 "/>
  </g>
 </g>
</svg>
