<?xml version="1.0" encoding="UTF-8"?>
<!DOCTYPE svg PUBLIC "-//W3C//DTD SVG 1.1//EN" "http://www.w3.org/Graphics/SVG/1.1/DTD/svg11.dtd">
<!-- Creator: CorelDRAW -->
<svg xmlns="http://www.w3.org/2000/svg" xml:space="preserve" width="116px" height="40px" version="1.1" style="shape-rendering:geometricPrecision; text-rendering:geometricPrecision; image-rendering:optimizeQuality; fill-rule:evenodd; clip-rule:evenodd"
viewBox="0 0 116 39.86"
 xmlns:xlink="http://www.w3.org/1999/xlink"
 xmlns:xodm="http://www.corel.com/coreldraw/odm/2003">
 <defs>
  <style type="text/css">
   <![CDATA[
    .fil0 {fill:white;fill-rule:nonzero}
   ]]>
  </style>
 </defs>
 <g id="Layer_x0020_1">
  <metadata id="CorelCorpID_0Corel-Layer"/>
  <g id="_3103803327504">
   <polygon class="fil0" points="64.85,16.75 64.85,9.03 68.5,9.03 68.5,28.26 64.85,28.26 64.85,20.05 55.91,20.05 55.91,28.26 52.26,28.26 52.26,9.03 55.91,9.03 55.91,16.75 "/>
   <path class="fil0" d="M85.47 18.18l3.21 -9.15 5.29 0 0 19.23 -3.48 0 0 -5.86c0,-3.6 0.04,-6.78 0.11,-9.54 -0.4,1.35 -0.88,2.83 -1.46,4.43l-3.89 10.97 -3 0 -3.91 -10.97c-0.69,-2 -1.17,-3.46 -1.44,-4.37 0.08,2.74 0.11,5.9 0.11,9.48l0 5.86 -3.51 0 0 -19.23 5.3 0 3.32 9.34c0.22,0.63 0.77,2.37 1.65,5.22 0.57,-2 1.14,-3.8 1.7,-5.41z"/>
   <path class="fil0" d="M109.08 12.48l2.11 -3.46 4.02 0 -7.21 11.65 0 7.59 -3.65 0 0 -7.59 -7.27 -11.64 4.14 0 2.13 3.48c1.73,2.88 2.7,4.5 2.89,4.86 0.49,-0.86 1.43,-2.49 2.84,-4.89z"/>
   <polygon class="fil0" points="12.1,36.67 12.1,21.79 -0.79,14.35 -0.79,16.47 10.26,22.85 10.26,35.61 "/>
   <polygon class="fil0" points="17.62,39.86 18.54,39.33 18.54,19.13 36.03,9.03 36.03,7.97 35.11,7.44 17.62,17.54 0.13,7.44 -0.79,7.97 -0.79,9.03 16.7,19.13 16.7,39.33 "/>
   <polygon class="fil0" points="36.03,21.79 29.59,25.51 29.59,32.95 31.43,31.89 31.43,26.57 36.03,23.91 "/>
   <polygon class="fil0" points="-0.79,23.91 3.81,26.57 3.81,31.89 5.65,32.95 5.65,25.51 -0.79,21.79 "/>
   <polygon class="fil0" points="24.98,22.85 36.03,16.47 36.03,14.35 23.14,21.79 23.14,36.67 24.98,35.61 "/>
   <polygon class="fil0" points="17.62,12.22 30.51,4.78 28.67,3.72 17.62,10.1 6.57,3.72 4.73,4.78 "/>
   <polygon class="fil0" points="17.62,4.78 24.06,1.06 22.22,0 17.62,2.66 13.02,0 11.18,1.06 "/>
  </g>
 </g>
</svg>
