<?xml version="1.0" encoding="UTF-8"?>
<!DOCTYPE svg PUBLIC "-//W3C//DTD SVG 1.1//EN" "http://www.w3.org/Graphics/SVG/1.1/DTD/svg11.dtd">
<!-- Creator: CorelDRAW -->
<svg xmlns="http://www.w3.org/2000/svg" xml:space="preserve" width="115px" height="41px" version="1.1" style="shape-rendering:geometricPrecision; text-rendering:geometricPrecision; image-rendering:optimizeQuality; fill-rule:evenodd; clip-rule:evenodd"
viewBox="0 0 115 40.47"
 xmlns:xlink="http://www.w3.org/1999/xlink"
 xmlns:xodm="http://www.corel.com/coreldraw/odm/2003">
 <defs>
  <style type="text/css">
   <![CDATA[
    .str0 {stroke:white;stroke-miterlimit:2.61313}
    .fil1 {fill:none}
    .fil0 {fill:white}
    .fil2 {fill:white;fill-rule:nonzero}
   ]]>
  </style>
 </defs>
 <g id="Layer_x0020_1">
  <metadata id="CorelCorpID_0Corel-Layer"/>
  <g id="_2441226025744">
   <g>
    <path class="fil0" d="M17.36 7.18l0 -2c-1.38,0 -4.09,0.05 -5.27,-0.11 -0.67,-0.1 -2.1,-0.3 -2.1,0.42l0 24.1c8.66,0 7.37,0.64 7.37,-2.3l-0.02 -16.59c0.01,-0.69 0.12,-1.58 1.11,-1.64 1.5,-0.1 1.05,2.92 1.05,4.41l0 13.82c0,2.94 -1.29,2.3 7.37,2.3l0 -16.89c0,-1.02 0.02,-2.97 0.58,-3.42 0.82,-0.66 1.73,-0.07 1.73,1.73l0 18.58 7.37 0 0 -18.58c0,-1.62 -0.23,-3.35 -0.9,-4.32 -1.63,-2.36 -5.1,-2.52 -7.15,-1.12 -0.49,0.33 -1.48,1.22 -1.63,1.76l-0.3 0c-0.13,-0.48 -0.42,-0.68 -0.79,-1.06 -0.02,-0.02 -0.05,-0.06 -0.07,-0.08l-0.74 -0.64c-1.68,-1.14 -4.28,-1.15 -5.99,0.02 -0.65,0.45 -1.15,1.06 -1.62,1.61z"/>
    <path class="fil0" d="M46.07 23.3c0,-2.1 -0.14,-11.86 0.13,-13.22 0.18,-0.86 0.77,-1.07 1.44,-0.79 0.42,0.17 0.23,0.02 0.39,0.37 0.33,0.74 0.3,14.64 0.03,15.48 -0.21,0.69 -1.99,1.62 -1.99,-1.84zm0 -16.12c0,-2.52 2.03,-2 -7.53,-2l0 27.64c0,0.64 0.24,0.3 0.62,0.3l6.29 0c0.75,0 0.62,0.8 0.62,-2.15 -0.01,-1.07 0,-2.15 0,-3.22 2.99,3.44 7.07,2.91 8.68,0.55 0.77,-1.12 0.99,-3.16 0.99,-5l0 -12.44c0,-1.81 -0.17,-3.16 -0.98,-4.24 -1.53,-2.03 -4.86,-2.26 -6.86,-0.98 -0.82,0.52 -1.16,1.09 -1.83,1.54z"/>
    <path class="fil0" d="M-0.45 41.11c1.1,0.53 26.59,0 30.09,0 20.37,0 40.73,0 61.1,0 4.38,0 11.27,0.34 14.94,-0.26 2.21,-0.36 4,-1.1 5.29,-2.39 3.46,-3.47 1.77,-7.51 1.73,-9.33l-0.31 0c-0.39,1.69 -2.74,2.76 -4.3,3.38 -1.79,0.71 -4.11,1.16 -6.25,1.57 -3.72,0.73 -13.17,1.35 -17.67,1.83 -1.11,0.12 -2.29,0.17 -3.54,0.31l-14.45 1.2c-2.42,0.03 -8.52,0.76 -10.9,0.77l-25.82 1.51c-1.92,0.22 -3.78,0.12 -5.66,0.17 -0.79,0.03 -0.95,0.16 -1.83,0.17l-3.69 0.15c-0.66,0 -1.34,-0.02 -2.01,-0.01 -0.85,0.01 -0.97,0.15 -1.83,0.16 -2.41,0.03 -5.35,0.04 -7.55,0.28 -1.13,0.13 -2.63,-0.02 -3.82,0.02 -0.79,0.02 -0.94,0.17 -1.83,0.16 -0.84,0 -1.33,-0.19 -1.69,0.31z"/>
    <path class="fil0" d="M64.49 22.68c0,-2.46 0.38,-3.32 2.3,-4.6l-0.05 6.39c-0.26,1.83 -1.93,1.28 -2.08,0.2 -0.1,-0.69 -0.17,-1.27 -0.17,-1.99zm-7.06 -9.52c0,2.11 -0.99,1.54 7.06,1.54l0.15 -5.22c2.14,-1.43 2.15,1.03 2.15,2.92 0,1.85 -0.29,1.99 -1.93,2.67 -1.42,0.59 -5.35,2.06 -6.4,3.12 -1.46,1.47 -1.44,8.37 0.1,10.27 1.24,1.54 5.69,2.73 7.97,-0.2l0.41 -0.51 0 1.84 7.37 0 -0.14 -18.43c-0.11,-4.16 -3.14,-6.44 -6.92,-6.44 -3.1,0 -5.54,-0.12 -8.02,2.26 -1.4,1.33 -1.8,3.52 -1.8,6.18z"/>
    <path class="fil0" d="M92.12 20.19l-6.2 0.11c-0.03,1 0.12,5.11 -0.12,5.71 -0.3,0.73 -1.38,0.83 -1.99,0.39 -0.35,-0.26 -0.82,-1.14 -1.13,-1.64 -0.7,-1.14 -1.48,-2.36 -2.17,-3.52 -2.51,-4.26 -3.18,-3.19 -0.32,-7.27l3.44 -5.16c0.52,-0.46 1.43,-0.52 1.91,0.04 0.66,0.78 0.34,4.1 0.38,5.31 0.34,0.07 5.67,0.21 6.24,-0.08 -0.18,-1.84 0,-2.69 -0.43,-4.36 -1.72,-6.64 -13.11,-6.48 -15.58,-1.17 -1.1,2.37 -1.15,14.84 0.24,17.74 1.27,2.66 3.4,3.31 6.12,3.7 2.67,0.39 5.67,-0.36 7.43,-2.12 1.99,-1.99 2.18,-3.83 2.18,-7.68z"/>
    <path class="fil0" d="M93.35 14.22c0.24,0.57 0.3,5.4 0,5.94 0,1.03 -0.03,2.12 0,3.14 0.01,0.4 0.16,2.62 0.25,2.98 0.4,1.6 1.8,2.72 3.6,2.84 7.39,0.52 6.18,0.7 6.15,-3.08 -0.01,-1.46 -0.31,-0.62 -2.17,-1.05 -0.16,-0.71 -0.37,-3.45 -0.25,-4.3 -0.3,-1.04 -0.15,-5 -0.11,-6.3l0.06 -5.07c2.48,0 2.14,0.45 2.14,-1.99 0,-2.45 0.34,-2 -2.14,-2l0 -3.83 -7.53 0 0 3.83 -1.53 0 0 3.99 1.53 0 0 4.9z"/>
    <polygon class="fil0" points="-0.3,29.59 7.38,29.59 7.38,5.03 -0.3,5.03 "/>
    <path class="fil0" d="M92.12 20.19l1.23 -0.03c0.3,-0.54 0.24,-5.37 0,-5.94 -0.63,0.03 -0.76,0.1 -1.19,-0.14 -0.57,0.29 -5.9,0.15 -6.24,0.08 -0.04,-1.21 0.28,-4.53 -0.38,-5.31 -0.48,-0.56 -1.39,-0.5 -1.91,-0.04l-3.44 5.16c-2.86,4.08 -2.19,3.01 0.32,7.27 0.69,1.16 1.47,2.38 2.17,3.52 0.31,0.5 0.78,1.38 1.13,1.64 0.61,0.44 1.69,0.34 1.99,-0.39 0.24,-0.6 0.09,-4.71 0.12,-5.71l6.2 -0.11z"/>
    <path class="fil0" d="M100.93 20.69c0.31,-0.17 1.92,0.28 2.3,0.4 2.96,0.89 5.85,2.25 7.97,4.47 0.45,0.46 1.03,1.21 1.34,1.73 0.86,1.45 1.39,2.61 1.39,4.91 0.53,-0.39 0.15,0.12 0.32,-0.6 0.06,-0.25 0.09,-0.66 0.12,-0.95 0.23,-2.12 0.29,-3.23 -0.2,-5.45 -0.48,-2.13 -1.37,-3.73 -2.63,-5.35 -0.63,-0.8 -1.21,-1.37 -2.02,-1.97 -0.42,-0.31 -0.73,-0.58 -1.15,-0.85 -1.71,-1.12 -5.31,-2.6 -7.55,-2.64 -0.04,1.3 -0.19,5.26 0.11,6.3z"/>
   </g>
   <circle class="fil1 str0" cx="108.69" cy="5.26" r="3.88"/>
   <path class="fil2" d="M106.55 7.69l0 -4.87 2.16 0c0.43,0 0.76,0.05 0.99,0.13 0.22,0.09 0.4,0.24 0.54,0.47 0.13,0.22 0.2,0.46 0.2,0.73 0,0.35 -0.11,0.64 -0.34,0.87 -0.22,0.24 -0.56,0.39 -1.03,0.45 0.17,0.09 0.3,0.17 0.39,0.25 0.19,0.17 0.36,0.39 0.53,0.65l0.84 1.32 -0.8 0 -0.65 -1.01c-0.18,-0.3 -0.34,-0.52 -0.46,-0.67 -0.12,-0.16 -0.23,-0.27 -0.33,-0.33 -0.09,-0.06 -0.19,-0.1 -0.29,-0.13 -0.07,-0.01 -0.19,-0.02 -0.36,-0.02l-0.75 0 0 2.16 -0.64 0zm0.64 -2.72l1.39 0c0.29,0 0.52,-0.03 0.69,-0.09 0.16,-0.06 0.29,-0.16 0.37,-0.29 0.09,-0.14 0.13,-0.28 0.13,-0.44 0,-0.23 -0.08,-0.42 -0.25,-0.57 -0.16,-0.15 -0.43,-0.22 -0.79,-0.22l-1.54 0 0 1.61z"/>
  </g>
 </g>
</svg>
