<?xml version="1.0" encoding="UTF-8"?>
<!DOCTYPE svg PUBLIC "-//W3C//DTD SVG 1.1//EN" "http://www.w3.org/Graphics/SVG/1.1/DTD/svg11.dtd">
<!-- Creator: CorelDRAW -->
<svg xmlns="http://www.w3.org/2000/svg" xml:space="preserve" width="54px" height="40px" version="1.1" style="shape-rendering:geometricPrecision; text-rendering:geometricPrecision; image-rendering:optimizeQuality; fill-rule:evenodd; clip-rule:evenodd"
viewBox="0 0 54 40.35"
 xmlns:xlink="http://www.w3.org/1999/xlink"
 xmlns:xodm="http://www.corel.com/coreldraw/odm/2003">
 <defs>
  <style type="text/css">
   <![CDATA[
    .fil0 {fill:white}
    .fil1 {fill:white;fill-rule:nonzero}
   ]]>
  </style>
 </defs>
 <g id="Layer_x0020_1">
  <metadata id="CorelCorpID_0Corel-Layer"/>
  <g id="_3142099067376">
   <path class="fil0" d="M42.86 26.68c-1.25,0.45 -8.49,0.59 -9.79,0.07l-0.02 -7.05c1.3,-0.42 8.56,-0.37 9.7,0.09 5.08,0.27 5.35,6.39 0.11,6.89zm-9.8 -20.05c3.85,0.03 11.9,-1.3 11.71,3.55 -0.17,4.49 -6.95,3.27 -11.71,3.38l0 -6.93zm-33.09 26.56l7.21 0.07 0 -21.17c0.73,0.71 1.6,2.28 2.24,3.26l6.97 10.38c0.05,-0.05 0.13,-0.2 0.15,-0.15l8.68 -12.92c0.32,-0.36 0.24,-0.27 0.57,-0.56l0.01 21.01c2.38,0.5 9.81,0.14 12.73,0.14 4.02,0.01 7.8,0.1 11.13,-1.74 5.61,-3.09 4.96,-10.26 2.24,-13.13 -1.14,-1.21 -2.35,-1.42 -3.95,-2.43 1.1,-1.13 4.3,-2.19 4.1,-7.56 -0.14,-3.56 -2.26,-5.88 -4.75,-6.99 -4.24,-1.91 -16.94,-1.37 -22.31,-1.21l-8.39 13.83c-2.48,-3.26 -7.06,-11.95 -8.89,-13.83l-7.78 -0.02 0.04 33.02z"/>
   <path class="fil1" d="M3.22 38.13c0,0.58 -0.15,1.09 -0.44,1.5 -0.28,0.4 -0.61,0.6 -0.98,0.6l-1.83 0 0 -3.93 1.89 0c0.31,0 0.6,0.15 0.87,0.45 0.33,0.35 0.49,0.81 0.49,1.38zm-0.81 0.06c0,-0.32 -0.07,-0.6 -0.2,-0.83 -0.14,-0.26 -0.32,-0.38 -0.53,-0.38l-0.91 0 0 2.57 0.75 0c0.26,0 0.47,-0.12 0.64,-0.36 0.16,-0.24 0.25,-0.58 0.25,-1z"/>
   <polygon id="_1" class="fil1" points="7.01,40.23 4.07,40.23 4.07,36.3 6.92,36.3 6.92,36.97 4.88,36.97 4.88,37.87 6.76,37.87 6.76,38.54 4.88,38.54 4.88,39.55 7.01,39.55 "/>
   <path id="_2" class="fil1" d="M10.86 39.07c0,0.41 -0.14,0.72 -0.43,0.95 -0.29,0.22 -0.69,0.33 -1.22,0.33 -0.47,0 -0.84,-0.11 -1.11,-0.34 -0.27,-0.23 -0.43,-0.54 -0.47,-0.95l0.78 0c0.06,0.43 0.35,0.64 0.88,0.64 0.24,0 0.44,-0.05 0.58,-0.14 0.15,-0.09 0.22,-0.22 0.22,-0.37 0,-0.3 -0.18,-0.48 -0.55,-0.54l-0.96 -0.19c-0.26,-0.05 -0.47,-0.16 -0.64,-0.35 -0.16,-0.18 -0.24,-0.4 -0.24,-0.64 0,-0.39 0.13,-0.69 0.39,-0.91 0.27,-0.22 0.63,-0.32 1.09,-0.32 0.49,0 0.88,0.1 1.15,0.32 0.28,0.22 0.41,0.53 0.41,0.94l-0.76 0c-0.01,-0.19 -0.09,-0.35 -0.24,-0.46 -0.15,-0.11 -0.35,-0.16 -0.6,-0.16 -0.46,0 -0.69,0.17 -0.69,0.5 0,0.22 0.16,0.36 0.47,0.43l0.83 0.17c0.38,0.08 0.65,0.19 0.81,0.32 0.2,0.18 0.3,0.43 0.3,0.77z"/>
   <polygon id="_3" class="fil1" points="12.4,40.23 11.59,40.23 11.59,36.3 12.4,36.3 "/>
   <path id="_4" class="fil1" d="M16.79 40.24l-0.49 0 -0.09 -0.48c-0.3,0.39 -0.71,0.58 -1.25,0.58 -0.48,0 -0.89,-0.17 -1.23,-0.53 -0.36,-0.39 -0.55,-0.88 -0.55,-1.49 0,-0.63 0.18,-1.14 0.53,-1.52 0.34,-0.38 0.8,-0.56 1.37,-0.56 0.5,0 0.89,0.12 1.19,0.36 0.28,0.22 0.46,0.54 0.52,0.94l-0.73 0c-0.15,-0.43 -0.48,-0.64 -0.98,-0.64 -0.34,0 -0.61,0.12 -0.82,0.37 -0.2,0.24 -0.3,0.57 -0.3,0.98 0,0.42 0.1,0.76 0.32,1.04 0.22,0.27 0.49,0.4 0.82,0.4 0.26,0 0.49,-0.08 0.69,-0.25 0.19,-0.17 0.3,-0.39 0.33,-0.66l-0.9 0 0 -0.66 1.57 0 0 2.12z"/>
   <polygon id="_5" class="fil1" points="20.91,40.23 20.11,40.23 18.53,37.48 18.53,40.23 17.72,40.23 17.72,36.3 18.52,36.3 20.1,38.99 20.1,36.3 20.91,36.3 "/>
   <polygon id="_6" class="fil1" points="22.6,40.23 21.79,40.23 21.79,36.3 22.6,36.3 "/>
   <polygon id="_7" class="fil1" points="26.71,40.23 25.91,40.23 24.33,37.48 24.33,40.23 23.52,40.23 23.52,36.3 24.32,36.3 25.91,38.99 25.91,36.3 26.71,36.3 "/>
   <path id="_8" class="fil1" d="M31.09 40.24l-0.49 0 -0.1 -0.48c-0.29,0.39 -0.71,0.58 -1.24,0.58 -0.49,0 -0.9,-0.17 -1.24,-0.53 -0.36,-0.39 -0.54,-0.88 -0.54,-1.49 0,-0.63 0.17,-1.14 0.52,-1.52 0.35,-0.38 0.81,-0.56 1.38,-0.56 0.49,0 0.89,0.12 1.19,0.36 0.28,0.22 0.45,0.54 0.52,0.94l-0.74 0c-0.15,-0.43 -0.47,-0.64 -0.97,-0.64 -0.34,0 -0.62,0.12 -0.82,0.37 -0.21,0.24 -0.31,0.57 -0.31,0.98 0,0.42 0.11,0.76 0.33,1.04 0.21,0.27 0.48,0.4 0.82,0.4 0.26,0 0.49,-0.08 0.68,-0.25 0.2,-0.17 0.31,-0.39 0.34,-0.66l-0.91 0 0 -0.66 1.58 0 0 2.12z"/>
   <path id="_9" class="fil1" d="M36.79 40.23l-0.87 0c-0.07,-0.19 -0.11,-0.34 -0.11,-0.46l0 -0.59c0,-0.16 -0.02,-0.27 -0.07,-0.34 -0.07,-0.11 -0.2,-0.16 -0.4,-0.16l-0.96 0 0 1.55 -0.8 0 0 -3.93 2.2 0c0.25,0 0.46,0.08 0.64,0.25 0.22,0.2 0.33,0.48 0.33,0.84 0,0.42 -0.19,0.73 -0.58,0.95 0.28,0.15 0.42,0.32 0.43,0.5l0.05 0.96c0,0.12 0.05,0.21 0.14,0.28l0 0.15zm-0.81 -2.79c0,-0.31 -0.16,-0.47 -0.47,-0.47l-1.13 0 0 1.03 1.12 0c0.12,0 0.23,-0.06 0.33,-0.18 0.1,-0.11 0.15,-0.24 0.15,-0.38z"/>
   <polygon id="_10" class="fil1" points="40.6,40.23 37.67,40.23 37.67,36.3 40.51,36.3 40.51,36.97 38.47,36.97 38.47,37.87 40.35,37.87 40.35,38.54 38.47,38.54 38.47,39.55 40.6,39.55 "/>
   <polygon id="_11" class="fil1" points="44.26,36.97 43.12,36.97 43.12,40.23 42.31,40.23 42.31,36.97 41.12,36.97 41.12,36.3 44.26,36.3 "/>
   <path id="_12" class="fil1" d="M48.33 40.23l-0.83 0 -0.27 -0.79 -1.46 0 -0.27 0.79 -0.82 0 1.37 -3.93 0.93 0 1.35 3.93zm-1.3 -1.46l-0.51 -1.53 -0.49 1.53 1 0z"/>
   <polygon id="_13" class="fil1" points="49.79,40.23 48.98,40.23 48.98,36.3 49.79,36.3 "/>
   <polygon id="_14" class="fil1" points="53.46,40.23 50.77,40.23 50.77,36.3 51.58,36.3 51.58,39.55 53.46,39.55 "/>
  </g>
 </g>
</svg>
