<?xml version="1.0" encoding="UTF-8"?>
<!DOCTYPE svg PUBLIC "-//W3C//DTD SVG 1.1//EN" "http://www.w3.org/Graphics/SVG/1.1/DTD/svg11.dtd">
<!-- Creator: CorelDRAW -->
<svg xmlns="http://www.w3.org/2000/svg" xml:space="preserve" width="224px" height="40px" version="1.1" style="shape-rendering:geometricPrecision; text-rendering:geometricPrecision; image-rendering:optimizeQuality; fill-rule:evenodd; clip-rule:evenodd"
viewBox="0 0 224 39.97"
 xmlns:xlink="http://www.w3.org/1999/xlink"
 xmlns:xodm="http://www.corel.com/coreldraw/odm/2003">
 <defs>
  <style type="text/css">
   <![CDATA[
    .fil0 {fill:white}
   ]]>
  </style>
 </defs>
 <g id="Layer_x0020_1">
  <metadata id="CorelCorpID_0Corel-Layer"/>
  <g id="_3104458092800">
   <path class="fil0" d="M143.25 18.49l0.77 0 3.68 -11.24c0.01,-0.02 0.03,-0.07 0.05,-0.1l3.88 11.34 0.78 0c0.14,-0.62 0.42,-1.44 0.6,-2.04l1.98 -6.41c0.48,-1.42 0.83,-2.82 1.28,-4.16l1.27 -4.33 -2.33 0 -2.58 8.61c-0.17,0.61 -0.25,0.88 -0.41,1.46 -0.13,0.5 -0.19,0.98 -0.59,1.27 -0.07,-0.85 -1.35,-4.46 -1.67,-5.62 -0.54,-1.93 -1.3,-3.8 -1.74,-5.72 -0.87,0 -0.91,0.06 -1.12,0.75 -0.15,0.5 -0.27,1.02 -0.46,1.56l-2.77 9.03c-0.53,-0.38 -1.56,-4.84 -1.77,-5.53l-1.65 -5.81 -2.33 0c0.01,0.61 0.33,1.55 0.52,2.12l4.61 14.82z"/>
   <path class="fil0" d="M-0.91 18.33l2.18 0c0.15,-0.67 1.86,-9.7 1.86,-10.56l3.32 9.57c0.45,1.44 0.9,1.74 1.4,0.12l1.32 -3.96c0.3,-0.92 1.67,-4.77 1.73,-5.42l0.31 0c0,0.73 0.3,2.04 0.42,2.68 0.18,0.9 0.35,1.79 0.49,2.62l0.72 3.94c0.19,1.18 -0.31,1.01 2.41,1.01l-2.5 -12.57c-0.19,-0.92 -0.6,-3.54 -0.92,-4.21l-1.09 0c-0.06,0.76 -0.56,2.19 -0.79,2.94l-1.79 5.97c-0.25,0.84 -0.82,2.18 -0.84,3.06 -0.44,-0.33 -1.86,-5.22 -2.07,-5.85l-1.48 -4.58c-0.18,-0.54 -0.36,-0.99 -0.48,-1.54 -1.62,0 -0.98,-0.41 -1.75,3.38l-2.45 13.4z"/>
   <path class="fil0" d="M123.98 9.17l-1.71 -0.16 0 -5.28c1.08,0 1.49,-0.34 3.43,0.14 2.8,0.71 1.94,4.07 0.93,4.68 -0.61,0.36 -1.66,0.62 -2.65,0.62zm-4.04 -6.99l0 15.53c0,0.71 -0.8,0.62 2.33,0.62l0 -7.3c0.82,0.19 1.33,0.16 2.34,0.16 1.29,2.45 3.05,4.69 4.34,7.14l2.65 0c-0.22,-0.8 -4.46,-6.88 -4.67,-7.77 3.04,-0.25 5.39,-7.38 -0.45,-8.86 -0.84,-0.21 -2.42,-0.41 -3.54,-0.26 -0.61,0.08 -1.07,0.12 -1.92,0.11 -1.82,-0.03 -1.08,0.25 -1.08,0.63z"/>
   <path class="fil0" d="M189.85 9.01l0 -5.28c0.84,0 1.93,-0.37 3.68,0.2 2.45,0.81 2.17,4.23 -0.07,4.97 -0.81,0.28 -2.55,0.36 -3.61,0.11zm-1.25 -7.46l-1.08 0 0 16.78 2.33 0 0 -7.3c0.78,0.06 1.31,0.16 2.33,0.16l3.26 5.28c0.25,0.37 0.98,1.46 1.09,1.86l2.64 0c-0.12,-0.49 -0.26,-0.63 -0.53,-1.02 -0.64,-0.95 -4,-6.19 -4.13,-6.75 1.38,-0.11 3.1,-2.1 3.1,-4.03 0,-5.81 -4.82,-4.98 -9.01,-4.98z"/>
   <path class="fil0" d="M208.64 18.33l2.33 0c0,-4.8 -0.45,-3.88 1.09,-6.06 0.39,-0.55 0.67,-1.17 1.24,-1.55 0.16,0.65 3.84,6.34 4.51,7.61l2.48 0c-0.16,-0.7 -2.19,-3.89 -2.7,-4.75 -0.98,-1.62 -1.88,-3.21 -2.89,-4.73l2.49 -3.57c0.32,-0.49 2.36,-3.26 2.48,-3.73 -2.34,0 -2.29,-0.4 -3.26,1.09l-5.44 7.92 0 -9.01 -2.33 0 0 16.78z"/>
   <path class="fil0" d="M24.72 2.02l0 15.85c0,0.35 0.11,0.46 0.47,0.46l9.47 0 0 -2.17 -7.45 0 0 -5.44c0,-0.6 0.05,-0.06 -0.16,-0.47l5.44 0 0 -2.02 -5.44 0c0.34,-0.6 0.16,-3.62 0.16,-4.5l7.45 0 0 -2.18 -9.47 0c-0.36,0 -0.47,0.11 -0.47,0.47z"/>
   <path class="fil0" d="M176.95 18.25c0.26,-0.53 0.16,-1.39 0.16,-2.09l-7.61 0 0 -5.91 5.43 0 0 -2.02 -5.43 0 0 -4.5 7.61 0c0,-0.86 0.13,-1.53 -0.16,-2.08l-9.67 -0.02 -0.06 16.6 9.73 0.02z"/>
   <polygon class="fil0" points="109.38,18.23 109.38,16.16 101.93,16.16 101.93,10.25 107.21,10.25 107.21,8.23 101.93,8.23 101.93,3.73 109.38,3.73 109.38,1.68 99.62,1.71 99.68,18.22 "/>
   <path class="fil0" d="M58.43 5.75c0,2.31 1.31,3.54 3.16,4.45 1.76,0.87 3.99,1.5 3.99,3.78 0,1.51 -1.3,2.49 -2.8,2.49 -1.35,0 -2.52,-0.62 -3.42,-1.09 -0.19,0.39 -0.74,1.72 -0.77,2.17 1.76,0.93 3.95,1.39 5.99,0.71 4.31,-1.44 4.48,-6.91 0.48,-8.89 -2.8,-1.38 -4.14,-1.48 -4.14,-4.09 0,-1.9 2,-1.86 2.95,-1.86 1.16,0 1.72,0.7 2.64,0.77l0.64 -2.01c-0.74,-0.2 -0.81,-0.67 -2.66,-0.78 -1.26,-0.08 -1.81,-0.21 -3.06,0.2 -1.62,0.54 -3,2.06 -3,4.15z"/>
   <path class="fil0" d="M76.76 3.73l5.28 0 0 14.6 2.33 0 0 -14.6 5.59 0c0,-1.52 0.21,-2.18 -0.46,-2.18l-12.74 0 0 2.18z"/>
   <polygon class="fil0" points="45.38,18.33 47.71,18.33 47.71,1.55 45.38,1.55 "/>
   <path class="fil0" d="M39.48 37.59l1.24 0 0 -4.04 3.57 0 0 4.04c1.79,0 1.25,0.81 1.25,-7.92 0,-0.59 -0.36,-0.47 -1.25,-0.47l0 3.27 -3.57 0 0 -3.27 -1.24 0 0 8.39z"/>
   <path class="fil0" d="M147.13 33.71c0,-2.11 2.33,-1.5 2.33,-0.47 0,1.62 -0.19,1.71 -1.4,1.71 -0.5,0 -0.93,-0.67 -0.93,-1.24zm2.64 -2.02c-2.86,-1.37 -5.45,1.72 -2.81,3.9 0.02,0.02 0.07,0.06 0.08,0.07 0.02,0.01 0.06,0.04 0.09,0.07 -0.89,0.21 -0.93,0.41 -0.93,1.09 0,1.75 3.73,-0.32 3.73,1.24 0,0.84 -1.19,0.78 -1.71,0.78 -0.93,0 -0.93,-0.3 -1.56,-0.47 -0.31,0.23 -0.5,0.5 -0.62,0.93 4.39,2.32 6.63,-2.09 3.64,-2.87 -0.52,-0.13 -1.71,0.08 -2.55,0.08l0 -0.31c1.18,-0.28 3.57,-0.1 3.57,-2.65 0,-0.72 -0.21,-0.68 -0.23,-1.13 -0.02,-0.66 0.18,-0.11 0.39,-0.89l-0.6 -0.49c-0.41,0.28 -0.36,0.12 -0.49,0.65z"/>
   <path class="fil0" d="M196.1 29.2l-0.09 3.36 -3.53 -0.09c-0.25,-0.43 -0.15,-2.63 -0.15,-3.27l-1.09 0 0 8.39 1.09 0 0 -4.04 3.58 0 0 4.04 1.24 0 0 -8.39 -1.05 0z"/>
   <path class="fil0" d="M171.67 37.59l4.66 0c0.57,0 0.47,-0.33 0.47,-1.08l-3.89 0 0 -2.96 2.8 0c0,-1.35 0.32,-1.08 -2.8,-1.08l0 -2.18 3.89 0 0 -1.09 -5.13 0 0 8.39z"/>
   <polygon class="fil0" points="11.21,37.59 16.18,37.59 16.18,36.51 12.45,36.51 12.45,33.55 15.09,33.55 15.09,32.47 12.45,32.47 12.45,30.29 16.18,30.29 16.18,29.2 11.21,29.2 "/>
   <polygon class="fil0" points="50.35,37.59 55.32,37.59 55.32,36.51 51.6,36.51 51.6,33.55 54.24,33.55 54.24,32.47 51.6,32.47 51.6,30.29 55.32,30.29 55.32,29.2 50.35,29.2 "/>
   <path class="fil0" d="M3.91 31.53c0.02,1.2 0.83,2.26 0.93,3.42l-2.33 0c0.64,-1.34 0.86,-3.02 1.4,-3.42zm-3.58 6.06l1.25 0c0.21,-0.45 0.49,-1.18 0.62,-1.71l3.1 0c0.15,0.61 0.34,1.14 0.47,1.71l1.4 0 -3.26 -8.54c-0.51,0.37 -1.61,3.38 -1.91,4.15 -0.34,0.84 -1.61,3.71 -1.67,4.39z"/>
   <path class="fil0" d="M211.59 37.75c1.19,0 1.89,-0.53 2.65,-0.93 -0.3,-0.56 -0.25,-0.58 -0.78,-0.94 -0.47,0.32 -0.49,0.51 -1.22,0.66 -3.47,0.67 -3.42,-4.94 -1.68,-6.04 0.9,-0.56 2.09,-0.32 2.9,0.1 0.16,-0.34 0.27,-0.61 0.31,-1.08 -4.47,-2.37 -7.24,3.66 -4.84,6.86 0.61,0.82 1.57,1.37 2.66,1.37z"/>
   <path class="fil0" d="M75.83 33.4c0,4.91 4.8,5.14 6.06,3.26 -0.19,-0.35 -0.26,-0.47 -0.47,-0.78 -0.38,0.11 -1.48,1.22 -2.95,0.47 -1.68,-0.85 -1.77,-4.36 -0.36,-5.64 0.83,-0.76 2.21,-0.61 3.16,-0.11 0.13,-0.57 0.25,-0.43 0.31,-1.08 -2.53,-1.34 -5.75,0.15 -5.75,3.88z"/>
   <path class="fil0" d="M20.22 31.07c0,3.29 3.57,1.93 3.57,4.5 0,0.92 -1.31,1.42 -3.11,0.47 -0.15,0.65 -0.29,0.43 -0.31,1.24 0.64,0.15 1.01,0.47 1.87,0.47 1.44,0 2.79,-0.91 2.79,-2.33 0,-3.01 -3.57,-2.34 -3.57,-4.04 0,-1.76 1.92,-1.24 2.8,-0.78l0.33 -1.08c-2.4,-1.25 -4.37,0.23 -4.37,1.55z"/>
   <path class="fil0" d="M218.27 31.07c0,3.16 3.58,2.35 3.58,4.19 0,0.76 -0.44,1.21 -1.16,1.32 -0.72,0.1 -1.43,-0.26 -1.95,-0.54 -0.45,0.94 -0.51,1.03 -0.2,1.27 1.37,1.08 5.43,0.15 4.38,-2.81 -0.71,-2.01 -3.4,-1.35 -3.4,-3.43 0,-1.15 1.55,-1.13 2.79,-0.47l0.34 -1.08c-2.24,-1.16 -4.38,0 -4.38,1.55z"/>
   <path class="fil0" d="M155.36 37.59l1.09 0c0,-3.32 -0.56,-5.28 1.4,-5.28 1.72,0 1.24,2.98 1.24,5.28l1.09 0c0,-3.43 0.65,-6.21 -2.18,-6.21 -0.96,0 -1.01,0.26 -1.55,0.62l0 -2.95 -1.09 0 0 8.54z"/>
   <path class="fil0" d="M109.85 37.59l1.09 0c0,-3.32 -0.57,-5.28 1.39,-5.28 1.73,0 1.25,2.98 1.25,5.28l1.08 0c0,-3.43 0.66,-6.21 -2.17,-6.21 -0.96,0 -1.02,0.26 -1.55,0.62l0 -2.95 -1.09 0 0 8.54z"/>
   <path class="fil0" d="M86.08 31.07c0,2.72 2.03,2.18 3.15,3.37 1.14,1.2 -0.37,3.15 -2.68,1.6 -0.23,0.43 -0.34,0.7 -0.47,1.24 0.51,0.12 1.32,0.47 1.86,0.47 2.61,0 2.8,-1.52 2.8,-2.95 0,-2.06 -3.42,-1.67 -3.42,-3.58 0,-1.82 2.25,-0.82 2.8,-0.77 0.09,-0.38 0.16,-0.63 0.31,-0.93 -2.1,-1.12 -4.35,-0.12 -4.35,1.55z"/>
   <path class="fil0" d="M128.02 34.95c0,-1.42 0.01,-2.64 1.71,-2.64 1.04,0 1.4,1.17 1.4,2.18 0,3.09 -3.11,2.86 -3.11,0.46zm-1.24 -0.78c0,4.51 3.78,3.94 4.82,2.65 1.55,-1.91 0.52,-5.44 -1.56,-5.44l-0.93 0c-1.28,0 -2.33,1.47 -2.33,2.79z"/>
   <path class="fil0" d="M136.57 31.85c0,1.55 -0.24,4.15 0.45,5.14 1.06,1.52 2.92,0.25 3.43,-0.02l0 0.62 1.09 0 0 -6.21 -1.09 0c0,3.86 0.59,5.28 -1.86,5.28 -0.38,0 -0.46,-0.25 -0.78,-0.46 0,-0.89 0,-1.77 0,-2.65 0,-1.5 0.34,-2.17 -0.78,-2.17 -0.36,0 -0.46,0.11 -0.46,0.47z"/>
   <polygon class="fil0" points="28.76,30.29 31.4,30.29 31.4,37.59 32.64,37.59 32.64,30.29 35.44,30.29 35.44,29.2 28.76,29.2 "/>
   <polygon class="fil0" points="59.05,30.29 61.69,30.29 61.69,37.59 62.94,37.59 62.94,30.29 65.73,30.29 65.73,29.2 59.05,29.2 "/>
   <path class="fil0" d="M180.37 30.29l2.64 0 0 6.84c0,0.59 0.36,0.46 1.24,0.46l0 -7.3 2.8 0 0 -1.09 -6.68 0 0 1.09z"/>
   <path class="fil0" d="M102.4 30.16l-0.01 1.22c-0.82,0.02 -0.78,0 -0.78,0.93l0.78 0c0,1.63 -0.29,4.15 0.51,4.93 0.75,0.74 1.85,0.43 2.75,0.32 -0.1,-0.42 -0.15,-0.44 -0.15,-1.05 -2.39,0.55 -2.02,-0.25 -2.02,-4.2l1.71 0c0,-1.14 -0.73,-1.24 -1.71,-0.78l0 -1.7 -1.08 0.33z"/>
   <polygon class="fil0" points="69.93,37.59 71.17,37.59 71.17,29.2 69.93,29.2 "/>
   <path class="fil0" d="M119.48 31.85l0 5.74 1.24 0c0,-2 -0.49,-5.28 1.24,-5.28 0.59,0 0.3,0.1 0.94,0.16 0.05,-0.66 0.17,-0.52 0.31,-1.09 -0.49,0 -1.04,-0.06 -1.5,0.06 -0.47,0.12 -0.71,0.27 -0.83,0.72 -0.47,-0.74 0.19,-0.78 -0.94,-0.78 -0.35,0 -0.46,0.11 -0.46,0.47z"/>
   <path class="fil0" d="M202.27 29.83l0 7.14c0,0.61 -0.57,0.62 1.09,0.62l0 -8.39c-1.66,0 -1.09,0.02 -1.09,0.63z"/>
   <path class="fil0" d="M109.38 18.23l-9.7 -0.01 -0.06 -16.51 9.76 -0.03c-0.44,-0.23 -1.33,-0.13 -2.33,-0.13l-7.45 0 0 16.78c1.53,0 9.02,0.21 9.78,-0.1z"/>
   <path class="fil0" d="M176.95 18.25l-9.73 -0.02 0.06 -16.6 9.67 0.02c-0.82,-0.33 -8.2,-0.1 -9.78,-0.1l0 16.78 9.78 -0.08z"/>
   <path class="fil0" d="M192.48 32.47l3.53 0.09 0.09 -3.36c-0.18,0.23 -0.15,-0.24 -0.21,0.61 -0.02,0.25 0.01,0.68 0.02,0.95 0,0.57 0,1.14 0,1.71l-3.43 0z"/>
   <polygon class="fil0" points="203.98,0 203.83,0 203.96,0.18 "/>
  </g>
 </g>
</svg>
