<?xml version="1.0" encoding="UTF-8"?>
<!DOCTYPE svg PUBLIC "-//W3C//DTD SVG 1.1//EN" "http://www.w3.org/Graphics/SVG/1.1/DTD/svg11.dtd">
<!-- Creator: CorelDRAW -->
<svg xmlns="http://www.w3.org/2000/svg" xml:space="preserve" width="216px" height="40px" version="1.1" style="shape-rendering:geometricPrecision; text-rendering:geometricPrecision; image-rendering:optimizeQuality; fill-rule:evenodd; clip-rule:evenodd"
viewBox="0 0 216 39.94"
 xmlns:xlink="http://www.w3.org/1999/xlink"
 xmlns:xodm="http://www.corel.com/coreldraw/odm/2003">
 <defs>
  <style type="text/css">
   <![CDATA[
    .fil0 {fill:white}
   ]]>
  </style>
 </defs>
 <g id="Layer_x0020_1">
  <metadata id="CorelCorpID_0Corel-Layer"/>
  <g id="_2441260813216">
   <path class="fil0" d="M161.04 14.29l-0.09 0.21 -0.01 0.19 -0.14 0.2 0.02 0.12 -0.12 0.17 0 0.07c0,0.19 0.05,0.15 -0.12,0.15l0 0.08c0,0.19 0.05,0.14 -0.13,0.14l-0.08 0.24 -0.16 0.11 -0.32 0.47 -0.13 0.12 -0.12 0.13 -0.47 0.32c0,0.18 0.05,0.14 -0.13,0.14l-0.07 0 -0.15 0.13 -0.57 0.21 -0.21 0.15 -0.56 0.06c-0.2,0.2 -0.3,0.16 -0.64,0.17l-10.96 -0.02 0.03 -9.12c1.99,0 3.99,0 5.98,0 1.86,0 3.9,-0.1 5.71,0.1l0.2 0.09 0.15 0.02 0.22 0.09 0.15 0.03c0.19,-0.01 0.15,-0.07 0.15,0.12l0.47 0.21 0.14 0.13 0.21 0.1 0.12 0.16c0.29,0.25 0.32,0.24 0.56,0.56l0.16 0.12 0.22 0.33 0.13 0.14 0.21 0.46c0.18,0 0.13,-0.04 0.12,0.16l0.02 0.14 0.09 0.22 0.02 0.15 0.1 0.21 -0.01 0.42c0.24,0.39 0.22,0.71 0.03,1.1l-0.02 0.5zm-15.49 24.58l0 -13.39 5.29 0c0.37,0.14 0.2,0.07 0.45,0.36 0.17,0 0.14,-0.05 0.14,0.11l0.13 0.12 0.55 0.7c0.17,0 0.14,-0.04 0.14,0.12l0.13 0.12 0.55 0.7c0.18,0 0.14,-0.04 0.14,0.12l0.14 0.12 0.43 0.59 0.13 0.11 0.12 0.12 0.14 0.12 0.43 0.59 0.13 0.11 0.12 0.12 0.14 0.12 0.43 0.58 0.14 0.12 0.11 0.12 0.14 0.12 0.43 0.58c0.18,0 0.14,-0.04 0.14,0.12l0.12 0.12 0.13 0.12 0.43 0.58 0.14 0.12 0.14 0.12 0.54 0.7 0.14 0.12 0.14 0.12 0.55 0.7c0.17,0 0.13,-0.05 0.13,0.12l0.14 0.12 0.55 0.7 0.14 0.12 0.13 0.11 0.55 0.71 0.14 0.12 0.13 0.11 0.55 0.71c0.18,0 0.14,-0.05 0.14,0.12l0.14 0.11 0.43 0.59 0.13 0.12 0.12 0.12 0.14 0.11 0.43 0.59c0.17,0 0.14,-0.05 0.13,0.12l19.06 -0.01 0.18 -0.23 0.13 -0.12 0.14 -0.11 0.43 -0.59 0.14 -0.12 0.14 -0.11 0.43 -0.59 0.13 -0.12c0,-0.16 -0.03,-0.12 0.14,-0.12l0.43 -0.58 0.14 -0.12c0,-0.17 -0.04,-0.12 0.14,-0.12l0.43 -0.58 0.13 -0.12 0.14 -0.12 0.43 -0.59 0.14 -0.11c0,-0.17 -0.04,-0.12 0.14,-0.12l0.43 -0.59 0.13 -0.12c0,-0.16 -0.04,-0.11 0.14,-0.11l0.43 -0.59 0.14 -0.12c0,-0.16 -0.04,-0.12 0.14,-0.12l0.43 -0.58 0.13 -0.12 0.14 -0.12 0.43 -0.58 0.14 -0.12c0,-0.17 -0.04,-0.12 0.13,-0.12l0.44 -0.59 0.13 -0.11c0,-0.17 -0.04,-0.12 0.14,-0.12l0.43 -0.59 0.13 -0.12c0,-0.16 -0.04,-0.11 0.14,-0.11l0.43 -0.59 0.14 -0.12c0,-0.16 -0.04,-0.11 0.14,-0.11l0.43 -0.59 0.13 -0.12c0,-0.16 -0.03,-0.12 0.14,-0.12l0.54 -0.7 0.17 -0.12 0.19 0 0.16 0.12 0.43 0.59 0.13 0.11 0.14 0.12 0.43 0.59 0.14 0.12 0.14 0.11 0.43 0.59 0.13 0.12 0.14 0.12 0.43 0.58 0.14 0.12 0.13 0.12 0.44 0.58 0.13 0.12 0.14 0.12 0.43 0.59 0.14 0.11 0.13 0.12 0.43 0.59 0.14 0.12 0.14 0.11 0.43 0.59c0.17,0 0.13,-0.05 0.13,0.12l0.14 0.11 0.43 0.59c0.18,0 0.14,-0.05 0.14,0.12l0.13 0.12 0.43 0.58c0.18,0 0.14,-0.05 0.14,0.12l0.14 0.12 0.32 0.47 0.13 0.12 0.12 0.11 0.13 0.12 0.32 0.47 0.14 0.12 0.13 0.11 0.43 0.59 0.14 0.12 0.14 0.12 0.43 0.58 0.13 0.12 0.14 0.12 0.35 0.41c1.07,0.19 7.51,0.06 9.49,0.06l2.82 0.01c0.59,-0.07 0.11,0.03 0.34,-0.12l-0.13 -0.13 -0.31 -0.47c-0.17,0 -0.14,0.05 -0.14,-0.11l-0.13 -0.12 -0.32 -0.47 -0.13 -0.12 -0.14 -0.12 -0.31 -0.46 -0.14 -0.12 -0.14 -0.12 -0.31 -0.47c-0.18,0 -0.14,0.05 -0.14,-0.12l-0.13 -0.11 -0.32 -0.47c-0.17,0 -0.13,0.04 -0.13,-0.12l-0.14 -0.12 -0.32 -0.46c-0.17,0 -0.13,0.04 -0.13,-0.13l-0.14 -0.11 -0.31 -0.47c-0.18,0 -0.14,0.05 -0.14,-0.12l-0.14 -0.12 -0.31 -0.46c-0.17,0 -0.13,0.04 -0.13,-0.13l-0.14 -0.11 -0.32 -0.47c-0.17,0 -0.13,0.05 -0.13,-0.12l-0.14 -0.12 -0.32 -0.46c-0.17,0 -0.13,0.04 -0.13,-0.12l-0.14 -0.12 -0.31 -0.46c-0.18,0 -0.13,0.04 -0.13,-0.13l-0.14 -0.12 -0.32 -0.46c-0.17,0 -0.13,0.05 -0.13,-0.12l-0.14 -0.12 -0.32 -0.46c-0.17,0 -0.13,0.04 -0.13,-0.13l-0.14 -0.11 -0.31 -0.47c-0.18,0 -0.14,0.05 -0.14,-0.12l-0.13 -0.12 -0.32 -0.46c-0.17,0 -0.13,0.04 -0.13,-0.13l-0.14 -0.11 -0.32 -0.46c-0.17,0 -0.13,0.04 -0.13,-0.13l-0.14 -0.12 -0.32 -0.46c-0.17,0 -0.13,0.05 -0.13,-0.13l-0.14 -0.11 -0.42 -0.59 -0.16 -0.12 -0.43 -0.58c-0.18,0 -0.14,0.04 -0.14,-0.12l-0.13 -0.13 -0.32 -0.46c-0.17,0 -0.14,0.05 -0.13,-0.11l-0.14 -0.13 -0.31 -0.46c-0.18,0 -0.14,0.05 -0.14,-0.12l-0.13 -0.12 -0.32 -0.47c-0.18,0 -0.14,0.05 -0.14,-0.11l-0.13 -0.13 -0.32 -0.46 -0.14 -0.12 -0.13 -0.12 -0.31 -0.47c-0.18,0 -0.14,0.05 -0.14,-0.11l-0.14 -0.13 -0.31 -0.46c-0.18,0 -0.14,0.05 -0.14,-0.12l-0.13 -0.12 -0.32 -0.46c-0.17,0 -0.14,0.04 -0.14,-0.12l-0.13 -0.13 -0.32 -0.46c-0.17,0 -0.13,0.05 -0.13,-0.12l-0.14 -0.12 -0.1 -0.19c0,-0.2 -0.05,-0.16 0.14,-0.16l0.31 -0.46 0.14 -0.12 0.12 -0.12c0,-0.17 -0.04,-0.12 0.13,-0.12l0.32 -0.47 0.13 -0.11 0.14 -0.12 0.43 -0.59 0.14 -0.12 0.13 -0.11 0.43 -0.59 0.14 -0.12c0,-0.17 -0.04,-0.12 0.14,-0.12l0.31 -0.46 0.14 -0.12c0,-0.17 -0.04,-0.12 0.14,-0.12l0.43 -0.59 0.13 -0.11c0,-0.17 -0.04,-0.12 0.14,-0.12l0.43 -0.59 0.14 -0.12 0.13 -0.11 0.32 -0.47 0.13 -0.12 0.12 -0.12c0,-0.16 -0.04,-0.12 0.14,-0.12l0.31 -0.46 0.14 -0.12c0,-0.17 -0.04,-0.12 0.14,-0.12l0.42 -0.59 0.14 -0.11 0.14 -0.12 0.43 -0.59 0.14 -0.12 0.13 -0.11 0.32 -0.47 0.13 -0.12 0.14 -0.12 0.43 -0.58 0.14 -0.12 0.13 -0.12 0.44 -0.59 0.13 -0.11 0.14 -0.12 0.32 -0.47 0.13 -0.12 0.14 -0.12 0.43 -0.58 0.13 -0.12 0.14 -0.12 0.43 -0.58 0.16 -0.12 0.43 -0.59 0.14 -0.12 0.13 -0.11 0.43 -0.59 0.14 -0.12 0.13 -0.11 0.44 -0.59 0.16 -0.12 0.43 -0.59 0.13 -0.11 0.14 -0.12 0.43 -0.59 0.14 -0.12 0.13 -0.11 0.43 -0.59 0.16 -0.12c-0.03,-0.01 -0.06,-0.03 -0.09,-0.03 -0.79,-0.24 -10.43,-0.08 -12.14,-0.08l-0.13 0.11 -0.32 0.47 -0.16 0.12 -0.31 0.47 -0.14 0.12 -0.13 0.11 -0.32 0.47 -0.13 0.12 -0.13 0.12 -0.21 0.35 -0.13 0.12 -0.14 0.11 -0.31 0.48 -0.14 0.11 -0.13 0.12 -0.32 0.47 -0.16 0.12 -0.31 0.47 -0.14 0.11 -0.13 0.12 -0.31 0.47 -0.16 0.12 -0.32 0.47 -0.13 0.12 -0.14 0.11 -0.31 0.47 -0.16 0.12 -0.32 0.47 -0.13 0.12 -0.13 0.11 -0.32 0.47 -0.14 0.12 -0.13 0.12 -0.31 0.47 -0.16 0.11 -0.32 0.48 -0.13 0.11 -0.13 0.12 -0.32 0.47 -0.16 0.12 -0.32 0.47 -0.13 0.11 -0.13 0.12 -0.32 0.47 -0.16 0.12 -0.17 0.23 -0.18 -0.11 -0.43 -0.59c-0.17,0 -0.13,0.05 -0.13,-0.12l-0.14 -0.12 -0.43 -0.58c-0.18,0 -0.14,0.04 -0.14,-0.12l-0.13 -0.12 -0.43 -0.58c-0.18,0 -0.15,0.04 -0.14,-0.12l-0.14 -0.12 -0.32 -0.47 -0.13 -0.12 -0.14 -0.11 -0.43 -0.59 -0.14 -0.12 -0.13 -0.12 -0.44 -0.58 -0.13 -0.12 -0.14 -0.12 -0.43 -0.58 -0.13 -0.12 -0.14 -0.12 -0.43 -0.59 -0.14 -0.11 -0.14 -0.12 -0.43 -0.59 -0.13 -0.12 -0.14 -0.11 -0.43 -0.59 -0.14 -0.12 -0.14 -0.11 -0.42 -0.59 -0.14 -0.12 -0.14 -0.12 -0.43 -0.58 -0.14 -0.12 -0.13 -0.12 -0.43 -0.59 -0.14 -0.11 -0.14 -0.12 -0.43 -0.59 -0.14 -0.11 -12.67 0 0.01 0.11 0.44 0.59 0.13 0.12 0.14 0.11 0.43 0.59 0.14 0.12 0.13 0.12 0.43 0.58 0.16 0.12 0.55 0.71 0.16 0.11 0.43 0.59 0.13 0.12 0.14 0.11 0.43 0.59 0.14 0.12 0.13 0.12 0.44 0.58 0.13 0.12 0.14 0.12 0.43 0.58 0.14 0.12 0.13 0.12 0.43 0.59 0.14 0.11 0.14 0.12 0.43 0.59c0.17,0 0.13,-0.05 0.13,0.12l0.14 0.11 0.43 0.59c0.18,0 0.14,-0.05 0.14,0.12l0.13 0.11 0.32 0.47c0.18,0 0.14,-0.04 0.14,0.12l0.11 0.12 0.14 0.12 0.32 0.46c0.17,0 0.13,-0.04 0.13,0.12l0.14 0.12 0.43 0.59c0.17,0 0.14,-0.05 0.13,0.12l0.14 0.11 0.43 0.59c0.18,0 0.14,-0.05 0.14,0.12l0.14 0.11 0.43 0.59 0.13 0.12 0.14 0.12 0.43 0.58 0.14 0.12 0.14 0.12 0.43 0.59 0.13 0.11 0.14 0.12 0.43 0.59 0.14 0.11 0.14 0.12 0.42 0.59 0.14 0.12 0.14 0.11 0.43 0.59 0.14 0.12 0.13 0.11 0.43 0.59 0.14 0.12 0.14 0.12 0.23 0.24 -0.23 0.34 -0.14 0.12 -0.12 0.12c0,0.17 0.04,0.12 -0.13,0.12l-0.43 0.58 -0.14 0.12c0,0.17 0.04,0.12 -0.14,0.12l-0.43 0.59 -0.14 0.11 -0.11 0.12c0,0.17 0.04,0.12 -0.14,0.12l-0.43 0.58 -0.14 0.12c0,0.17 0.04,0.12 -0.14,0.12l-0.43 0.59 -0.13 0.11 -0.12 0.12c0,0.17 0.04,0.12 -0.14,0.12l-0.43 0.58 -0.13 0.12 -0.12 0.12c0,0.17 0.04,0.12 -0.13,0.12l-0.44 0.58 -0.14 0.12 -0.13 0.12 -0.43 0.59 -0.14 0.11 -0.12 0.12c0,0.17 0.04,0.12 -0.13,0.12l-0.43 0.58 -0.14 0.12 -0.14 0.12 -0.54 0.7 -0.14 0.12 -0.14 0.12 -0.43 0.59 -0.14 0.11c0,0.17 0.04,0.12 -0.14,0.12l-0.54 0.71 -0.14 0.11 -0.14 0.12 -0.43 0.59 -0.13 0.11c0,0.17 0.03,0.12 -0.14,0.12l-0.55 0.71 -0.14 0.11 -0.13 0.12 -0.43 0.59 -0.14 0.12c0,0.16 0.04,0.11 -0.14,0.11l-0.54 0.71 -0.14 0.12 -0.14 0.11 -0.43 0.59 -0.14 0.12 -0.11 0.11 -0.14 0.12 -0.43 0.59 -0.14 0.12 -0.14 0.11 -0.43 0.59 -0.13 0.12c-0.11,0.17 -0.01,0.17 -0.12,0l-0.14 -0.12 -0.43 -0.59c-0.17,0 -0.13,0.05 -0.13,-0.11l-0.14 -0.12 -0.55 -0.71 -0.14 -0.11 -0.13 -0.12 -0.55 -0.71c-0.18,0 -0.14,0.05 -0.14,-0.11l-0.14 -0.12 -0.54 -0.7 -0.14 -0.12 -0.14 -0.12 -0.54 -0.7c-0.18,0 -0.14,0.04 -0.14,-0.12l-0.14 -0.12 -0.43 -0.58c-0.18,0 -0.14,0.04 -0.14,-0.12l-0.11 -0.12 -0.14 -0.12 -0.43 -0.58c-0.18,0 -0.14,0.05 -0.14,-0.12l-0.11 -0.12 -0.14 -0.12 -0.43 -0.58c-0.18,0 -0.14,0.05 -0.14,-0.12l-0.12 -0.12 -0.13 -0.12 -0.44 -0.58c-0.17,0 -0.13,0.05 -0.13,-0.12l-0.12 -0.12 -0.14 -0.11 -0.43 -0.59c-0.17,0 -0.13,0.05 -0.13,-0.12l-0.12 -0.12 -0.14 -0.12 -0.43 -0.58c-0.17,0 -0.14,0.05 -0.14,-0.12l-0.11 -0.12 -0.14 -0.12 -0.2 -0.28 0.26 -0.05 0.2 -0.14 0.18 0 0.23 -0.1 0.13 -0.02 0.2 -0.1 0.39 -0.14 0.19 -0.1 0.07 0c0,-0.18 -0.04,-0.12 0.17,-0.11l0.08 0c0,-0.18 -0.04,-0.13 0.16,-0.12l0.07 0c0,-0.18 -0.04,-0.13 0.16,-0.11l0.08 0c0,-0.19 -0.04,-0.14 0.16,-0.12l0.07 0c0,-0.18 -0.04,-0.13 0.14,-0.13l0.07 0 0.15 -0.13 0.23 -0.09c0,-0.18 -0.04,-0.13 0.15,-0.13l0.07 0c0,-0.16 -0.04,-0.12 0.13,-0.12l0.13 -0.13 0.22 -0.09 0.12 -0.15 0.47 -0.31 0.12 -0.16c0.54,-0.45 0.83,-0.71 1.27,-1.27l0.16 -0.12 0.32 -0.46 0.13 -0.13c0,-0.17 -0.05,-0.13 0.12,-0.13l0.1 -0.22 0.15 -0.12 0.09 -0.22c0.01,-0.18 -0.04,-0.13 0.13,-0.13l0.22 -0.46 0.13 -0.15 0 -0.07 0.11 -0.17 0 -0.07 0.11 -0.17 0 -0.07 0.12 -0.17 0 -0.07 0.11 -0.17 0.14 -0.39 0.1 -0.19 0.12 -0.44 0.14 -0.21 -0.03 -0.17 0.14 -0.19 -0.01 -0.23 0.12 -0.27 -0.02 -0.26 0.16 -0.29 -0.04 -0.37 0.15 -0.44 0 -2.86 -0.15 -0.44 0.02 -0.37 -0.14 -0.34 0.03 -0.24 -0.13 -0.25 0.01 -0.21 -0.13 -0.26 -0.01 -0.17 -0.09 -0.21 0.01 -0.11 -0.16 -0.18 0.02 -0.11c-0.19,0 -0.12,0.03 -0.1,-0.2l-0.03 -0.14 -0.1 -0.18 0 -0.07c-0.18,0 -0.12,0.03 -0.12,-0.17l0 -0.07c-0.18,0 -0.12,0.04 -0.12,-0.16l0 -0.07c-0.17,0 -0.12,0.03 -0.12,-0.17l0 -0.07c-0.17,0 -0.11,0.04 -0.11,-0.16l0 -0.07 -0.14 -0.14 -0.08 -0.24c-0.18,0 -0.14,0.05 -0.14,-0.14l0 -0.07 -0.13 -0.14 -0.08 -0.23 -0.15 -0.12 -0.2 -0.35 -0.16 -0.12 -0.19 -0.35c-0.18,0 -0.14,0.04 -0.14,-0.12l-0.12 -0.12 -0.12 -0.12 -0.13 -0.11c-0.38,-0.47 -0.61,-0.64 -1.04,-1.04l-0.12 -0.14 -0.12 -0.13 -0.35 -0.2 -0.12 -0.15 -0.35 -0.2 -0.14 -0.14 -0.07 0c-0.18,0 -0.14,0.05 -0.14,-0.13l-0.23 -0.09 -0.14 -0.13 -0.08 0c-0.18,0 -0.14,0.05 -0.14,-0.13l-0.54 -0.24c-0.21,0.02 -0.17,0.07 -0.17,-0.11l-0.07 0c-0.21,0.01 -0.17,0.07 -0.17,-0.11l-0.07 0 -0.18 -0.11 -0.12 0.02 -0.18 -0.17 -0.11 0.02 -0.2 -0.1 -0.14 -0.02 -0.2 -0.1 -0.13 0.03 -0.26 -0.18 -0.2 0.05 -0.26 -0.17 -0.23 0.01 -0.23 -0.08c-4.25,-0.47 -8.75,-0.25 -13.09,-0.25 -4.46,0 -8.92,0 -13.38,0l0 37.8 10.44 0z"/>
   <path class="fil0" d="M37.54 16.17l-0.11 0.31 0.01 0.34 -0.14 0.33 0.02 0.25 -0.13 0.23 0.01 0.22 -0.13 0.24 0.01 0.22 -0.13 0.24 0.03 0.14 -0.15 0.2 0.03 0.15 -0.15 0.2 0.03 0.15 -0.15 0.21 0.04 0.15 -0.16 0.19 0.02 0.11 -0.1 0.2 -0.14 0.39 -0.1 0.19 -0.14 0.39c0.01,0.22 0.08,0.18 -0.1,0.18l0 0.07 -0.12 0.17 0 0.07 -0.11 0.17 0 0.08 -0.11 0.16 -0.36 0.78 -0.13 0.14 0 0.07c0,0.19 0.05,0.14 -0.13,0.14l-0.09 0.24 -0.13 0.14 0 0.07c0,0.18 0.05,0.14 -0.13,0.14l-0.09 0.23 -0.14 0.14 -0.09 0.22 -0.14 0.13 -0.09 0.22 -0.14 0.14 -0.33 0.56 -0.15 0.13 -0.1 0.22 -0.15 0.12 -0.19 0.36 -0.16 0.11 -0.19 0.35 -0.14 0.12 -0.14 0.12 -0.43 0.59 -0.16 0.11c-0.72,0.89 -1.23,1.36 -2.09,2.1l-0.11 0.14 -0.12 0.11 -0.12 0.14 -0.35 0.2c0,0.17 0.05,0.13 -0.12,0.13l-0.12 0.14 -0.35 0.2 -0.12 0.13 -0.11 0.13 -0.23 0.09 -0.13 0.15 -0.22 0.09 -0.13 0.15 -0.22 0.09 -0.13 0.15 -0.21 0.09 -0.14 0.13 -0.46 0.22c0,0.17 0.04,0.12 -0.14,0.13l-0.46 0.21c0,0.19 0.04,0.14 -0.16,0.12l-1.08 0.5 -0.19 0.1 -0.4 0.13 -0.2 0.1 -0.43 0.12 -0.25 0.13 -0.21 -0.02 -0.22 0.14 -0.21 0 -0.22 0.09 -0.31 0 -0.33 0.14c-1.33,0.06 -1.99,0.07 -3.3,0l-0.33 -0.14 -0.51 -0.08 -0.18 -0.17 -0.12 0.02 -0.2 -0.09 -0.31 -0.12 -0.15 -0.13 -0.07 0c-0.19,-0.01 -0.15,0.05 -0.15,-0.12l-0.07 0c-0.19,0 -0.15,0.05 -0.15,-0.13l-0.23 -0.09 -0.12 -0.15 -0.35 -0.2 -0.11 -0.15 -0.11 -0.1 -0.13 -0.12 -0.14 -0.12 -0.43 -0.58 -0.15 -0.12 -0.09 -0.22 -0.15 -0.13 -0.09 -0.22 -0.13 -0.14 0 -0.07 -0.12 -0.16 0 -0.08 -0.12 -0.16 0 -0.07 -0.12 -0.16 0 -0.08 -0.09 -0.2 -0.03 -0.13 -0.09 -0.23 -0.02 -0.13 -0.09 -0.23 0 -0.18 -0.15 -0.31 0.04 -0.21 -0.16 -0.29 0.03 -0.27c-0.19,0 -0.13,-0.35 -0.13,-0.48l-0.03 -2.24 0.18 -0.83 -0.03 -0.38 0.11 -0.3 -0.01 -0.33 0.14 -0.34 -0.01 -0.33 0.13 -0.25 -0.01 -0.23 0.12 -0.26 -0.02 -0.24 0.17 -0.28 -0.02 -0.12 0.09 -0.22 0.03 -0.13 0.09 -0.22 0.02 -0.13 0.1 -0.22 0.02 -0.13 0.1 -0.21 0 -0.07 0.11 -0.18 0.03 -0.14c-0.02,-0.22 -0.08,-0.18 0.1,-0.18l0 -0.07 0.11 -0.19 0.14 -0.39c-0.02,-0.22 -0.08,-0.18 0.1,-0.18l0 -0.07c0,-0.2 -0.06,-0.17 0.12,-0.17l0 -0.07 0.11 -0.16 0 -0.08 0.12 -0.16 0 -0.07 0.11 -0.17 0 -0.07 0.12 -0.17 0 -0.07 0.12 -0.16 0 -0.07c0.01,-0.19 -0.04,-0.15 0.13,-0.15l0 -0.07c-0.01,-0.19 -0.06,-0.14 0.12,-0.14l0.21 -0.47 0.13 -0.15 0 -0.07c0,-0.18 -0.05,-0.14 0.13,-0.14l0.09 -0.23 0.14 -0.13 0.09 -0.22 0.14 -0.14 0.1 -0.21 0.14 -0.14 0.33 -0.57 0.15 -0.12 0.2 -0.35 0.16 -0.12 0.19 -0.35 0.16 -0.12 0.54 -0.7 0.16 -0.12c0.39,-0.48 0.57,-0.74 1.02,-1.17l0.14 -0.12 0.11 -0.12 0.12 -0.11 0.12 -0.12 0.12 -0.12 0.11 -0.14 0.94 -0.78 0.12 -0.16 0.35 -0.2c0,-0.17 -0.05,-0.13 0.12,-0.13l0.12 -0.13 0.35 -0.2 0.12 -0.15 0.22 -0.1 0.13 -0.14 0.35 -0.2c0,-0.18 -0.04,-0.13 0.13,-0.14l0.22 -0.09c0,-0.18 -0.04,-0.14 0.13,-0.15l0.46 -0.21c0,-0.18 -0.04,-0.13 0.14,-0.13l0.07 0 0.14 -0.13 1.01 -0.47 0.17 -0.11 0.08 0 0.17 -0.11 0.07 0c0,-0.19 -0.03,-0.12 0.19,-0.11l0.14 -0.03 0.19 -0.1 0.07 0c0,-0.19 -0.03,-0.12 0.19,-0.1l0.14 -0.03 0.2 -0.1 0.1 0.02 0.22 -0.15 0.18 0 0.22 -0.09 0.14 -0.03 0.22 -0.09 0.22 0.01 0.31 -0.15 0.35 0.02 0.34 -0.14 2.5 -0.01 0.31 0.15 0.26 -0.02 0.32 0.15 0.16 -0.04 0.21 0.15 0.15 -0.03 0.21 0.14 0.18 0.01c0.22,-0.02 0.17,-0.08 0.17,0.11l0.47 0.21 0.15 0.12 0.08 0c0.18,0.01 0.13,-0.04 0.13,0.14l0.35 0.2 0.12 0.16c0.45,0.35 0.64,0.64 1.03,1.04 0.18,0 0.14,-0.05 0.15,0.13l0.09 0.22c0.18,0 0.14,-0.05 0.14,0.13l0.22 0.46c0.18,0 0.13,-0.05 0.12,0.15l0 0.08c0.18,0 0.13,-0.04 0.11,0.16l0 0.07c0.19,0 0.14,-0.04 0.12,0.16l0 0.08c0.19,0 0.13,-0.04 0.11,0.17l0.03 0.14 0.09 0.21 0.02 0.15 0.1 0.2 0 0.19 0.13 0.25 0.08 0.96c0.19,0.24 0.17,0.34 0.18,0.71l0 2.23c-0.01,0.38 0.01,0.49 -0.17,0.74l0.02 0.35zm-14.09 -16.04l-0.89 0 -0.54 0.11 -0.56 -0.01 -0.45 0.15 -0.39 -0.04 -0.43 0.16 -0.34 -0.02 -0.32 0.11 -0.41 0 -0.26 0.13 -0.27 -0.03 -0.26 0.17 -0.26 -0.03 -0.25 0.12 -0.23 -0.01 -0.25 0.13 -0.25 -0.03 -0.28 0.17 -0.18 -0.04 -0.23 0.13 -0.21 -0.01 -0.22 0.14 -0.16 -0.03 -0.22 0.14 -0.18 0.01 -0.21 0.09 -0.14 0.03 -0.21 0.09 -0.14 0.03 -0.2 0.09 -0.11 -0.01 -0.19 0.16 -0.11 -0.02c0,0.18 0.03,0.11 -0.2,0.1l-0.13 0.03 -0.2 0.1 -0.4 0.13 -0.19 0.1 -0.07 0c0,0.18 0.04,0.12 -0.18,0.11l-0.38 0.14 -0.17 0.11 -0.07 0 -0.18 0.11 -0.07 0c0,0.18 0.03,0.12 -0.18,0.11l-1.48 0.7c0,0.18 0.04,0.13 -0.15,0.13l-0.08 0c0,0.17 0.04,0.12 -0.15,0.12l-0.07 0 -0.14 0.13 -0.46 0.21c0,0.18 0.04,0.13 -0.15,0.13l-0.07 0 -0.14 0.14 -0.23 0.09 -0.13 0.14 -0.22 0.09 -0.13 0.15 -0.22 0.09 -0.13 0.14 -0.35 0.2 -0.12 0.15 -0.23 0.09c0,0.17 0.05,0.13 -0.12,0.13l-0.13 0.13 -0.34 0.2 -0.12 0.14 -0.12 0.13 -0.47 0.32c0,0.17 0.05,0.14 -0.11,0.14l-0.12 0.13c-0.76,0.72 -1.17,1.04 -1.86,1.86l-0.15 0.12 -0.44 0.58 -0.13 0.12 -0.14 0.12 -0.2 0.35 -0.13 0.12c0,0.17 0.04,0.13 -0.13,0.13l-0.09 0.22 -0.14 0.13 -0.09 0.22 -0.15 0.13 -0.22 0.44c-0.01,0.18 0.04,0.14 -0.14,0.14l-0.21 0.45c-0.01,0.19 0.05,0.15 -0.13,0.15l0 0.08c0.01,0.19 0.06,0.15 -0.12,0.15l0 0.08c0.01,0.19 0.06,0.15 -0.12,0.15l0 0.08c0.01,0.19 0.06,0.15 -0.12,0.15l0 0.08c0.02,0.21 0.08,0.17 -0.11,0.17l0 0.07 -0.11 0.18 0 0.07 -0.11 0.18 -0.14 0.38 -0.09 0.21 -0.03 0.13 -0.1 0.21 0.02 0.11 -0.16 0.19 0.04 0.15 -0.15 0.2 0.03 0.15 -0.15 0.2 0.03 0.15 -0.14 0.23 0.01 0.22 -0.12 0.25 0.02 0.25 -0.14 0.33 0.01 0.36 -0.13 0.37 0.01 0.54 -0.12 0.42 0 2.26 0.12 0.42 -0.01 0.54 0.13 0.38 0.09 0.97 0.17 0.27 -0.04 0.18 0.13 0.24 0.01 0.16 0.09 0.22 0.03 0.13 0.09 0.22 0.02 0.14 0.1 0.2 -0.02 0.12 0.17 0.17 -0.02 0.11c0.19,0 0.12,-0.03 0.1,0.2l0.03 0.14 0.1 0.18 0 0.07c0.18,0 0.12,-0.03 0.11,0.18l0.83 1.71 0.13 0.13 0.22 0.46 0.14 0.13 0.09 0.22 0.14 0.13 0.09 0.22 0.15 0.14 0.2 0.34c0.17,0 0.13,-0.04 0.13,0.13l0.13 0.12 0.2 0.34 0.14 0.12 0.12 0.12 0.13 0.12 0.67 0.82c0.17,0 0.14,-0.05 0.14,0.12l0.12 0.11 0.11 0.12 0.12 0.12 0.12 0.12c0.16,0 0.11,-0.04 0.11,0.13l1.18 1.02 0.12 0.14c0.16,0 0.12,-0.04 0.12,0.13l0.35 0.2 0.11 0.14c0.17,0 0.13,-0.04 0.13,0.13l0.21 0.09c0.18,0.01 0.13,-0.03 0.13,0.15l0.35 0.19 0.14 0.15 0.22 0.09 0.12 0.15 0.23 0.09 0.12 0.15 0.23 0.09 0.12 0.14 0.23 0.09 0.14 0.13 0.07 0c0.19,0 0.15,-0.05 0.15,0.13l0.46 0.21 0.14 0.13 0.07 0c0.19,0 0.15,-0.05 0.15,0.13l0.7 0.33 0.16 0.11 0.62 0.26c0.21,-0.01 0.17,-0.07 0.17,0.11l0.08 0c0.21,0 0.17,-0.06 0.17,0.11l0.07 0 0.18 0.11 0.63 0.26c0.21,-0.01 0.18,-0.08 0.18,0.1l0.07 0 0.19 0.11 0.14 0.03 0.2 0.09 0.11 -0.02 0.17 0.17 0.11 -0.01 0.2 0.09 0.14 0.03 0.21 0.09 0.14 0.03 0.21 0.09 0.11 -0.01 0.19 0.16 0.15 -0.04 0.22 0.14 0.17 0.01 0.24 0.09 0.17 0.01 0.23 0.13 0.17 -0.04 0.26 0.18 0.17 -0.04 0.25 0.13 0.22 -0.01 0.23 0.13 0.26 -0.03 0.29 0.16 0.28 -0.04 0.29 0.16 0.35 -0.01 0.31 0.1 0.3 0.01 0.32 0.1 0.45 -0.01 0.51 0.17 1.52 0.09 0.44 0.11 5.47 0.02 0.56 -0.15 0.47 0.02 0.42 -0.12 0.54 0.01 0.45 -0.14 0.31 0.04 0.4 -0.17 0.37 0.03 0.35 -0.13 0.27 0.03 0.29 -0.16 0.26 0.02 0.27 -0.12 0.27 -0.01 0.23 -0.09 0.2 -0.01 0.23 -0.13 0.22 0.01 0.25 -0.13 0.17 0 0.23 -0.09 0.18 -0.01 0.23 -0.13 0.15 0.02 0.22 -0.14 0.17 -0.01 0.21 -0.09 0.13 -0.03 0.21 -0.09 0.12 0.02 0.19 -0.16 0.44 -0.11 0.2 -0.1 0.4 -0.13c0,-0.19 -0.04,-0.12 0.19,-0.1l0.14 -0.03 0.18 -0.11 0.07 0 0.19 -0.1 0.38 -0.14 0.19 -0.1 0.07 0c0,-0.18 -0.04,-0.12 0.17,-0.12l0.07 0c0,-0.18 -0.04,-0.12 0.17,-0.11l0.07 0c0,-0.19 -0.04,-0.13 0.16,-0.12l0.08 0c0,-0.18 -0.04,-0.13 0.16,-0.11l0.08 0c0,-0.19 -0.04,-0.13 0.16,-0.12l0.07 0c0,-0.18 -0.04,-0.13 0.16,-0.12l0.07 0c0,-0.18 -0.04,-0.12 0.15,-0.13l0.07 0 0.16 -0.12 0.07 0 0.15 -0.12 0.47 -0.21c0,-0.18 -0.05,-0.13 0.13,-0.14l0.07 0 0.15 -0.13 0.24 -0.08c0,-0.18 -0.05,-0.13 0.13,-0.14l0.22 -0.09c0,-0.18 -0.05,-0.14 0.13,-0.15l0.22 -0.09c0,-0.18 -0.04,-0.13 0.13,-0.14l0.22 -0.09 0.12 -0.15 0.23 -0.1 0.12 -0.14 0.35 -0.2 0.12 -0.15 0.35 -0.21c0,-0.17 -0.05,-0.13 0.12,-0.13l0.12 -0.13 0.47 -0.32c0,-0.17 -0.05,-0.14 0.12,-0.13l0.11 -0.12 0.12 -0.14c0.72,-0.64 1.13,-0.97 1.75,-1.74l0.15 -0.12 0.55 -0.7 0.16 -0.12 0.3 -0.47 0.16 -0.12 0.1 -0.22c0,-0.18 -0.04,-0.13 0.14,-0.13l0.19 -0.35 0.15 -0.13 0.21 -0.46 0.13 -0.14 0 -0.07c0,-0.18 -0.04,-0.14 0.13,-0.14l0.45 -0.94 0.12 -0.16 0.25 -0.62c-0.01,-0.21 -0.07,-0.18 0.11,-0.18l0 -0.07 0.11 -0.19 0.13 -0.39 0.1 -0.19 -0.02 -0.11 0.16 -0.19 -0.03 -0.16 0.14 -0.22 -0.01 -0.2 0.14 -0.21 -0.04 -0.18 0.16 -0.29 -0.04 -0.21 0.16 -0.27 -0.04 -0.29 0.15 -0.43 0 -0.53 0.09 -0.36 0.01 -3.1 -0.11 -0.42 0.01 -0.43 -0.14 -0.34 0.01 -0.34 -0.12 -0.25 0 -0.22 -0.12 -0.26 0.01 -0.22 -0.14 -0.22 0.03 -0.15 -0.14 -0.22 -0.01 -0.18 -0.09 -0.23 -0.02 -0.13 -0.1 -0.2 0.02 -0.12 -0.16 -0.18 0.01 -0.11c-0.19,0 -0.11,0.04 -0.09,-0.2l-0.15 -0.38 -0.11 -0.17 0 -0.07c-0.18,0 -0.11,0.03 -0.1,-0.18l-0.01 -0.07c-0.18,0 -0.12,0.03 -0.11,-0.17l0 -0.07c-0.18,0 -0.13,0.04 -0.12,-0.16l0 -0.07c-0.18,0 -0.13,0.04 -0.12,-0.16l0 -0.07c-0.18,0 -0.12,0.04 -0.12,-0.16l0 -0.07 -0.13 -0.14 -0.22 -0.45 -0.14 -0.14 -0.08 -0.23c-0.18,0 -0.13,0.04 -0.14,-0.13l-0.1 -0.22c-0.17,0 -0.13,0.04 -0.14,-0.13l-0.09 -0.23 -0.15 -0.12 -0.2 -0.35 -0.16 -0.11 -0.31 -0.47c-0.18,0 -0.14,0.05 -0.14,-0.12l-0.14 -0.12 -0.54 -0.7c-0.18,0 -0.14,0.05 -0.14,-0.12l-0.12 -0.12 -0.13 -0.11 -0.34 -0.34 -0.11 -0.13 -0.12 -0.12c-0.17,0 -0.12,0.04 -0.12,-0.14l-0.94 -0.78 -0.12 -0.14 -0.11 -0.13 -0.35 -0.21 -0.12 -0.13 -0.12 -0.13 -0.35 -0.2 -0.12 -0.15 -0.23 -0.09 -0.12 -0.15 -0.23 -0.09c-0.17,-0.01 -0.12,0.03 -0.12,-0.14l-0.23 -0.1c-0.17,-0.01 -0.13,0.04 -0.13,-0.14l-0.22 -0.09c-0.17,-0.01 -0.13,0.04 -0.13,-0.14l-0.22 -0.1c-0.18,-0.01 -0.13,0.04 -0.13,-0.13l-0.46 -0.22c-0.18,-0.01 -0.14,0.04 -0.14,-0.13l-0.69 -0.33 -0.15 -0.13 -0.07 0c-0.19,0 -0.15,0.05 -0.15,-0.12l-0.07 0c-0.19,0 -0.15,0.05 -0.15,-0.13l-0.08 0c-0.21,0.02 -0.17,0.08 -0.17,-0.11l-0.07 0 -0.18 -0.11 -0.07 0 -0.17 -0.11 -0.63 -0.26c-0.21,0.02 -0.17,0.08 -0.17,-0.11l-0.07 0 -0.18 -0.1 -0.08 0 -0.17 -0.11 -0.39 -0.14 -0.2 -0.1 -0.13 -0.03c-0.23,0.02 -0.2,0.09 -0.2,-0.1l-0.07 0 -0.19 -0.1 -0.14 -0.03 -0.21 -0.09 -0.13 -0.03 -0.21 -0.09 -0.14 -0.03c-0.24,0.02 -0.21,0.1 -0.21,-0.09l-0.11 0.01 -0.19 -0.15 -0.16 0.03 -0.22 -0.14 -0.21 0.01 -0.23 -0.14 -0.15 0.03 -0.23 -0.13 -0.22 0 -0.26 -0.12 -0.25 0.03 -0.26 -0.17 -0.23 0.05 -0.26 -0.17 -0.26 0.03 -0.25 -0.12 -0.85 -0.09 -0.41 -0.16 -0.34 0.01 -0.33 -0.1 -1.47 -0.11 -0.7 -0.15 -0.9 0.01 -0.67 -0.11 -2.89 -0.01 -0.84 0.13z"/>
   <path class="fil0" d="M55.28 38.87l10.56 0 0 -22.61c0.41,0.3 0.09,-0.01 0.27,0.29l0.07 0.13 0.15 0.12 0.2 0.35 0.16 0.12 0.3 0.47 0.16 0.11 0.2 0.36 0.15 0.11 0.2 0.35 0.16 0.12 0.2 0.35 0.13 0.12 0.13 0.12 0.2 0.35 0.16 0.12 0.2 0.35 0.15 0.12 0.2 0.35 0.16 0.12 0.3 0.47 0.16 0.12 0.2 0.35 0.15 0.12 0.2 0.35 0.16 0.11 0.2 0.36 0.13 0.11 0.13 0.12 0.2 0.35 0.16 0.12 0.2 0.35 0.15 0.12 0.2 0.35 0.16 0.12 0.3 0.47 0.16 0.12 0.2 0.35 0.15 0.12 0.2 0.35 0.16 0.12 0.2 0.35 0.13 0.12 0.13 0.11 0.2 0.35 0.16 0.12 0.2 0.36 0.15 0.11 0.2 0.35 0.16 0.12 0.3 0.47 0.16 0.12 0.2 0.35 0.15 0.12 0.2 0.35 0.16 0.12 0.2 0.35 0.13 0.12 0.13 0.12 0.2 0.35 0.16 0.11 0.2 0.36 0.15 0.11 0.2 0.36 0.16 0.11 0.3 0.47 0.16 0.12 0.2 0.35 0.15 0.12 0.21 0.35 0.15 0.12 0.2 0.35 0.13 0.12 0.13 0.12 0.2 0.35 0.16 0.12 0.2 0.35 0.15 0.12 0.2 0.35 0.13 0.12 0.13 0.11 0.21 0.35 0.15 0.12 0.2 0.36 0.15 0.11 0.21 0.35 0.15 0.12 0.2 0.35 0.13 0.12 0.13 0.12 0.2 0.35 0.16 0.12 0.2 0.35 0.15 0.12 0.2 0.35 0.13 0.12 0.13 0.11 0.2 0.36 11.75 0 0.02 -37.81 -10.6 0.01 -0.02 24.08 -0.17 -0.25 -0.15 -0.12 -0.2 -0.35 -0.13 -0.12 -0.13 -0.12 -0.21 -0.35 -0.15 -0.12 -0.2 -0.35 -0.16 -0.12 -0.2 -0.35 -0.15 -0.12 -0.2 -0.34c-0.17,0 -0.13,0.04 -0.13,-0.13l-0.13 -0.11 -0.2 -0.36 -0.16 -0.11 -0.2 -0.36 -0.15 -0.11 -0.2 -0.35 -0.13 -0.12 -0.13 -0.12 -0.2 -0.35 -0.16 -0.12 -0.2 -0.35 -0.16 -0.12 -0.2 -0.35 -0.15 -0.12 -0.2 -0.35 -0.13 -0.12 -0.13 -0.12 -0.2 -0.35 -0.16 -0.12 -0.2 -0.35 -0.15 -0.11 -0.2 -0.36 -0.13 -0.11 -0.13 -0.12 -0.2 -0.35 -0.16 -0.12 -0.2 -0.35 -0.15 -0.12 -0.2 -0.35 -0.16 -0.12 -0.2 -0.35 -0.13 -0.12 -0.13 -0.12 -0.2 -0.35 -0.16 -0.12 -0.2 -0.35 -0.15 -0.12 -0.2 -0.35 -0.16 -0.12 -0.3 -0.47 -0.16 -0.11 -0.2 -0.35 -0.15 -0.12 -0.21 -0.35 -0.15 -0.12 -0.2 -0.35 -0.13 -0.12 -0.13 -0.12 -0.2 -0.35 -0.16 -0.12 -0.2 -0.35 -0.15 -0.12 -0.2 -0.35 -0.16 -0.12 -0.3 -0.47 -0.16 -0.12 -0.2 -0.35 -0.15 -0.12 -0.2 -0.35 -0.16 -0.11 -0.2 -0.36 -0.13 -0.11 -0.13 -0.12 -0.2 -0.35 -0.16 -0.12 -0.2 -0.35 -0.15 -0.12 -0.2 -0.35 -0.16 -0.12 -0.3 -0.47 -0.16 -0.12 -0.2 -0.35 -0.15 -0.12 -0.2 -0.35 -0.16 -0.12 -0.2 -0.35 -0.13 -0.12 -0.13 -0.11 -0.2 -0.35 -0.16 -0.12 -0.2 -0.36 -0.15 -0.11 -0.2 -0.35 -0.16 -0.12 -0.2 -0.35 -0.13 -0.12 -0.13 -0.12 -0.2 -0.35 -0.15 -0.12 -0.2 -0.35 -0.16 -0.12 -0.2 -0.35 -0.13 -0.12 -0.12 -0.11 -10.56 0 0 37.8z"/>
   <path class="fil0" d="M98.85 38.82l32.3 0.04 0 -8.49 -21.7 0.02c-0.16,-0.15 -0.11,-0.02 -0.15,-0.32 -0.01,-0.05 0,-0.4 0,-0.47l0 -5.73c0.62,-0.21 13.91,-0.1 14.52,0.09l5.3 0 0 -8.54 -19.65 -0.07c-0.18,-0.16 -0.1,-0.01 -0.15,-0.31l0.01 -5.48c0.83,-0.22 19.23,-0.01 21.75,0l0 -8.48 -32.22 -0.02 -0.01 37.76z"/>
   <polygon class="fil0" points="74.9,12.81 74.75,12.69 "/>
   <polygon class="fil0" points="204.37,12.92 204.25,13.04 "/>
   <polygon class="fil0" points="204.25,13.04 204.12,13.16 "/>
   <polygon class="fil0" points="75.26,13.27 75.1,13.16 "/>
   <polygon class="fil0" points="17.73,13.27 17.57,13.39 "/>
   <polygon class="fil0" points="0.68,13.36 0.57,13.54 "/>
   <polygon class="fil0" points="203.8,13.63 203.67,13.74 "/>
   <polygon class="fil0" points="17.38,13.74 17.22,13.86 "/>
   <polygon class="fil0" points="75.72,13.86 75.56,13.74 "/>
   <polygon class="fil0" points="181.24,13.98 181.11,13.86 "/>
   <polygon class="fil0" points="0.32,14.17 0.23,14.38 "/>
   <polygon class="fil0" points="17.02,14.21 16.87,14.33 "/>
   <polygon class="fil0" points="76.07,14.33 75.92,14.21 "/>
   <polygon class="fil0" points="161.04,14.29 160.95,14.5 "/>
   <polygon class="fil0" points="51.31,14.53 51.15,14.35 "/>
   <polygon class="fil0" points="0.2,14.51 0.1,14.72 "/>
   <polygon class="fil0" points="202.96,14.57 202.83,14.68 "/>
   <polygon class="fil0" points="76.43,14.8 76.27,14.68 "/>
   <polygon class="fil0" points="181.95,14.8 181.81,14.68 "/>
   <polygon class="fil0" points="160.8,14.89 160.94,14.69 "/>
   <polygon class="fil0" points="-0.04,15.02 0.12,14.83 "/>
   <polygon class="fil0" points="51.5,15.21 51.41,14.98 "/>
   <polygon class="fil0" points="171.13,15.15 171.28,14.71 "/>
   <polygon class="fil0" points="76.76,15.27 76.63,15.15 "/>
   <polygon class="fil0" points="-0.15,15.37 0,15.17 "/>
   <polygon class="fil0" points="76.89,15.39 76.76,15.27 "/>
   <polygon class="fil0" points="202.26,15.39 202.12,15.51 "/>
   <polygon class="fil0" points="51.65,15.61 51.51,15.39 "/>
   <polygon class="fil0" points="182.65,15.62 182.52,15.51 "/>
   <polygon class="fil0" points="-0.27,15.72 -0.12,15.52 "/>
   <polygon class="fil0" points="171.01,15.81 171.17,15.52 "/>
   <polygon class="fil0" points="77.25,15.86 77.09,15.74 "/>
   <polygon class="fil0" points="51.76,15.98 51.62,15.76 "/>
   <polygon class="fil0" points="160.37,15.86 160.21,15.97 "/>
   <polygon class="fil0" points="-0.38,16.1 -0.24,15.87 "/>
   <polygon class="fil0" points="77.6,16.33 77.45,16.21 "/>
   <polygon class="fil0" points="170.91,16.34 171.03,16.07 "/>
   <polygon class="fil0" points="37.43,16.48 37.54,16.17 "/>
   <polygon class="fil0" points="51.87,16.46 51.75,16.2 "/>
   <polygon class="fil0" points="183.36,16.44 183.22,16.33 "/>
   <polygon class="fil0" points="-0.49,16.57 -0.37,16.32 "/>
   <polygon class="fil0" points="159.89,16.44 159.76,16.56 "/>
   <polygon class="fil0" points="159.76,16.56 159.64,16.69 "/>
   <polygon class="fil0" points="66.33,16.8 66.18,16.68 "/>
   <polygon class="fil0" points="77.96,16.8 77.8,16.68 "/>
   <polygon class="fil0" points="170.78,16.76 170.92,16.57 "/>
   <polygon class="fil0" points="51.99,16.93 51.87,16.68 "/>
   <polygon class="fil0" points="201.1,16.8 200.97,16.91 "/>
   <polygon class="fil0" points="200.97,16.91 200.83,17.03 "/>
   <polygon class="fil0" points="-0.61,17.15 -0.47,16.82 "/>
   <polygon class="fil0" points="37.3,17.15 37.44,16.82 "/>
   <polygon class="fil0" points="170.67,17.14 170.81,16.93 "/>
   <polygon class="fil0" points="66.69,17.27 66.53,17.15 "/>
   <polygon class="fil0" points="78.29,17.27 78.16,17.15 "/>
   <polygon class="fil0" points="184.06,17.27 183.92,17.15 "/>
   <polygon class="fil0" points="78.42,17.38 78.29,17.27 "/>
   <polygon class="fil0" points="184.2,17.38 184.06,17.27 "/>
   <polygon class="fil0" points="52.12,17.61 51.98,17.27 "/>
   <polygon class="fil0" points="37.19,17.63 37.32,17.4 "/>
   <polygon class="fil0" points="158.25,17.49 158.04,17.64 "/>
   <polygon class="fil0" points="170.55,17.58 170.45,17.77 "/>
   <polygon class="fil0" points="200.4,17.62 200.26,17.74 "/>
   <polygon class="fil0" points="-0.73,17.88 -0.6,17.51 "/>
   <polygon class="fil0" points="67.15,17.85 66.99,17.74 "/>
   <polygon class="fil0" points="78.77,17.85 78.62,17.74 "/>
   <polygon class="fil0" points="200.26,17.74 200.13,17.85 "/>
   <polygon class="fil0" points="37.07,18.09 37.2,17.85 "/>
   <polygon class="fil0" points="184.77,18.09 184.63,17.97 "/>
   <polygon class="fil0" points="184.9,18.2 184.77,18.09 "/>
   <polygon class="fil0" points="52.22,18.46 52.11,18.04 "/>
   <polygon class="fil0" points="67.5,18.32 67.35,18.21 "/>
   <polygon class="fil0" points="79.13,18.32 78.97,18.2 "/>
   <polygon class="fil0" points="36.95,18.55 37.08,18.31 "/>
   <polygon class="fil0" points="199.68,18.44 199.56,18.56 "/>
   <polygon class="fil0" points="-0.84,18.84 -0.72,18.42 "/>
   <polygon class="fil0" points="67.86,18.79 67.7,18.67 "/>
   <polygon class="fil0" points="79.46,18.79 79.33,18.67 "/>
   <polygon class="fil0" points="36.83,18.89 36.98,18.69 "/>
   <polygon class="fil0" points="79.59,18.91 79.46,18.79 "/>
   <polygon class="fil0" points="185.47,18.91 185.33,18.79 "/>
   <polygon class="fil0" points="36.71,19.24 36.86,19.04 "/>
   <polygon class="fil0" points="68.19,19.26 68.06,19.14 "/>
   <polygon class="fil0" points="68.32,19.38 68.19,19.26 "/>
   <polygon class="fil0" points="79.94,19.38 79.79,19.26 "/>
   <polygon class="fil0" points="36.59,19.6 36.74,19.39 "/>
   <polygon class="fil0" points="185.61,19.61 185.47,19.73 "/>
   <polygon class="fil0" points="68.68,19.85 68.52,19.73 "/>
   <polygon class="fil0" points="80.3,19.85 80.14,19.73 "/>
   <polygon class="fil0" points="185.47,19.73 185.35,19.85 "/>
   <polygon class="fil0" points="36.47,19.94 36.63,19.75 "/>
   <polygon class="fil0" points="13.83,20.05 13.73,20.26 "/>
   <polygon class="fil0" points="36.49,20.05 36.39,20.25 "/>
   <polygon class="fil0" points="169.29,20.08 169.14,20.2 "/>
   <polygon class="fil0" points="69.03,20.32 68.88,20.2 "/>
   <polygon class="fil0" points="80.66,20.32 80.5,20.2 "/>
   <polygon class="fil0" points="51.39,14.85 51.29,14.65 "/>
   <polygon class="fil0" points="27.85,0.12 27.18,0.01 "/>
   <polygon class="fil0" points="13.71,20.39 13.61,20.61 "/>
   <polygon class="fil0" points="22.56,0.13 22.02,0.24 "/>
   <polygon class="fil0" points="29.45,0.26 28.75,0.11 "/>
   <polygon class="fil0" points="21.46,0.23 21.01,0.38 "/>
   <polygon class="fil0" points="36.25,20.64 36.15,20.83 "/>
   <polygon class="fil0" points="69.39,20.79 69.23,20.67 "/>
   <polygon class="fil0" points="80.99,20.79 80.86,20.67 "/>
   <polygon class="fil0" points="20.62,0.34 20.19,0.5 "/>
   <polygon class="fil0" points="13.59,20.74 13.5,20.96 "/>
   <polygon class="fil0" points="81.12,20.91 80.99,20.79 "/>
   <polygon class="fil0" points="31.25,0.47 30.92,0.37 "/>
   <polygon class="fil0" points="19.85,0.48 19.53,0.59 "/>
   <polygon class="fil0" points="13.47,21.09 13.38,21.31 "/>
   <polygon class="fil0" points="168.47,21.14 168.31,21.26 "/>
   <polygon class="fil0" points="-0.72,21.52 -0.84,21.1 "/>
   <polygon class="fil0" points="32,0.62 31.59,0.46 "/>
   <polygon class="fil0" points="69.85,21.38 69.69,21.26 "/>
   <polygon class="fil0" points="81.47,21.37 81.32,21.26 "/>
   <polygon class="fil0" points="184.08,21.38 183.94,21.49 "/>
   <polygon class="fil0" points="19.12,0.59 18.86,0.72 "/>
   <polygon class="fil0" points="183.94,21.49 183.83,21.61 "/>
   <polygon class="fil0" points="13.23,21.71 13.4,21.43 "/>
   <polygon class="fil0" points="18.59,0.69 18.33,0.86 "/>
   <polygon class="fil0" points="33.1,0.83 32.85,0.71 "/>
   <polygon class="fil0" points="18.07,0.83 17.82,0.95 "/>
   <polygon class="fil0" points="52.12,21.92 52.21,21.56 "/>
   <polygon class="fil0" points="70.2,21.85 70.05,21.73 "/>
   <polygon class="fil0" points="81.83,21.84 81.67,21.73 "/>
   <polygon class="fil0" points="33.62,0.97 33.36,0.8 "/>
   <polygon class="fil0" points="17.59,0.94 17.34,1.07 "/>
   <polygon class="fil0" points="13.13,22.21 13.25,21.95 "/>
   <polygon class="fil0" points="70.56,22.31 70.4,22.2 "/>
   <polygon class="fil0" points="82.16,22.31 82.03,22.2 "/>
   <polygon class="fil0" points="-0.6,22.44 -0.73,22.06 "/>
   <polygon class="fil0" points="34.11,1.09 33.85,0.92 "/>
   <polygon class="fil0" points="17.09,1.04 16.81,1.21 "/>
   <polygon class="fil0" points="34.62,1.18 34.36,1.06 "/>
   <polygon class="fil0" points="65.96,1.18 65.84,1.07 "/>
   <polygon class="fil0" points="201.69,22.55 201.55,22.43 "/>
   <polygon class="fil0" points="13.01,22.69 13.14,22.44 "/>
   <polygon class="fil0" points="167.04,22.53 166.92,22.69 "/>
   <polygon class="fil0" points="70.89,22.78 70.76,22.67 "/>
   <polygon class="fil0" points="51.97,22.88 52.12,22.45 "/>
   <polygon class="fil0" points="71.02,22.9 70.89,22.78 "/>
   <polygon class="fil0" points="82.64,22.9 82.49,22.78 "/>
   <polygon class="fil0" points="183.14,1.18 183,1.07 "/>
   <polygon class="fil0" points="166.45,23 166.33,23.15 "/>
   <polygon class="fil0" points="202.14,1.07 202.01,1.18 "/>
   <polygon class="fil0" points="12.88,23.36 13.02,23.02 "/>
   <polygon class="fil0" points="16.63,1.17 16.4,1.3 "/>
   <polygon class="fil0" points="182.55,23.14 182.42,23.25 "/>
   <polygon class="fil0" points="35.07,1.31 34.84,1.18 "/>
   <polygon class="fil0" points="51.85,23.44 52.01,23.17 "/>
   <polygon class="fil0" points="71.38,23.37 71.22,23.25 "/>
   <polygon class="fil0" points="83,23.37 82.84,23.25 "/>
   <polygon class="fil0" points="66.09,1.3 65.96,1.18 "/>
   <polygon class="fil0" points="182.42,23.25 182.3,23.37 "/>
   <polygon class="fil0" points="214.37,1.18 214.21,1.3 "/>
   <polygon class="fil0" points="16.19,1.29 15.97,1.43 "/>
   <polygon class="fil0" points="-0.34,23.68 -0.51,23.41 "/>
   <polygon class="fil0" points="35.45,1.42 35.22,1.28 "/>
   <polygon class="fil0" points="161.81,1.4 161.58,1.32 "/>
   <polygon class="fil0" points="15.81,1.4 15.59,1.54 "/>
   <polygon class="fil0" points="51.73,23.94 51.89,23.65 "/>
   <polygon class="fil0" points="71.73,23.84 71.58,23.72 "/>
   <polygon class="fil0" points="83.35,23.84 83.2,23.72 "/>
   <polygon class="fil0" points="35.88,1.55 35.66,1.41 "/>
   <polygon class="fil0" points="162.3,1.56 162.04,1.39 "/>
   <polygon class="fil0" points="12.78,23.99 12.89,23.69 "/>
   <polygon class="fil0" points="15.41,1.55 15.2,1.64 "/>
   <polygon class="fil0" points="36.23,1.67 36.04,1.52 "/>
   <polygon class="fil0" points="162.76,1.69 162.5,1.51 "/>
   <polygon class="fil0" points="15.06,1.67 14.85,1.76 "/>
   <polygon class="fil0" points="-0.25,24.1 -0.38,23.86 "/>
   <polygon class="fil0" points="66.45,1.77 66.29,1.65 "/>
   <polygon class="fil0" points="163.09,1.76 162.89,1.66 "/>
   <polygon class="fil0" points="201.69,1.65 201.53,1.77 "/>
   <polygon class="fil0" points="181.73,24.07 181.6,24.19 "/>
   <polygon class="fil0" points="51.63,24.33 51.77,24.12 "/>
   <polygon class="fil0" points="72.09,24.31 71.93,24.19 "/>
   <polygon class="fil0" points="83.69,24.31 83.56,24.19 "/>
   <polygon class="fil0" points="36.9,1.87 36.69,1.78 "/>
   <polygon class="fil0" points="181.6,24.19 181.48,24.31 "/>
   <polygon class="fil0" points="-0.15,24.48 -0.24,24.26 "/>
   <polygon class="fil0" points="83.82,24.43 83.69,24.31 "/>
   <polygon class="fil0" points="170.91,1.89 170.78,1.77 "/>
   <polygon class="fil0" points="183.71,1.89 183.57,1.77 "/>
   <polygon class="fil0" points="14.4,1.87 14.21,2.03 "/>
   <polygon class="fil0" points="164.02,24.43 163.83,24.53 "/>
   <polygon class="fil0" points="37.24,1.99 37.03,1.9 "/>
   <polygon class="fil0" points="163.72,2.03 163.54,1.86 "/>
   <polygon class="fil0" points="-0.03,24.83 -0.12,24.61 "/>
   <polygon class="fil0" points="51.5,24.75 51.64,24.53 "/>
   <polygon class="fil0" points="163.44,24.67 163.24,24.77 "/>
   <polygon class="fil0" points="12.63,25.2 12.81,24.37 "/>
   <polygon class="fil0" points="171.05,2 170.91,1.89 "/>
   <polygon class="fil0" points="72.55,24.9 72.39,24.78 "/>
   <polygon class="fil0" points="84.17,24.9 84.02,24.78 "/>
   <polygon class="fil0" points="163.11,24.79 162.88,24.89 "/>
   <polygon class="fil0" points="162.7,24.89 162.5,25.03 "/>
   <polygon class="fil0" points="0.09,25.17 -0.01,24.97 "/>
   <polygon class="fil0" points="51.37,25.1 51.53,24.91 "/>
   <polygon class="fil0" points="180.91,25.01 180.77,25.13 "/>
   <polygon class="fil0" points="180.77,25.13 180.64,25.25 "/>
   <polygon class="fil0" points="183.85,2 183.71,1.89 "/>
   <polygon class="fil0" points="51.39,25.21 51.29,25.4 "/>
   <polygon class="fil0" points="72.9,25.37 72.75,25.25 "/>
   <polygon class="fil0" points="213.78,1.89 213.65,2 "/>
   <polygon class="fil0" points="0.24,25.46 0.07,25.29 "/>
   <polygon class="fil0" points="213.65,2 213.51,2.12 "/>
   <polygon class="fil0" points="66.8,2.24 66.65,2.12 "/>
   <polygon class="fil0" points="162.69,25.6 162.58,25.48 "/>
   <polygon class="fil0" points="38.17,2.35 37.97,2.25 "/>
   <polygon class="fil0" points="201.22,2.24 201.08,2.36 "/>
   <polygon class="fil0" points="73.26,25.84 73.1,25.72 "/>
   <polygon class="fil0" points="33.33,25.83 33.18,25.95 "/>
   <polygon class="fil0" points="13.17,2.37 12.98,2.47 "/>
   <polygon class="fil0" points="201.08,2.36 200.95,2.47 "/>
   <polygon class="fil0" points="180.21,25.84 180.07,25.95 "/>
   <polygon class="fil0" points="67.13,2.71 67,2.59 "/>
   <polygon class="fil0" points="171.62,2.71 171.48,2.59 "/>
   <polygon class="fil0" points="180.07,25.95 179.95,26.07 "/>
   <polygon class="fil0" points="204.63,26.07 204.47,25.95 "/>
   <polygon class="fil0" points="184.41,2.71 184.28,2.59 "/>
   <polygon class="fil0" points="67.26,2.83 67.13,2.71 "/>
   <polygon class="fil0" points="171.75,2.83 171.62,2.71 "/>
   <polygon class="fil0" points="73.59,26.31 73.46,26.19 "/>
   <polygon class="fil0" points="32.99,26.31 32.83,26.42 "/>
   <polygon class="fil0" points="73.72,26.42 73.59,26.31 "/>
   <polygon class="fil0" points="184.55,2.83 184.41,2.71 "/>
   <polygon class="fil0" points="163.52,26.54 163.4,26.42 "/>
   <polygon class="fil0" points="213.08,2.71 212.94,2.83 "/>
   <polygon class="fil0" points="212.94,2.83 212.81,2.94 "/>
   <polygon class="fil0" points="32.64,26.77 32.5,26.89 "/>
   <polygon class="fil0" points="74.08,26.89 73.92,26.77 "/>
   <polygon class="fil0" points="200.63,2.94 200.5,3.06 "/>
   <polygon class="fil0" points="179.39,26.77 179.25,26.89 "/>
   <polygon class="fil0" points="200.5,3.06 200.37,3.18 "/>
   <polygon class="fil0" points="32.5,26.89 32.36,27.01 "/>
   <polygon class="fil0" points="67.62,3.3 67.46,3.18 "/>
   <polygon class="fil0" points="152.38,27.01 152.25,26.89 "/>
   <polygon class="fil0" points="179.25,26.89 179.11,27.01 "/>
   <polygon class="fil0" points="192.07,26.89 191.9,27.01 "/>
   <polygon class="fil0" points="192.42,27.01 192.26,26.89 "/>
   <polygon class="fil0" points="74.43,27.36 74.28,27.25 "/>
   <polygon class="fil0" points="164.22,27.36 164.08,27.25 "/>
   <polygon class="fil0" points="164.34,27.48 164.22,27.36 "/>
   <polygon class="fil0" points="166.45,3.55 166.33,3.4 "/>
   <polygon class="fil0" points="172.34,3.53 172.18,3.41 "/>
   <polygon class="fil0" points="185.12,3.53 184.98,3.41 "/>
   <polygon class="fil0" points="31.93,27.6 31.77,27.71 "/>
   <polygon class="fil0" points="192.98,27.71 192.85,27.6 "/>
   <polygon class="fil0" points="74.79,27.83 74.63,27.71 "/>
   <polygon class="fil0" points="185.26,3.65 185.12,3.53 "/>
   <polygon class="fil0" points="200.16,3.53 200.03,3.65 "/>
   <polygon class="fil0" points="212.38,3.53 212.22,3.65 "/>
   <polygon class="fil0" points="67.97,3.76 67.82,3.65 "/>
   <polygon class="fil0" points="200.03,3.65 199.89,3.76 "/>
   <polygon class="fil0" points="153.21,27.95 153.07,27.83 "/>
   <polygon class="fil0" points="178.43,27.83 178.29,27.95 "/>
   <polygon class="fil0" points="191.22,27.83 191.09,27.95 "/>
   <polygon class="fil0" points="166.92,3.88 166.8,3.75 "/>
   <polygon class="fil0" points="167.04,4.02 166.92,3.88 "/>
   <polygon class="fil0" points="68.33,4.24 68.17,4.12 "/>
   <polygon class="fil0" points="173.05,4.35 172.89,4.24 "/>
   <polygon class="fil0" points="165.04,28.3 164.91,28.18 "/>
   <polygon class="fil0" points="199.58,4.24 199.44,4.35 "/>
   <polygon class="fil0" points="75.25,28.42 75.09,28.3 "/>
   <polygon class="fil0" points="165.16,28.42 165.04,28.3 "/>
   <polygon class="fil0" points="12.92,28.48 12.76,28.19 "/>
   <polygon class="fil0" points="211.78,4.24 211.65,4.35 "/>
   <polygon class="fil0" points="193.69,28.54 193.55,28.42 "/>
   <polygon class="fil0" points="153.77,28.65 153.64,28.54 "/>
   <polygon class="fil0" points="177.86,28.54 177.72,28.65 "/>
   <polygon class="fil0" points="185.96,4.47 185.82,4.35 "/>
   <polygon class="fil0" points="199.44,4.35 199.31,4.47 "/>
   <polygon class="fil0" points="211.65,4.35 211.51,4.47 "/>
   <polygon class="fil0" points="153.89,28.77 153.77,28.65 "/>
   <polygon class="fil0" points="68.66,4.7 68.53,4.59 "/>
   <polygon class="fil0" points="190.52,28.65 190.38,28.77 "/>
   <polygon class="fil0" points="13.03,29 12.88,28.69 "/>
   <polygon class="fil0" points="68.79,4.82 68.66,4.7 "/>
   <polygon class="fil0" points="75.6,28.89 75.45,28.77 "/>
   <polygon class="fil0" points="154.03,28.89 153.89,28.77 "/>
   <polygon class="fil0" points="24.29,0 23.45,0.13 "/>
   <polygon class="fil0" points="173.61,5.06 173.48,4.94 "/>
   <polygon class="fil0" points="198.99,4.94 198.83,5.06 "/>
   <polygon class="fil0" points="165.87,29.24 165.73,29.12 "/>
   <polygon class="fil0" points="13.12,29.41 13.03,29.18 "/>
   <polygon class="fil0" points="173.75,5.17 173.61,5.06 "/>
   <polygon class="fil0" points="75.96,29.36 75.8,29.24 "/>
   <polygon class="fil0" points="165.98,29.36 165.87,29.24 "/>
   <polygon class="fil0" points="194.39,29.36 194.26,29.24 "/>
   <polygon class="fil0" points="211.08,5.06 210.95,5.17 "/>
   <polygon class="fil0" points="69.15,5.29 68.99,5.17 "/>
   <polygon class="fil0" points="168.33,5.29 168.21,5.17 "/>
   <polygon class="fil0" points="194.53,29.48 194.39,29.36 "/>
   <polygon class="fil0" points="154.59,29.59 154.46,29.48 "/>
   <polygon class="fil0" points="186.66,5.29 186.53,5.17 "/>
   <polygon class="fil0" points="189.81,29.47 189.68,29.59 "/>
   <polygon class="fil0" points="210.95,5.17 210.81,5.29 "/>
   <polygon class="fil0" points="13.23,29.77 13.14,29.54 "/>
   <polygon class="fil0" points="49.07,29.59 48.91,29.71 "/>
   <polygon class="fil0" points="154.71,29.71 154.59,29.59 "/>
   <polygon class="fil0" points="176.9,29.59 176.76,29.71 "/>
   <polygon class="fil0" points="168.45,5.41 168.33,5.29 "/>
   <polygon class="fil0" points="76.29,29.83 76.16,29.71 "/>
   <polygon class="fil0" points="154.85,29.83 154.71,29.71 "/>
   <polygon class="fil0" points="44.01,5.54 43.89,5.39 "/>
   <polygon class="fil0" points="29.68,29.81 29.57,29.95 "/>
   <polygon class="fil0" points="76.42,29.95 76.29,29.83 "/>
   <polygon class="fil0" points="7.38,5.51 7.26,5.66 "/>
   <polygon class="fil0" points="13.35,30.1 13.26,29.9 "/>
   <polygon class="fil0" points="29.57,29.95 29.45,30.06 "/>
   <polygon class="fil0" points="198.52,5.53 198.38,5.64 "/>
   <polygon class="fil0" points="166.69,30.18 166.55,30.06 "/>
   <polygon class="fil0" points="195.1,30.18 194.96,30.06 "/>
   <polygon class="fil0" points="44.36,5.78 44.24,5.63 "/>
   <polygon class="fil0" points="48.61,30.18 48.45,30.3 "/>
   <polygon class="fil0" points="166.8,30.3 166.69,30.18 "/>
   <polygon class="fil0" points="69.5,5.76 69.35,5.64 "/>
   <polygon class="fil0" points="195.23,30.3 195.1,30.18 "/>
   <polygon class="fil0" points="198.38,5.64 198.25,5.76 "/>
   <polygon class="fil0" points="76.78,30.41 76.62,30.3 "/>
   <polygon class="fil0" points="29.2,5.75 28.86,5.89 "/>
   <polygon class="fil0" points="32.01,5.89 31.7,5.74 "/>
   <polygon class="fil0" points="176.33,30.3 176.2,30.41 "/>
   <polygon class="fil0" points="189.11,30.3 188.98,30.41 "/>
   <polygon class="fil0" points="174.32,5.88 174.18,5.76 "/>
   <polygon class="fil0" points="3.15,30.53 3.01,30.41 "/>
   <polygon class="fil0" points="28.51,5.87 28.2,6.02 "/>
   <polygon class="fil0" points="32.59,6.02 32.27,5.87 "/>
   <polygon class="fil0" points="155.42,30.53 155.28,30.41 "/>
   <polygon class="fil0" points="168.94,6 168.78,5.88 "/>
   <polygon class="fil0" points="3.27,30.65 3.15,30.53 "/>
   <polygon class="fil0" points="28.86,30.53 28.74,30.67 "/>
   <polygon class="fil0" points="155.53,30.65 155.42,30.53 "/>
   <polygon class="fil0" points="3.4,30.77 3.27,30.65 "/>
   <polygon class="fil0" points="174.45,6 174.32,5.88 "/>
   <polygon class="fil0" points="155.67,30.77 155.53,30.65 "/>
   <polygon class="fil0" points="77.13,30.88 76.98,30.77 "/>
   <polygon class="fil0" points="210.38,5.88 210.22,6 "/>
   <polygon class="fil0" points="28.39,30.87 28.27,31 "/>
   <polygon class="fil0" points="27.98,6.01 27.76,6.1 "/>
   <polygon class="fil0" points="32.96,6.13 32.75,5.98 "/>
   <polygon class="fil0" points="28.27,31 28.16,31.13 "/>
   <polygon class="fil0" points="47.9,31 47.75,31.12 "/>
   <polygon class="fil0" points="167.51,31.12 167.37,31 "/>
   <polygon class="fil0" points="44.83,6.11 44.71,5.98 "/>
   <polygon class="fil0" points="195.94,31.12 195.8,31 "/>
   <polygon class="fil0" points="187.37,6.11 187.23,6 "/>
   <polygon class="fil0" points="27.62,6.13 27.4,6.22 "/>
   <polygon class="fil0" points="188.41,31.12 188.27,31.24 "/>
   <polygon class="fil0" points="33.32,6.24 33.11,6.1 "/>
   <polygon class="fil0" points="27.93,31.22 27.8,31.37 "/>
   <polygon class="fil0" points="77.49,31.35 77.33,31.24 "/>
   <polygon class="fil0" points="69.86,6.23 69.7,6.11 "/>
   <polygon class="fil0" points="6.44,6.21 6.32,6.35 "/>
   <polygon class="fil0" points="175.37,31.35 175.24,31.47 "/>
   <polygon class="fil0" points="27.22,6.22 27,6.37 "/>
   <polygon class="fil0" points="156.36,31.59 156.24,31.47 "/>
   <polygon class="fil0" points="197.94,6.23 197.78,6.35 "/>
   <polygon class="fil0" points="14.32,31.71 14.17,31.59 "/>
   <polygon class="fil0" points="156.49,31.71 156.36,31.59 "/>
   <polygon class="fil0" points="26.9,6.35 26.7,6.45 "/>
   <polygon class="fil0" points="4.33,31.82 4.21,31.71 "/>
   <polygon class="fil0" points="169.29,6.47 169.14,6.35 "/>
   <polygon class="fil0" points="196.51,31.82 196.37,31.71 "/>
   <polygon class="fil0" points="45.41,6.58 45.3,6.45 "/>
   <polygon class="fil0" points="4.44,31.94 4.33,31.82 "/>
   <polygon class="fil0" points="77.95,31.94 77.79,31.82 "/>
   <polygon class="fil0" points="187.84,31.82 187.7,31.94 "/>
   <polygon class="fil0" points="196.64,31.94 196.51,31.82 "/>
   <polygon class="fil0" points="4.56,32.06 4.44,31.94 "/>
   <polygon class="fil0" points="45.53,6.72 45.41,6.58 "/>
   <polygon class="fil0" points="168.33,32.06 168.19,31.94 "/>
   <polygon class="fil0" points="187.7,31.94 187.57,32.06 "/>
   <polygon class="fil0" points="4.68,32.18 4.56,32.06 "/>
   <polygon class="fil0" points="168.47,32.18 168.33,32.06 "/>
   <polygon class="fil0" points="174.81,32.06 174.67,32.18 "/>
   <polygon class="fil0" points="175.02,6.7 174.89,6.58 "/>
   <polygon class="fil0" points="209.79,6.58 209.65,6.7 "/>
   <polygon class="fil0" points="14.89,32.41 14.75,32.29 "/>
   <polygon class="fil0" points="70.32,6.82 70.16,6.7 "/>
   <polygon class="fil0" points="78.3,32.41 78.15,32.29 "/>
   <polygon class="fil0" points="157.06,32.41 156.92,32.29 "/>
   <polygon class="fil0" points="175.16,6.82 175.02,6.7 "/>
   <polygon class="fil0" points="15.02,32.53 14.89,32.41 "/>
   <polygon class="fil0" points="209.65,6.7 209.52,6.82 "/>
   <polygon class="fil0" points="188.07,6.94 187.94,6.82 "/>
   <polygon class="fil0" points="197.21,32.65 197.07,32.53 "/>
   <polygon class="fil0" points="15.24,32.78 15.13,32.63 "/>
   <polygon class="fil0" points="197.46,6.82 197.33,6.94 "/>
   <polygon class="fil0" points="197.33,6.94 197.19,7.05 "/>
   <polygon class="fil0" points="197.35,32.76 197.21,32.65 "/>
   <polygon class="fil0" points="78.66,32.88 78.51,32.76 "/>
   <polygon class="fil0" points="187,32.76 186.86,32.88 "/>
   <polygon class="fil0" points="46,32.86 45.88,33 "/>
   <polygon class="fil0" points="169.15,33 169.01,32.88 "/>
   <polygon class="fil0" points="15.71,33.13 15.59,32.98 "/>
   <polygon class="fil0" points="45.88,33 45.77,33.12 "/>
   <polygon class="fil0" points="34.97,7.19 34.85,7.03 "/>
   <polygon class="fil0" points="173.99,33 173.85,33.12 "/>
   <polygon class="fil0" points="70.67,7.29 70.52,7.17 "/>
   <polygon class="fil0" points="175.73,7.52 175.59,7.4 "/>
   <polygon class="fil0" points="173.85,33.12 173.71,33.23 "/>
   <polygon class="fil0" points="209.09,7.4 208.95,7.52 "/>
   <polygon class="fil0" points="175.86,7.64 175.73,7.52 "/>
   <polygon class="fil0" points="196.88,7.52 196.72,7.64 "/>
   <polygon class="fil0" points="78.99,33.35 78.86,33.23 "/>
   <polygon class="fil0" points="157.88,33.35 157.74,33.23 "/>
   <polygon class="fil0" points="208.95,7.52 208.82,7.64 "/>
   <polygon class="fil0" points="46.71,7.76 46.59,7.64 "/>
   <polygon class="fil0" points="79.12,33.47 78.99,33.35 "/>
   <polygon class="fil0" points="71.03,7.76 70.87,7.64 "/>
   <polygon class="fil0" points="188.77,7.76 188.64,7.64 "/>
   <polygon class="fil0" points="46.82,7.89 46.71,7.76 "/>
   <polygon class="fil0" points="71.36,8.23 71.23,8.11 "/>
   <polygon class="fil0" points="23.86,33.48 23.66,33.58 "/>
   <polygon class="fil0" points="196.4,8.11 196.27,8.23 "/>
   <polygon class="fil0" points="198.05,33.58 197.91,33.47 "/>
   <polygon class="fil0" points="45.18,33.57 45.06,33.7 "/>
   <polygon class="fil0" points="186.29,33.58 186.16,33.7 "/>
   <polygon class="fil0" points="17.04,33.81 16.84,33.72 "/>
   <polygon class="fil0" points="23.23,33.7 22.98,33.83 "/>
   <polygon class="fil0" points="208.5,8.11 208.36,8.23 "/>
   <polygon class="fil0" points="47.29,8.34 47.16,8.23 "/>
   <polygon class="fil0" points="6.67,33.94 6.56,33.8 "/>
   <polygon class="fil0" points="17.34,33.96 17.16,33.79 "/>
   <polygon class="fil0" points="22.77,33.81 22.55,33.95 "/>
   <polygon class="fil0" points="79.48,33.94 79.32,33.82 "/>
   <polygon class="fil0" points="71.49,8.34 71.36,8.23 "/>
   <polygon class="fil0" points="173.28,33.82 173.14,33.94 "/>
   <polygon class="fil0" points="176.43,8.34 176.29,8.23 "/>
   <polygon class="fil0" points="196.27,8.23 196.14,8.34 "/>
   <polygon class="fil0" points="22.34,33.95 22.12,34.04 "/>
   <polygon class="fil0" points="170.11,34.05 169.97,33.94 "/>
   <polygon class="fil0" points="173.14,33.94 173.03,34.05 "/>
   <polygon class="fil0" points="18.18,34.18 17.85,34.04 "/>
   <polygon class="fil0" points="21.81,34.04 21.48,34.18 "/>
   <polygon class="fil0" points="44.59,34.04 44.47,34.19 "/>
   <polygon class="fil0" points="173.03,34.05 172.89,34.17 "/>
   <polygon class="fil0" points="47.41,8.46 47.29,8.34 "/>
   <polygon class="fil0" points="176.57,8.46 176.43,8.34 "/>
   <polygon class="fil0" points="189.48,8.58 189.34,8.46 "/>
   <polygon class="fil0" points="71.85,8.81 71.69,8.7 "/>
   <polygon class="fil0" points="79.83,34.41 79.68,34.29 "/>
   <polygon class="fil0" points="22.29,8.8 22.17,8.95 "/>
   <polygon class="fil0" points="157.8,8.92 157.6,8.83 "/>
   <polygon class="fil0" points="198.75,34.41 198.62,34.29 "/>
   <polygon class="fil0" points="195.82,8.81 195.68,8.93 "/>
   <polygon class="fil0" points="185.59,34.41 185.45,34.52 "/>
   <polygon class="fil0" points="3.64,8.93 3.49,9.05 "/>
   <polygon class="fil0" points="158.17,9.03 157.95,8.94 "/>
   <polygon class="fil0" points="195.68,8.93 195.55,9.05 "/>
   <polygon class="fil0" points="43.77,34.63 43.65,34.78 "/>
   <polygon class="fil0" points="207.79,8.93 207.66,9.05 "/>
   <polygon class="fil0" points="80.16,34.88 80.03,34.76 "/>
   <polygon class="fil0" points="207.66,9.05 207.52,9.17 "/>
   <polygon class="fil0" points="172.46,34.76 172.32,34.88 "/>
   <polygon class="fil0" points="72.2,9.28 72.05,9.16 "/>
   <polygon class="fil0" points="170.7,9.25 170.54,9.07 "/>
   <polygon class="fil0" points="80.29,34.99 80.16,34.88 "/>
   <polygon class="fil0" points="177.27,9.28 177.13,9.17 "/>
   <polygon class="fil0" points="172.32,34.88 172.18,34.99 "/>
   <polygon class="fil0" points="8.32,35.13 8.2,34.98 "/>
   <polygon class="fil0" points="195.8,31 195.67,30.88 "/>
   <polygon class="fil0" points="190.18,9.4 190.05,9.28 "/>
   <polygon class="fil0" points="159.53,35.23 159.39,35.11 "/>
   <polygon class="fil0" points="185.02,35.11 184.88,35.23 "/>
   <polygon class="fil0" points="199.46,35.23 199.32,35.11 "/>
   <polygon class="fil0" points="170.78,9.57 170.69,9.36 "/>
   <polygon class="fil0" points="8.67,35.36 8.55,35.22 "/>
   <polygon class="fil0" points="159.66,35.34 159.53,35.23 "/>
   <polygon class="fil0" points="184.88,35.23 184.75,35.35 "/>
   <polygon class="fil0" points="195.24,9.52 195.08,9.63 "/>
   <polygon class="fil0" points="21.23,9.61 21.11,9.77 "/>
   <polygon class="fil0" points="80.65,35.46 80.5,35.34 "/>
   <polygon class="fil0" points="72.56,9.75 72.4,9.63 "/>
   <polygon class="fil0" points="159.41,9.78 159.29,9.62 "/>
   <polygon class="fil0" points="2.92,9.75 2.78,9.87 "/>
   <polygon class="fil0" points="171.5,35.7 171.36,35.58 "/>
   <polygon class="fil0" points="171.75,35.58 171.62,35.7 "/>
   <polygon class="fil0" points="207.09,9.75 206.95,9.87 "/>
   <polygon class="fil0" points="170.92,10 170.79,9.74 "/>
   <polygon class="fil0" points="199.91,35.82 199.78,35.7 "/>
   <polygon class="fil0" points="81,35.93 80.85,35.82 "/>
   <polygon class="fil0" points="200.03,35.93 199.91,35.82 "/>
   <polygon class="fil0" points="190.64,9.99 190.5,9.87 "/>
   <polygon class="fil0" points="206.95,9.87 206.82,9.99 "/>
   <polygon class="fil0" points="48.84,10.1 48.68,9.99 "/>
   <polygon class="fil0" points="200.16,36.05 200.03,35.93 "/>
   <polygon class="fil0" points="177.97,10.1 177.84,9.99 "/>
   <polygon class="fil0" points="194.76,10.11 194.63,10.22 "/>
   <polygon class="fil0" points="2.58,10.22 2.45,10.34 "/>
   <polygon class="fil0" points="160.35,36.17 160.21,36.05 "/>
   <polygon class="fil0" points="184.18,36.05 184.04,36.17 "/>
   <polygon class="fil0" points="37.18,10.39 37.09,10.18 "/>
   <polygon class="fil0" points="160.48,36.28 160.35,36.17 "/>
   <polygon class="fil0" points="73.02,10.34 72.86,10.22 "/>
   <polygon class="fil0" points="81.36,36.4 81.21,36.28 "/>
   <polygon class="fil0" points="194.63,10.22 194.5,10.34 "/>
   <polygon class="fil0" points="160.13,10.46 159.97,10.34 "/>
   <polygon class="fil0" points="171.04,10.46 170.91,10.21 "/>
   <polygon class="fil0" points="200.62,36.64 200.48,36.52 "/>
   <polygon class="fil0" points="49.19,10.57 49.04,10.45 "/>
   <polygon class="fil0" points="206.5,10.46 206.37,10.57 "/>
   <polygon class="fil0" points="37.3,10.74 37.2,10.54 "/>
   <polygon class="fil0" points="213.55,36.76 213.41,36.64 "/>
   <polygon class="fil0" points="20.06,10.69 19.94,10.81 "/>
   <polygon class="fil0" points="81.69,36.87 81.56,36.75 "/>
   <polygon class="fil0" points="73.37,10.81 73.22,10.69 "/>
   <polygon class="fil0" points="178.54,10.81 178.43,10.69 "/>
   <polygon class="fil0" points="191.34,10.81 191.21,10.69 "/>
   <polygon class="fil0" points="81.82,36.99 81.69,36.87 "/>
   <polygon class="fil0" points="183.47,36.87 183.34,36.99 "/>
   <polygon class="fil0" points="19.94,10.81 19.82,10.93 "/>
   <polygon class="fil0" points="178.68,10.93 178.54,10.81 "/>
   <polygon class="fil0" points="194.18,10.81 194.02,10.93 "/>
   <polygon class="fil0" points="19.82,10.93 19.7,11.04 "/>
   <polygon class="fil0" points="171.15,11.04 171.01,10.7 "/>
   <polygon class="fil0" points="161.31,37.22 161.17,37.11 "/>
   <polygon class="fil0" points="19.7,11.04 19.59,11.16 "/>
   <polygon class="fil0" points="38.88,37.35 38.69,37.45 "/>
   <polygon class="fil0" points="82.18,37.46 82.02,37.34 "/>
   <polygon class="fil0" points="201.32,37.46 201.18,37.34 "/>
   <polygon class="fil0" points="214.13,37.46 214,37.34 "/>
   <polygon class="fil0" points="37.43,11.18 37.3,10.93 "/>
   <polygon class="fil0" points="73.73,11.28 73.57,11.16 "/>
   <polygon class="fil0" points="205.8,11.28 205.66,11.4 "/>
   <polygon class="fil0" points="193.7,11.4 193.57,11.51 "/>
   <polygon class="fil0" points="205.66,11.4 205.52,11.51 "/>
   <polygon class="fil0" points="182.91,37.58 182.77,37.69 "/>
   <polygon class="fil0" points="13.64,37.8 13.44,37.71 "/>
   <polygon class="fil0" points="182.77,37.69 182.63,37.81 "/>
   <polygon class="fil0" points="13.92,37.95 13.75,37.78 "/>
   <polygon class="fil0" points="37.71,37.82 37.51,37.92 "/>
   <polygon class="fil0" points="82.53,37.93 82.38,37.81 "/>
   <polygon class="fil0" points="161.87,37.93 161.74,37.81 "/>
   <polygon class="fil0" points="14.23,38.03 14.03,37.94 "/>
   <polygon class="fil0" points="161.99,38.05 161.87,37.93 "/>
   <polygon class="fil0" points="192.05,11.63 191.91,11.51 "/>
   <polygon class="fil0" points="14.58,38.15 14.37,38.06 "/>
   <polygon class="fil0" points="37.07,38.03 36.88,38.19 "/>
   <polygon class="fil0" points="162.13,38.16 161.99,38.05 "/>
   <polygon class="fil0" points="193.57,11.51 193.44,11.63 "/>
   <polygon class="fil0" points="14.93,38.27 14.72,38.18 "/>
   <polygon class="fil0" points="36.76,38.17 36.55,38.26 "/>
   <polygon class="fil0" points="202.02,38.28 201.89,38.16 "/>
   <polygon class="fil0" points="15.23,38.42 15.04,38.26 "/>
   <polygon class="fil0" points="36.42,38.29 36.21,38.38 "/>
   <polygon class="fil0" points="82.86,38.4 82.73,38.28 "/>
   <polygon class="fil0" points="74.06,11.75 73.93,11.63 "/>
   <polygon class="fil0" points="15.6,38.52 15.38,38.38 "/>
   <polygon class="fil0" points="36.04,38.39 35.82,38.53 "/>
   <polygon class="fil0" points="82.99,38.51 82.86,38.4 "/>
   <polygon class="fil0" points="182.2,38.4 182.06,38.51 "/>
   <polygon class="fil0" points="16.01,38.62 15.77,38.53 "/>
   <polygon class="fil0" points="35.67,38.51 35.44,38.64 "/>
   <polygon class="fil0" points="182.06,38.51 181.93,38.63 "/>
   <polygon class="fil0" points="16.41,38.76 16.18,38.63 "/>
   <polygon class="fil0" points="35.26,38.65 35.03,38.74 "/>
   <polygon class="fil0" points="171.28,11.85 171.13,11.41 "/>
   <polygon class="fil0" points="16.84,38.9 16.58,38.72 "/>
   <polygon class="fil0" points="34.86,38.74 34.61,38.87 "/>
   <polygon class="fil0" points="74.19,11.87 74.06,11.75 "/>
   <polygon class="fil0" points="160.92,11.91 160.83,11.69 "/>
   <polygon class="fil0" points="17.26,38.99 17.01,38.86 "/>
   <polygon class="fil0" points="34.39,38.86 34.16,38.99 "/>
   <polygon class="fil0" points="161.04,12.27 160.94,12.06 "/>
   <polygon class="fil0" points="193.12,12.1 192.96,12.22 "/>
   <polygon class="fil0" points="74.54,12.34 74.39,12.22 "/>
   <polygon class="fil0" points="204.96,12.22 204.82,12.34 "/>
   <polygon class="fil0" points="192.79,12.45 192.61,12.34 "/>
   <polygon class="fil0" points="18.43,12.45 18.27,12.57 "/>
   <polygon class="fil0" points="17.71,39.11 17.48,38.98 "/>
   <polygon class="fil0" points="33.96,39 33.73,39.09 "/>
   <polygon class="fil0" points="18.26,39.24 17.97,39.08 "/>
   <polygon class="fil0" points="33.46,39.1 33.19,39.22 "/>
   <polygon class="fil0" points="18.83,39.36 18.54,39.2 "/>
   <polygon class="fil0" points="32.93,39.2 32.64,39.36 "/>
   <polygon class="fil0" points="19.49,39.45 19.18,39.35 "/>
   <polygon class="fil0" points="32.37,39.33 32.02,39.46 "/>
   <polygon class="fil0" points="20.11,39.56 19.79,39.46 "/>
   <polygon class="fil0" points="31.65,39.43 31.25,39.6 "/>
   <polygon class="fil0" points="21.07,39.72 20.56,39.55 "/>
   <polygon class="fil0" points="30.94,39.56 30.49,39.7 "/>
   <polygon class="fil0" points="29.95,39.69 29.53,39.81 "/>
   <polygon class="fil0" points="23.03,39.92 22.59,39.81 "/>
   <polygon class="fil0" points="29.06,39.79 28.5,39.94 "/>
  </g>
 </g>
</svg>
