<?xml version="1.0" encoding="UTF-8"?>
<!DOCTYPE svg PUBLIC "-//W3C//DTD SVG 1.1//EN" "http://www.w3.org/Graphics/SVG/1.1/DTD/svg11.dtd">
<!-- Creator: CorelDRAW -->
<svg xmlns="http://www.w3.org/2000/svg" xml:space="preserve" width="224px" height="40px" version="1.1" style="shape-rendering:geometricPrecision; text-rendering:geometricPrecision; image-rendering:optimizeQuality; fill-rule:evenodd; clip-rule:evenodd"
viewBox="0 0 224 40.07"
 xmlns:xlink="http://www.w3.org/1999/xlink"
 xmlns:xodm="http://www.corel.com/coreldraw/odm/2003">
 <defs>
  <style type="text/css">
   <![CDATA[
    .fil0 {fill:black;fill-rule:nonzero}
    .fil1 {fill:#333333;fill-rule:nonzero}
    .fil3 {fill:white;fill-rule:nonzero}
    .fil2 {fill:white;fill-rule:nonzero}
   ]]>
  </style>
 </defs>
 <g id="Layer_x0020_1">
  <metadata id="CorelCorpID_0Corel-Layer"/>
  <path class="fil0" d="M4.77 39.55c-2.46,0 -4.49,-2.02 -4.49,-4.54l0 -29.98c0,-2.51 2,-4.54 4.49,-4.54l47.2 0c2.49,0 4.49,2.03 4.49,4.54l0 29.98c0,2.52 -2,4.54 -4.49,4.54l-47.2 0z"/>
  <path class="fil1" d="M51.97 1.01c2.19,0 4,1.81 4,4.05l0 29.98c0,2.21 -1.78,4.02 -4,4.02l-47.2 0c-2.19,0 -3.97,-1.81 -3.97,-4.02l0 -30.01c0,-2.24 1.78,-4.05 3.97,-4.05l47.2 0 0 0.03zm0 -1.01l-47.2 0c-2.73,0 -4.97,2.27 -4.97,5.03l0 29.98c0,2.79 2.24,5.03 4.97,5.03l47.2 0c2.76,0 4.97,-2.27 4.97,-5.03l0 -29.98c0.03,-2.76 -2.21,-5.03 -4.97,-5.03z"/>
  <path class="fil2" d="M41.35 19.21c-0.7,0.93 -1.11,2.14 -1.11,3.48 0,1.23 0.41,2.33 1.11,3.23 0.71,-0.9 1.11,-2.03 1.11,-3.23 0,-1.37 -0.4,-2.55 -1.11,-3.48z"/>
  <path class="fil2" d="M41.51 28.14c-2.99,0 -5.37,-2.41 -5.37,-5.45 0,-3.04 2.38,-5.5 5.24,-5.5 3.19,0 5.51,2.35 5.51,5.58 0,2.96 -2.43,5.37 -5.38,5.37zm6.27 -11.64c0.25,-0.08 1.52,-0.52 2.08,-0.74l0 -3.58c-3.29,1.31 -4.86,1.61 -8.45,1.61 -2.62,0 -5.08,1.24 -6.79,3.4 -1.29,1.56 -1.83,3.34 -1.83,5.83l0 16.01 3.35 0 0 -9.44c1.7,1.31 3.35,1.91 5.48,1.91 4.79,0 8.62,-3.97 8.62,-8.92 -0.02,-2.38 -0.94,-4.52 -2.46,-6.08z"/>
  <path class="fil2" d="M15.41 19.21c0.71,0.93 1.11,2.14 1.11,3.48 0,1.23 -0.4,2.33 -1.11,3.23 -0.7,-0.9 -1.1,-2.03 -1.1,-3.23 -0.03,-1.37 0.37,-2.55 1.1,-3.48z"/>
  <path class="fil2" d="M9.87 22.77c0,-3.23 2.33,-5.58 5.52,-5.58 2.86,0 5.21,2.46 5.21,5.5 0,3.04 -2.38,5.45 -5.38,5.45 -2.91,0 -5.35,-2.41 -5.35,-5.37zm-3.32 -0.19c0,4.95 3.84,8.92 8.62,8.92 2.13,0 3.78,-0.57 5.46,-1.91l0 9.44 3.35 0 0 -16.01c0,-2.49 -0.54,-4.27 -1.84,-5.83 -1.7,-2.16 -4.16,-3.4 -6.78,-3.4 -3.59,0 -5.19,-0.3 -8.46,-1.61l0 3.58c0.57,0.22 1.84,0.66 2.08,0.74 -1.51,1.56 -2.43,3.7 -2.43,6.08z"/>
  <path class="fil3" d="M218.8 1.01c2.19,0 3.97,1.81 3.97,4.05l0 29.98c0,2.21 -1.78,4.02 -3.97,4.02l-153.59 0c-2.19,0 -3.97,-1.81 -3.97,-4.02l0 -30.01c0,-2.24 1.78,-4.05 3.97,-4.05l153.59 0 0 0.03zm0 -1.01l-153.59 0c-2.75,0 -4.97,2.27 -4.97,5.03l0 29.98c0,2.79 2.24,5.03 4.97,5.03l153.59 0c2.75,0 4.97,-2.27 4.97,-5.03l0 -29.98c0.03,-2.76 -2.22,-5.03 -4.97,-5.03z"/>
  <path class="fil2" d="M179.51 22.61c0,3.01 -2.4,5.47 -5.4,5.47 -2.98,0 -5.41,-2.43 -5.41,-5.47 0,-3.04 2.41,-5.48 5.41,-5.48 2.97,0.03 5.4,2.47 5.4,5.48zm3.38 0c0,-4.9 -3.92,-8.9 -8.78,-8.9 -4.84,0 -8.79,3.97 -8.79,8.9 0,4.9 3.92,8.89 8.79,8.89 4.83,0 8.78,-3.97 8.78,-8.89z"/>
  <path class="fil2" d="M130.25 22.58c0,-3.04 -2.38,-5.45 -5.38,-5.45 -2.94,0 -5.37,2.41 -5.37,5.34 0,3.23 2.32,5.59 5.51,5.59 2.86,0.02 5.24,-2.44 5.24,-5.48zm3.32 -21.73l0 21.4c0,2.49 -0.54,4.27 -1.83,5.83 -1.7,2.17 -4.16,3.4 -6.79,3.4 -4.89,0 -8.8,-3.86 -8.8,-8.79 0,-4.95 3.83,-8.92 8.62,-8.92 2.13,0 3.78,0.6 5.45,1.91l0 -14.83 3.35 0z"/>
  <path class="fil2" d="M203.23 22.61c0,3.04 2.38,5.45 5.38,5.45 2.95,0 5.38,-2.41 5.38,-5.34 0,-3.23 -2.33,-5.59 -5.52,-5.59 -2.86,-0.02 -5.24,2.44 -5.24,5.48zm-3.32 16.53l0 -16.18c0,-2.49 0.54,-4.27 1.84,-5.83 1.7,-2.16 4.16,-3.39 6.78,-3.39 4.89,0 8.81,3.89 8.81,8.79 0,4.95 -3.84,8.92 -8.62,8.92 -2.14,0 -3.78,-0.58 -5.49,-1.92l0 9.61 -3.32 0z"/>
  <path class="fil2" d="M151.08 22.64c0,-3.04 -2.37,-5.51 -5.24,-5.51 -3.19,0 -5.51,2.36 -5.51,5.59 0,2.93 2.43,5.34 5.38,5.34 3,0.02 5.37,-2.39 5.37,-5.42zm3.35 0.35l0 7.47c-0.02,4.82 -3.89,8.74 -8.67,8.74 -0.59,0 -1.16,-0.06 -1.7,-0.17l0 -3.5c0.54,0.19 1.11,0.3 1.7,0.3 2.95,0 5.32,-2.41 5.32,-5.37l0 -0.9c-1.7,1.31 -3.35,1.92 -5.48,1.92 -4.78,0 -8.62,-3.97 -8.62,-8.93 0,-4.9 3.92,-8.78 8.81,-8.78 2.62,0 5.08,1.23 6.78,3.39 1.32,1.56 1.86,3.31 1.86,5.83z"/>
  <path class="fil2" d="M90.58 22.64c0,2.98 2.38,5.39 5.27,5.39 2.92,0 5.33,-2.41 5.33,-5.34 0,-3.09 -2.33,-5.5 -5.43,-5.5 -2.81,0 -5.17,2.46 -5.17,5.45zm12.11 8.34c-0.24,-0.63 -0.73,-2.1 -0.73,-2.1 -1.95,1.86 -3.68,2.6 -6.05,2.6 -4.84,0 -8.76,-3.92 -8.76,-8.84 0,-4.96 3.92,-8.87 8.87,-8.87 4.94,0 8.62,3.97 8.62,9.28 -0.06,2.79 0.29,4.59 1.59,7.93l-3.54 0z"/>
  <path class="fil2" d="M76.4 28.08c-3,0 -5.38,-2.41 -5.38,-5.45 0,-3.03 2.38,-5.5 5.24,-5.5 3.19,0 5.52,2.36 5.52,5.59 0,2.95 -2.44,5.36 -5.38,5.36zm6.27 -11.63c0.24,-0.08 1.51,-0.52 2.08,-0.74l0 -3.56c-3.3,1.32 -4.87,1.62 -8.46,1.62 -2.62,0 -5.08,1.23 -6.78,3.39 -1.3,1.56 -1.84,3.34 -1.84,5.83l0 16.29 3.35 0 0 -9.72c1.7,1.31 3.35,1.92 5.46,1.92 4.78,0 8.62,-3.97 8.62,-8.93 0,-2.38 -0.92,-4.51 -2.43,-6.1z"/>
  <path class="fil2" d="M115.12 13.77l0 -0.83c-1.08,0.44 -2.19,0.85 -2.92,0.99 -1.16,0.22 -1.89,0.69 -2.7,1.56 -1.05,1.23 -1.35,2.25 -1.35,4.65l0 10.84 3.35 0 0 -10.84c0,-1.5 0.48,-2.43 1.38,-2.81 0,0 1.62,-0.58 2.27,-0.83l0 -2.71 -0.03 -0.02z"/>
  <path class="fil2" d="M164.32 13.77l0 -0.83c-1.08,0.44 -2.19,0.85 -2.92,0.99 -1.16,0.22 -1.89,0.69 -2.7,1.56 -1.05,1.23 -1.35,2.25 -1.35,4.65l0 10.84 3.35 0 0 -10.84c0,-1.5 0.49,-2.43 1.35,-2.81 0,0 1.65,-0.58 2.27,-0.83l0 -2.71 0 -0.02z"/>
  <path class="fil2" d="M185.4 25.95l0 -11.99 3.35 0 0 11.99c0,1.2 0.97,2.19 2.16,2.19 1.19,0 2.16,-0.99 2.16,-2.19l0 -11.99 3.33 0 0 11.99c0,3.06 -2.46,5.55 -5.49,5.55 -3.05,0 -5.51,-2.49 -5.51,-5.55z"/>
 </g>
</svg>
