<?xml version="1.0" encoding="UTF-8"?>
<!DOCTYPE svg PUBLIC "-//W3C//DTD SVG 1.1//EN" "http://www.w3.org/Graphics/SVG/1.1/DTD/svg11.dtd">
<!-- Creator: CorelDRAW -->
<svg xmlns="http://www.w3.org/2000/svg" xml:space="preserve" width="70px" height="40px" version="1.1" style="shape-rendering:geometricPrecision; text-rendering:geometricPrecision; image-rendering:optimizeQuality; fill-rule:evenodd; clip-rule:evenodd"
viewBox="0 0 70 40.16"
 xmlns:xlink="http://www.w3.org/1999/xlink"
 xmlns:xodm="http://www.corel.com/coreldraw/odm/2003">
 <defs>
  <style type="text/css">
   <![CDATA[
    .fil0 {fill:white}
   ]]>
  </style>
 </defs>
 <g id="Layer_x0020_1">
  <metadata id="CorelCorpID_0Corel-Layer"/>
  <g id="_3104161143616">
   <path class="fil0" d="M24.2 31.64c-1.75,-8 9.55,-10.21 11.11,-2.83 1.76,8.29 -9.54,9.94 -11.11,2.83zm2.85 -10.78c-12.96,3.66 -7.47,22.31 5.44,18.87 12.4,-3.29 8.05,-22.69 -5.44,-18.87z"/>
   <path class="fil0" d="M4.21 19.72l-0.12 -5.33c3.13,-0.13 7.25,-0.77 7.36,2.54 0.12,3.46 -4.27,2.94 -7.24,2.79zm-4.35 9.82l4.04 0.06 0.23 -6.04 3.34 -0.03c0.7,1.4 3.02,4.86 4.04,5.98l4.54 0.08c-1.02,-2.68 -3.34,-4.41 -4.14,-6.87 1.81,-1.04 3.04,-1.59 3.62,-4.05 2.24,-9.37 -10.76,-9 -15.66,-7.92l-0.01 18.79z"/>
   <path class="fil0" d="M20.03 11.01c-1.24,-8.66 10.18,-9.45 11.23,-2.12 0.49,3.46 -1.55,6.27 -4.4,6.78 -3.52,0.63 -6.4,-1.67 -6.83,-4.66zm4 -10.84c-13.31,2.37 -10.26,21.55 3.66,19.29 4.79,-0.78 8.98,-5.57 7.86,-11.55 -0.9,-4.84 -5.65,-8.79 -11.52,-7.74z"/>
   <path class="fil0" d="M65.26 25.37c-3.3,1.6 -5.74,0.18 -8.07,-1.36 -1.09,0.82 -1.71,1.66 -2.46,2.78 3.5,3.58 12.56,4.85 14.59,-0.71 3.25,-8.88 -9.12,-6.36 -9.78,-10.65 1.51,-2.62 5.13,-1.15 7.12,0.3 1.06,-0.76 1.6,-1.73 2.26,-2.88 -2.87,-4.06 -12.4,-3.43 -13.42,1.98 -1.12,5.96 4.12,6.37 7.7,7.49 1.8,0.56 2.4,0.8 2.06,3.05z"/>
   <path class="fil0" d="M37.95 14.43l5.76 0.01 0.07 15.14 4.18 -0.03 0 -15.14 5.78 -0.07 -0.01 -3.57c-2.08,-0.54 -13.01,-0.31 -15.74,-0.17l-0.04 3.83z"/>
  </g>
 </g>
</svg>
