<?xml version="1.0" encoding="UTF-8"?>
<!DOCTYPE svg PUBLIC "-//W3C//DTD SVG 1.1//EN" "http://www.w3.org/Graphics/SVG/1.1/DTD/svg11.dtd">
<!-- Creator: CorelDRAW -->
<svg xmlns="http://www.w3.org/2000/svg" xml:space="preserve" width="121px" height="40px" version="1.1" style="shape-rendering:geometricPrecision; text-rendering:geometricPrecision; image-rendering:optimizeQuality; fill-rule:evenodd; clip-rule:evenodd"
viewBox="0 0 121 40.03"
 xmlns:xlink="http://www.w3.org/1999/xlink"
 xmlns:xodm="http://www.corel.com/coreldraw/odm/2003">
 <defs>
  <style type="text/css">
   <![CDATA[
    .fil0 {fill:white}
   ]]>
  </style>
 </defs>
 <g id="Layer_x0020_1">
  <metadata id="CorelCorpID_0Corel-Layer"/>
  <g id="_2441212274688">
   <path class="fil0" d="M102.21 25.28c0.12,-0.53 0.35,-0.8 0.74,-1.13 0.37,-0.31 0.63,-0.6 1.12,-0.73 -0.09,1.1 -0.76,1.77 -1.86,1.86zm-38.28 -3.06l-0.14 0.13 0.14 -0.13zm0 0zm21.66 -1.33l-21.66 1.33zm21.66 -1.33zm-7.57 -0.4l7.57 0.4zm-7.57 -0.4zm-10.5 -0.4l10.5 0.4zm-10.5 -0.4c-2.41,3.6 -3.59,3.2 -2.49,1.9 0.26,-0.31 0.4,-0.48 0.66,-0.8 0.37,-0.44 1.13,-1.04 1.83,-1.1zm19.54 1.33c0.34,-0.65 0.22,-0.39 0.75,-0.84 0.44,-0.37 0.33,-0.47 0.97,-0.62 -0.36,0.69 -0.88,1.27 -1.72,1.46zm-9.04 -0.93c0.29,-0.43 0.6,-0.79 1.19,-0.93 -0.26,0.4 -0.67,0.79 -1.19,0.93zm-0.14 -2.12c0.15,-0.62 0.27,-1.29 0.46,-1.95l0.56 -1.29c0.29,-0.3 -0.23,-0.15 0.45,-0.22 -0.28,1.2 -0.64,2.85 -1.47,3.46zm-14.09 3.98c-0.11,0.49 -0.55,1.17 0.12,1.76 0.99,0.89 2.23,-1.08 2.62,-1.68l0.99 -1.54c0,1.59 -0.04,2.49 0.82,3.3 1.65,1.54 3.01,-0.02 4.99,-2 0.52,-0.52 1.74,-1.65 2.43,-1.83 -0.14,1.64 -0.53,1.17 -0.53,4.39 0.93,0.07 0.76,0.09 1.72,-0.14 0.14,-0.59 0.23,-1.26 0.14,-1.73 0.94,0.7 1.12,3.08 4.21,0.77 0.97,-0.73 3.16,-2.5 4.29,-2.76 -0.42,0.81 -1.13,2.53 -0.23,3.43 1.01,1 3.6,-0.98 4.6,-1.72l2.77 -1.75c0.31,-0.16 0.47,-0.25 0.79,-0.4 0.33,-0.16 0.56,-0.22 0.85,-0.36 0.87,0.59 -0.03,0.15 1.46,0.93 -0.22,0.33 -0.43,0.51 -0.7,0.9 -0.44,0.66 -0.72,1.48 -0.85,2.35 -0.12,0.72 0.09,0.87 0.35,1.27 1.02,0 0.97,-0.32 2.24,-1.34 1.41,-1.13 3.79,-2.59 5.43,-3.49l1.24 -0.62c0.27,0.57 0.66,1.7 0.66,2.53 -1.02,0.68 -2.66,1.51 -2.66,2.92 0.48,0.32 0.83,0.51 1.68,0.36 0.69,-0.13 1.13,-0.32 1.6,-0.67 1.14,-0.88 1.38,-1.21 1.38,-3.14l5.1 -2.08c0.63,-0.13 2.06,0.46 1.62,-0.51 -0.25,-0.56 -0.55,-0.15 -1.64,0.1 -0.59,0.13 -1.2,0.33 -1.82,0.57l-3.53 1.38c-0.24,-1.03 -0.93,-0.79 -0.93,-1.99 0.53,-0.12 1.04,-0.31 1.46,-0.53l0 -0.93c-1.85,-0.43 -2.49,1.26 -3.27,1.65 -0.27,0.14 -0.48,0.17 -0.75,0.31 -0.45,0.21 -0.89,0.52 -1.34,0.79 -0.97,0.57 -4.55,3.07 -5.14,3.23 0,-1.6 0.55,-1.66 1.19,-2.53 0.35,-0.48 0.27,-0.26 0.27,-1.06 -0.64,-0.43 -0.53,-0.4 -1.59,-0.4 -0.14,-0.34 0.07,-0.68 -0.44,-1.02 -0.46,-0.3 -0.96,-0.15 -1.42,-0.04l0 0.8c-0.91,0.07 -2.84,1.48 -3.63,1.95 -1.04,0.62 -2.7,1.77 -3.95,1.77 0,-0.51 0.04,-1.05 0.28,-1.32 0.33,-0.36 2.52,-0.68 2.87,-2.2 0.22,-0.98 -1.04,-1.38 -2,-1.05 -0.44,0.15 -0.6,0.39 -0.94,0.66 -0.38,0.3 -0.6,0.45 -1.05,0.68 -1.22,0.6 -2.97,1.73 -4.13,2.51 -0.56,0.38 -1.55,1.12 -2.24,0.62 -0.37,-0.27 -1.13,-1.58 -1.43,-2.03 0.44,-0.1 0.99,-0.49 1.39,-0.74 0.44,-0.28 0.94,-0.62 1.1,-1.19 0.28,-1.01 -0.79,-0.81 -1.3,-0.6 -0.73,0.29 -0.79,0.58 -1.32,0.94 0.02,-0.95 0.34,-0.48 1.36,-2.1 0.4,-0.66 0.79,-1.59 0.94,-2.52 0.26,-1.59 -2.83,-3.07 -3.89,3.69 -0.16,1.01 -0.31,0.86 -1.74,1.86 -1.85,1.3 -2.12,2.03 -3.85,3.19 -0.48,-0.26 -0.39,-0.12 -0.72,-0.47 -0.92,-0.99 -0.23,-2.21 -0.55,-3.45 -0.6,-2.31 -3.03,-0.09 -4.69,1.15 -0.53,0.39 -1.03,0.67 -1.58,1.08 -2.63,1.96 -1.65,-0.9 -1.63,-1.9 -1.14,-0.55 -2.14,0.15 -3.03,0.69 -0.52,0.31 -0.78,0.52 -1.28,0.85 -0.49,0.33 -0.79,0.6 -1.27,0.85 0.04,-0.54 0.34,-1.31 -0.03,-1.84 -1.03,-1.47 -3.43,0.89 -4.23,1.31 0,-0.97 0.25,-1.41 -0.02,-2.37 -0.21,-0.74 -0.83,-0.82 -1.84,-0.82 -0.45,0.68 -0.37,0.3 -0.19,1.11 0.47,2.13 -1.13,4.05 0.32,4.47 1.26,0.37 2.82,-3.15 4.39,-3.19 0,2.07 -0.63,1.73 0.27,3.06 0.84,-0.02 0.91,-0.2 1.36,-0.63 0.77,-0.74 2.88,-2.63 3.69,-2.69 -0.32,1.35 -0.18,3.29 1.45,3.2 0.92,-0.06 2.02,-1.76 2.93,-2.01z"/>
   <path class="fil0" d="M1.05 26.21c-1.17,0 -0.29,-1.44 0.49,-1.91 0.46,-0.27 1.15,-0.75 1.64,-0.88 0,1.52 -0.62,2.79 -2.13,2.79zm19.41 -5.59c0.37,0.77 -0.98,3.28 -1.43,3.11 -0.43,-0.16 0.29,-1.87 0.71,-2.5 0.24,-0.38 0.29,-0.49 0.72,-0.61zm15.15 0.8c0.38,-0.56 0.25,-0.4 0.76,-0.84 0.43,-0.37 0.34,-0.47 0.97,-0.62 -0.36,0.69 -0.88,1.27 -1.73,1.46zm-24.06 -2.12c-2.97,0.69 -3.03,1 -5.13,2.03 -0.66,0.32 -0.97,0.53 -1.51,0.89 -0.13,-1.5 -1.44,-1.69 -1.46,-2.92l1.46 -0.67c1.32,-0.57 1.33,-0.59 1.06,-1.73 -0.54,-0.04 -0.29,-0.13 -0.79,-0.13 -1.08,0 -2.55,1.36 -2.96,2.1 -0.62,1.12 0.83,1.86 0.83,3.88 0,0.53 -1.5,0.72 -2.89,1.9 -1.29,1.08 -0.61,2.22 0.36,2.22 1.49,0 2.57,0.03 3.82,-1.49 1.3,-1.59 0.13,-2.44 1.15,-3.11 0.92,-0.61 3.21,-1.65 4.35,-2.03 1.04,-0.34 0.72,-0.17 1.71,-0.15l0.05 1.3c0,0.01 -0.03,0.4 -0.04,0.44 -0.21,3.49 2.52,2.5 2.52,1.32 0,-1.62 -1.2,1.94 -1.2,-2.92 1.6,0 3.84,-0.4 6.39,-0.4l-1.09 1.7c-0.46,0.75 -0.78,1.43 -0.78,2.42 0,1.04 1.04,1.81 2.55,-0.25 0.39,-0.53 0.87,-1.56 1.04,-2.28 0.62,0.41 0.1,0.4 1.33,0.4 0.66,0 3.48,-1.25 4.12,-1.59 0.3,0.19 0.27,0.23 0.62,0.44 0.26,0.15 0.48,0.23 0.71,0.35 -0.67,1.01 -1.59,1.78 -1.59,3.86 0,0.28 0.53,1.26 1.63,0.17 0.64,-0.64 1.89,-1.5 2.65,-2.01l3.83 -2.42c-0.11,0.41 -0.37,0.66 -0.52,1.08 -0.39,1.05 -0.56,2.91 0.91,2.91 0.95,0 1.91,-0.74 2.57,-1.15l2.22 -1.51c0.37,-0.24 0.7,-0.49 1.12,-0.74 3.55,-2.15 2.83,-0.36 3.8,-1.38 -0.29,-1.24 -0.82,-0.5 -1.52,-0.19 -1.53,0.67 -1.51,0.5 -3.24,1.68 -1.11,0.74 -3.39,2.23 -4.68,2.23 0,-1.71 0.45,-1.36 1.57,-1.88 1.49,-0.7 2.69,-2.77 0.02,-2.77 -0.69,0 -0.96,0.54 -2.25,1.2 -0.7,0.37 -1.46,0.91 -2.14,1.32l-3.14 2.04c-0.39,0.23 -0.7,0.51 -1.11,0.62 -0.34,-1.64 1.47,-2.15 1.47,-3.32 0,-0.7 -0.88,-0.67 -1.6,-0.67 -0.2,-0.48 0.18,-0.17 -0.17,-0.74 -0.42,-0.68 -1.2,-0.43 -1.69,-0.32 0,0.67 0.01,0.54 0.27,0.93 -1.08,0.09 -4.28,2.41 -4.52,0.4 -0.11,-0.89 0,-0.6 -0.4,-1.2l-8.24 0.27c0,-1.15 0.67,-2.64 1.31,-3.48 0.28,-0.38 0.5,-0.57 0.55,-1.17 -0.02,-0.03 -0.05,-0.1 -0.06,-0.08l-0.26 -0.27c-0.23,-0.16 -0.28,-0.19 -0.61,-0.19 -1.95,0 -2.4,3.47 -2.4,5.06z"/>
   <path class="fil0" d="M100.08 39.37c-3.33,0 -7.19,-1.33 -9.17,-2.66 -0.18,0.26 -0.24,0.37 -0.4,0.66 3.18,1.69 5.67,2.66 9.97,2.66 6.41,0 12.42,-3.43 15.82,-8.51 -0.26,-0.17 -0.37,-0.24 -0.67,-0.39 -0.09,0.37 -0.33,0.58 -0.56,0.89 -1.67,2.2 -3.18,3.43 -5.52,4.85 -2.2,1.32 -5.98,2.5 -9.47,2.5z"/>
   <path class="fil0" d="M23.78 35.91l0.8 0 0.67 -5.58c0.27,0.4 1.96,5.44 1.99,5.58l0.53 0c0.23,-0.99 0.64,-1.82 0.95,-2.77l1.05 -2.81c0.02,1.17 0.64,4.63 0.66,5.58l0.8 0c0,-1.35 -0.91,-5.92 -0.93,-7.04 -1.06,0 -0.84,-0.03 -1.75,2.51 -0.24,0.66 -0.86,2.23 -0.91,2.8l-0.27 0c-0.04,-0.55 -1.18,-3.42 -1.44,-4.14 -0.41,-1.11 -0.09,-1.17 -1.22,-1.17 -0.02,1.08 -0.93,5.71 -0.93,7.04z"/>
   <path class="fil0" d="M37.21 33.65c0,-2.55 2.66,-2.05 2.66,-0.53 0,1.04 0.06,2.13 -1.33,2.13 -0.83,0 -1.33,-0.74 -1.33,-1.6zm2.79 -1.86c-0.49,-0.13 -0.8,-0.66 -1.46,-0.66 -2.97,0 -2.53,4.78 -0.4,4.78 1.45,0 0.94,-0.01 1.73,-0.53 0.05,0.57 0.02,0.53 0.8,0.53l0 -7.57c-1.02,0 -0.81,0.14 -0.8,1.59 0,0.66 -0.09,1.41 0.13,1.86z"/>
   <path class="fil0" d="M62.86 35.91l3.73 0 0 -0.8 -2.93 0 0 -2.52 2.39 0c0,-1 0.22,-0.8 -2.39,-0.8l0 -1.73c0,-0.51 0.04,-0.05 -0.13,-0.4l3.06 0 0 -0.79 -3.73 0 0 7.04z"/>
   <path class="fil0" d="M45.19 35.25c-2.53,0 -2.02,-3.32 -0.39,-3.39 2,-0.08 1.62,3.39 0.39,3.39zm1.06 -3.46c-0.49,-0.32 -1.15,-0.97 -2.3,-0.44 -1.99,0.91 -1.47,4.56 0.57,4.56 1.46,0 1.1,-0.2 1.73,-0.66l0 0.66 0.66 0 0 -7.57 -0.66 0 0 3.45z"/>
   <path class="fil0" d="M70.44 35.25c-1.74,0 -1.2,-1.08 -0.8,-1.34 0.66,-0.42 1.51,-0.19 2.26,-0.1 -0.16,0.69 -0.6,1.44 -1.46,1.44zm-1.59 -3.19l0.51 0.42c0.48,-0.34 1.3,-1.15 2.19,-0.33 0.28,0.26 0.34,0.48 0.35,0.97 -0.25,0 -3.45,-0.63 -3.45,1.46 0,1.12 1.02,1.33 1.86,1.33 0.79,0 1.12,-0.35 1.59,-0.66 0.28,0.41 0.43,0.61 1.07,0.66l0 -0.8 -0.4 0c0,-0.69 0.1,-2.15 -0.06,-2.73 -0.39,-1.51 -2.71,-1.75 -3.66,-0.32z"/>
   <path class="fil0" d="M55.69 33.25l-2.8 0c0.05,-1.84 2.75,-1.91 2.8,0zm-3.59 0.14c0,3.02 3.37,3.1 4.38,1.59l-0.39 -0.4c-0.67,0.18 -0.61,0.67 -1.6,0.67 -0.97,0 -1.57,-0.52 -1.6,-1.47l3.59 0c0,-3.98 -4.38,-2.97 -4.38,-0.39z"/>
   <path class="fil0" d="M74.83 32.32c0,1.79 2.54,1.06 2.12,2.79 -0.53,0.13 -0.96,0.3 -1.48,-0.11 -0.52,-0.4 0.05,-0.22 -0.51,-0.42 -0.18,0.16 -0.17,0.15 -0.4,0.27 0.43,1.59 3.19,1.22 3.19,0.13l0 -0.66c0,-0.93 -2.13,-1.2 -2.13,-2 0,-0.52 0.47,-0.53 0.79,-0.39 0.46,0.2 0.5,0.46 0.94,-0.14 -0.82,-1.24 -2.52,-0.5 -2.52,0.53z"/>
   <path class="fil0" d="M80.41 31.26l-0.8 0 0 0.66 0.8 0 0 3.99c1.09,0 0.8,0.28 0.8,-3.99l0.8 0c-0.02,-0.7 0,-0.66 -0.8,-0.66l0 -1.86 -0.8 0 0 1.86z"/>
   <path class="fil0" d="M49.31 35.91c0.53,0 0.79,0.08 0.79,-0.4l0 -6.78c0,-0.47 -0.26,-0.39 -0.79,-0.39l0 7.57z"/>
   <path class="fil0" d="M109.39 5.47c0.36,0.25 0.67,0.29 0.93,0.67 -0.51,0.23 -0.85,-0.03 -0.93,-0.67zm1.06 0l-0.26 -0.13 0.26 0.13zm-0.26 -0.13c-0.37,-0.03 -0.29,-0.01 -0.54,-0.13 0.28,-0.38 0.21,-0.36 0.54,0.13zm0.39 -0.4c-0.3,0 -0.39,-0.09 -0.39,-0.4 0,-0.48 0.33,-0.4 0.79,-0.4 0.07,0.32 0.17,0.8 -0.4,0.8zm-0.13 0.53c0.56,-0.13 0.92,-0.29 1.3,-1.04 0.44,-0.86 -0.09,-0.29 -0.16,-0.33l-0.75 -0.34c-0.17,-0.03 -0.47,-0.02 -0.65,-0.02 -0.15,0.21 -0.18,0.23 -0.33,0.47 -0.21,0.36 -0.05,0.15 -0.31,0.5 -0.25,0.32 -0.48,0.57 -0.69,0.89 0.21,0.94 0.74,1.16 1.72,0.93 0.15,-0.63 0.16,-0.52 -0.13,-1.06z"/>
   <path class="fil0" d="M33.62 35.91c1.11,0 0.8,0.27 0.8,-4.25 0,-0.47 -0.26,-0.4 -0.8,-0.4l0 4.65z"/>
   <path class="fil0" d="M117.63 13.31c-0.3,0 -0.29,-0.1 -0.53,-0.26 0.15,-0.58 0.34,-0.67 1.06,-0.67 0.11,0.46 0.12,0.93 -0.53,0.93zm-2 -0.26c0.43,0.19 0.53,-0.01 1.07,-0.13 0.37,1.59 1.99,0.66 1.99,0 0,-0.76 -0.34,-0.47 -0.4,-1.2 -0.17,0.01 -2.46,0.78 -2.66,1.33z"/>
   <path class="fil0" d="M118.43 16.37c0.67,0.18 0.22,0.16 0.53,0.8 -0.6,-0.14 -0.53,-0.09 -0.53,-0.8zm0.79 0c0.23,0.08 0.24,-0.23 0.34,0.31 0.06,0.33 0.01,0.2 -0.2,0.36 -0.07,-0.31 -0.11,-0.31 -0.14,-0.67zm0 0c-0.8,-0.54 -0.65,-0.65 -1.33,0.13 0.1,0.42 0.2,0.42 0.3,0.76 0.17,0.61 -0.2,0.05 0.1,0.71 0.75,-0.4 1.27,-0.43 1.49,-0.65 0.5,-0.47 0.19,-1.18 -0.42,-1.35 -0.1,0.18 -0.08,0.15 -0.14,0.4z"/>
   <path class="fil0" d="M92.51 3.88l0 -0.4c0.35,-0.08 0.39,-0.12 0.66,-0.27 -0.05,0.56 -0.11,0.62 -0.66,0.67zm-0.67 -0.8c0.83,-0.07 0.67,-0.85 1.2,-0.13 -1.62,0.13 -1.11,2.03 0.27,1.06 0.45,-0.31 -0.17,-0.2 0.66,-0.13 -0.02,-0.25 -0.58,-1.6 -1.07,-1.6 -0.68,0 -0.91,0.14 -1.06,0.8z"/>
   <path class="fil0" d="M119.09 25.54l0.15 -0.79 0.25 0c0,0.88 0.13,0.56 -0.4,0.79zm-0.53 0.14c-0.24,-0.5 -0.4,-0.89 0.27,-1.07l-0.27 1.07zm0 0l0.93 0.26c0.48,-0.55 0.36,-0.25 0.4,-1.33 -0.45,-0.3 -0.83,-0.78 -1.51,-0.32 -0.61,0.41 -0.51,0.97 -0.22,1.52 0.35,-0.09 0.11,0.01 0.4,-0.13z"/>
   <path class="fil0" d="M105.8 3.48l0.4 0c0.13,-1.63 1.06,-1.25 1.06,-0.93 0,0.76 -0.41,0.88 -0.13,1.46 0.4,-0.16 0.15,0.09 0.41,-0.52 0.52,-1.22 0.2,-1.5 -1.21,-1.87 -0.17,0.72 -0.51,1.06 -0.53,1.86z"/>
   <path class="fil0" d="M95.7 1.22l0 0.4 0.4 0c0.04,0.51 0.22,0.95 0.26,1.46l0.4 0 -0.27 -1.33c0.16,-0.42 -0.28,-0.19 0.4,-0.27l0 -0.39 -0.53 0 0 -0.67c0.63,-0.01 0.52,0.14 0.67,-0.4 -0.59,0 -0.86,-0.13 -1.08,0.26 -0.12,0.2 -0.04,0.22 -0.06,0.49 -0.02,0.6 0.32,0.24 -0.19,0.45z"/>
   <path class="fil0" d="M85.86 7.33c0,1.17 1.43,1.41 1.87,0.38 0.17,-0.41 0.1,-0.47 -0.41,-0.51 -0.01,0.52 0.04,0.31 -0.13,0.66 -1.36,0 -1.15,-0.99 -0.27,-1.06l0 -0.4c-0.7,0.02 -1.06,0.23 -1.06,0.93z"/>
   <path class="fil0" d="M116.7 28.34c0,1.88 0.95,0.66 1.46,0.53 -0.14,0.54 -0.53,0.55 -0.1,0.71 0.39,0.15 0.99,-1.11 -0.03,-1.11 -0.31,0 -0.4,0.27 -0.93,0.4 0.1,-0.93 0.31,0.11 0.4,-0.93 -0.41,0.09 -0.52,0.2 -0.8,0.4z"/>
   <path class="fil0" d="M118.43 20.89c0,0.54 0.21,0.72 0.53,0.93 0.24,-0.51 -0.63,-1.33 0.53,-1.33 0.31,0 0.53,0.22 0.53,0.53 0,0.51 -0.6,0.42 -0.08,0.61 0.51,0.18 1.08,-1.54 -0.72,-1.54l-0.26 0c-0.2,0.3 -0.53,0.47 -0.53,0.8z"/>
   <path class="fil0" d="M115.63 8.79c-0.19,0.83 -0.01,0.38 0,1.2 -0.98,-0.26 0.19,-0.53 -0.79,-0.8l0 0.8c0.63,0.43 1.19,1.05 1.19,-0.93 0.56,0.4 -0.02,0.35 0.67,0.53 -0.02,-0.74 -0.32,-1.08 -1.07,-0.8z"/>
   <path class="fil0" d="M99.68 0.82c0.11,0.4 0,0.29 0.4,0.4l0 1.46 0.4 0c0,-0.26 -0.02,-0.57 -0.01,-0.81 0.02,-0.77 -0.09,-0.5 0.28,-0.65l0 -0.53c-0.38,-0.16 -0.27,0.08 -0.27,-0.67l-0.4 0c0,0.7 0.15,0.65 -0.4,0.8z"/>
   <path class="fil0" d="M103.54 2.95c0,-0.59 0.13,-0.93 0.2,-1.52 0.01,-0.06 0.02,-0.28 0.02,-0.28 0.01,-0.03 0.01,-0.07 0.02,-0.09 0.08,-0.49 0.39,-0.64 -0.37,-0.64l-0.19 1.41c-0.16,0.84 -0.38,1.06 0.32,1.12z"/>
   <path class="fil0" d="M88.65 4.41c0.12,0.43 0.18,0.34 0.45,0.74 0.68,0.98 0.43,0.96 0.82,0.8 0.36,-0.14 0.13,-0.14 0.05,-0.31 -0.21,-0.47 -0.52,-0.37 -0.52,-0.83 0,-0.52 0.34,-0.58 -0.05,-0.73 -0.33,-0.14 -0.17,0.17 -0.75,0.33z"/>
   <path class="fil0" d="M33.35 30.2c0,0.52 1.2,1.1 1.2,-0.4 -0.17,-0.09 -0.44,-0.27 -0.66,-0.27 -0.15,0 -0.54,0.39 -0.54,0.67z"/>
  </g>
 </g>
</svg>
