<?xml version="1.0" encoding="UTF-8"?>
<!DOCTYPE svg PUBLIC "-//W3C//DTD SVG 1.1//EN" "http://www.w3.org/Graphics/SVG/1.1/DTD/svg11.dtd">
<!-- Creator: CorelDRAW -->
<svg xmlns="http://www.w3.org/2000/svg" xml:space="preserve" width="237px" height="40px" version="1.1" style="shape-rendering:geometricPrecision; text-rendering:geometricPrecision; image-rendering:optimizeQuality; fill-rule:evenodd; clip-rule:evenodd"
viewBox="0 0 237 39.93"
 xmlns:xlink="http://www.w3.org/1999/xlink"
 xmlns:xodm="http://www.corel.com/coreldraw/odm/2003">
 <defs>
  <style type="text/css">
   <![CDATA[
    .fil0 {fill:#FDFDFD}
    .fil1 {fill:#FEFEFE}
    .fil2 {fill:white}
   ]]>
  </style>
 </defs>
 <g id="Layer_x0020_1">
  <metadata id="CorelCorpID_0Corel-Layer"/>
  <g id="_3104153158880">
   <path class="fil0" d="M62.77 28.34c-6.82,-5 -7.1,-29.82 10.3,-20.61 -0.68,8.16 -8.44,13.62 -10.3,20.61zm14.17 -23.19c-4.15,-0.96 -24.48,-10.79 -24.48,15.46 0,5.32 3.2,9.42 6.44,11.59 -0.93,4 -1.64,3.73 -2.57,7.73 2.72,-1.99 3.28,-3.65 5.15,-6.44 5.2,0.43 6.4,1.54 11.59,0.09 6.13,-1.72 5.15,-3.23 5.15,-10.39 -3.53,2.58 -3.07,3.8 -5.15,7.72l-9.01 0c1.73,-7.45 14.99,-23.38 16.74,-30.91 -3.18,2.13 -2.82,0.77 -3.86,5.15z"/>
   <path class="fil1" d="M30.57 29.63zm-5.16 -11.6l5.16 11.6zm-5.16 -11.6zm6.44 11.6l-6.44 -11.6zm6.44 11.6l-1.28 0c0.51,-6.16 8.6,-18.87 -5.16,-11.6 0.52,-6.21 2.06,-4.09 2.58,-10.3 -23.54,1.96 -26.4,-1.34 -27.05,6.44 2.99,-2 4.18,-3.46 9.02,-3.87 -5.02,10.45 -3.41,17.19 -10.31,23.19l9.02 0c-2.02,-4.22 -0.14,-6.89 1.44,-11.42 1.1,-3.12 2.36,-8.95 3.71,-11.77 5.04,0.42 3.91,-0.77 5.15,3.87 5.01,-3.67 0.08,-2.03 5.16,-3.87 -2.17,4.1 -7.61,17.47 -7.73,23.19 3.12,-0.83 2.13,0.09 4.62,-4.4 0.62,-1.11 0.66,-1.4 1.27,-2.59 2.36,-4.61 2.12,-5.88 6.99,-7.18 -1.2,5.15 -3.41,8.71 -3.87,14.17 6.1,-0.13 5.06,1.31 6.44,-3.86z"/>
   <path class="fil1" d="M165.81 14.17c-3.53,-0.83 -5.23,-2.58 -7.73,-2.58 -17.34,0 -16.24,23.19 -2.57,23.19 4.78,0 7.95,-3.74 9.01,-7.73 -4.57,1.22 -8.48,6.81 -12.27,0.69 -3.38,-5.49 -0.82,-10.84 3.26,-13.57 4.49,1.2 4.71,1.19 5.15,6.44 5.01,-1.34 1.4,-3.12 6.44,-5.15 0,10.71 -1.66,14.76 5.15,19.32 5.07,-1.18 5.23,-1.42 7.73,-5.15 -8.65,0.72 -7.73,2.2 -7.73,-14.17l-1.29 -9.02c-1.3,4.87 -2.48,3.75 -5.15,7.73z"/>
   <path class="fil1" d="M91.1 30.91c-5.84,0 -5.15,-5.71 -5.15,-9.01 0,-5.66 1.55,-5.82 5.15,-7.73 8.67,5.8 5.41,16.74 0,16.74zm-1.28 3.87c16.38,0 14.46,-23.19 1.28,-23.19 -15.14,0 -13.24,23.19 -1.28,23.19z"/>
   <path class="fil1" d="M133.61 14.17c4.12,2.18 4.65,0.46 5.15,6.44l-9.01 0c0.85,-3.67 1.67,-4.36 3.86,-6.44zm-9.02 6.44c0,18.18 16.4,17.38 19.33,6.44 -2.34,0.62 -13.04,8.46 -14.17,-5.15l14.17 0c-1.45,-17.34 -19.33,-8.71 -19.33,-1.29z"/>
   <path class="fil1" d="M225.06 15.46l0 5.15 -7.73 0c0.57,-6.8 2.89,-6.18 7.73,-5.15zm-12.88 6.44c0,15.08 13.06,16.99 19.32,5.15 -2.02,0.54 -13.86,8.59 -14.17,-5.15l12.88 0c0,-16.83 -18.03,-10.59 -18.03,0z"/>
   <path class="fil1" d="M101.41 3.86c5.15,4.89 2.25,27.63 1.29,29.63l9.01 0c-2.21,-4.61 -1.33,-13.99 -1.24,-20.66 0.19,-14.47 0.85,-11.27 -9.06,-8.97z"/>
   <path class="fil1" d="M203.17 33.49c1.26,-5.41 6.34,-16.85 10.3,-20.61l-10.3 0c1.57,1.19 -1.45,0.84 3.86,1.29 -0.38,4.49 -2.36,8.38 -5.15,11.59 -0.94,-4.01 -1.32,-6.08 -3.87,-9.02 1.21,-2.99 -0.09,-1.11 3.87,-3.86l-11.59 0c8.24,12.32 5.88,18.74 12.88,20.61z"/>
   <path class="fil1" d="M113 3.86c4.12,3.91 3.11,17.46 2.67,23.29 -0.38,5.05 -0.04,3.85 -2.67,6.34l11.59 0c-6.44,-5.6 -3.86,-14.66 -3.86,-32.2 -2.56,1.23 -4.6,1.85 -7.73,2.57z"/>
   <path class="fil1" d="M39.58 23.19c1.19,-4.46 0.7,-3.97 5.15,-5.16 -2.29,4.34 0.07,3.91 -5.15,5.16zm-5.15 5.15c0,8.85 9.7,5.8 11.59,-1.29 -3.75,2.51 -7.05,6.86 -7.72,-1.29 11.87,-0.99 11.94,-10.3 7.72,-10.3 -6.02,0 -11.59,6.32 -11.59,12.88z"/>
   <path class="fil1" d="M179.98 14.17l1.78 2.08c1.29,2.91 1.11,11.38 0.68,13.26l-2.46 3.98 10.31 0c-4.22,-6.3 -2.58,-10.2 -2.58,-21.9 -2.56,1.23 -4.61,1.85 -7.73,2.58z"/>
   <path class="fil1" d="M181.27 5.15c0,10.94 12.11,-2.57 3.86,-2.57 -2.11,0 -3.86,0.77 -3.86,2.57z"/>
   <polygon class="fil2" points="231.5,33.49 236.65,33.49 236.65,29.63 231.5,29.63 "/>
   <polygon class="fil2" points="31.85,29.63 33.14,29.63 32.07,28.12 "/>
  </g>
 </g>
</svg>
