<?xml version="1.0" encoding="UTF-8"?>
<!DOCTYPE svg PUBLIC "-//W3C//DTD SVG 1.1//EN" "http://www.w3.org/Graphics/SVG/1.1/DTD/svg11.dtd">
<!-- Creator: CorelDRAW -->
<svg xmlns="http://www.w3.org/2000/svg" xml:space="preserve" width="51px" height="40px" version="1.1" style="shape-rendering:geometricPrecision; text-rendering:geometricPrecision; image-rendering:optimizeQuality; fill-rule:evenodd; clip-rule:evenodd"
viewBox="0 0 51 40.06"
 xmlns:xlink="http://www.w3.org/1999/xlink"
 xmlns:xodm="http://www.corel.com/coreldraw/odm/2003">
 <defs>
  <style type="text/css">
   <![CDATA[
    .fil0 {fill:white}
   ]]>
  </style>
 </defs>
 <g id="Layer_x0020_1">
  <metadata id="CorelCorpID_0Corel-Layer"/>
  <g id="_3141880899376">
   <path class="fil0" d="M21.35 14.05c3.84,-0.53 5.98,1.55 6.24,5.05 0.28,3.82 -0.93,6.57 -4.42,6.97 -3.83,0.44 -6.05,-1.6 -6.3,-5.05 -0.28,-3.83 0.99,-6.49 4.48,-6.97zm-8.86 26l4.18 0.01c0.25,-0.66 0.09,-9.84 0.09,-11.34 0.39,0.09 1.04,0.69 2.15,1.1 2.75,1 5.92,0.63 8.29,-0.68 6.08,-3.36 6.29,-14.33 0.33,-18.09 -2.5,-1.58 -6.81,-1.94 -9.6,-0.46 -0.44,0.23 -0.71,0.5 -1.16,0.67l-0.01 -1.59 -4.23 -0.03 -0.04 30.41z"/>
   <path class="fil0" d="M32.97 30.36l4.23 0.04c0.16,-1.07 -0.04,-8.56 -0.01,-10.45 0.05,-3.28 1.1,-5.94 4.51,-5.97 3.39,-0.02 4.51,2.59 4.62,5.86 0.1,2.71 -0.15,8.53 0.04,10.51l4.24 0.04c0.18,-2.71 0.01,-6 0.01,-8.73 0,-4.73 -0.82,-10 -6.11,-11.57 -3.99,-1.19 -6.13,0.48 -7.25,0.75l-0.01 -10.83 -4.25 -0.01 -0.02 30.36z"/>
   <path class="fil0" d="M11.49 30.31l0 -4.23c-2.63,-0.15 -2.94,0.28 -2.94,-3.57l0 -12.91c0,-2.09 0.09,-4.39 -0.01,-6.45l-4.24 -0.05c-0.11,1.14 -0.02,15.63 -0.02,17.17 0,2.83 -0.32,5.43 1.07,7.54 1.17,1.78 3.03,2.73 6.14,2.5z"/>
   <path class="fil0" d="M1.17 9.79c-2.84,1.01 -1.2,5.04 1.43,4.05 2.56,-0.96 1.27,-5.01 -1.43,-4.05z"/>
  </g>
 </g>
</svg>
