<?xml version="1.0" encoding="UTF-8"?>
<!DOCTYPE svg PUBLIC "-//W3C//DTD SVG 1.1//EN" "http://www.w3.org/Graphics/SVG/1.1/DTD/svg11.dtd">
<!-- Creator: CorelDRAW -->
<svg xmlns="http://www.w3.org/2000/svg" xml:space="preserve" width="99px" height="40px" version="1.1" style="shape-rendering:geometricPrecision; text-rendering:geometricPrecision; image-rendering:optimizeQuality; fill-rule:evenodd; clip-rule:evenodd"
viewBox="0 0 99 40.06"
 xmlns:xlink="http://www.w3.org/1999/xlink"
 xmlns:xodm="http://www.corel.com/coreldraw/odm/2003">
 <defs>
  <style type="text/css">
   <![CDATA[
    .fil0 {fill:white}
   ]]>
  </style>
 </defs>
 <g id="Layer_x0020_1">
  <metadata id="CorelCorpID_0Corel-Layer"/>
  <g id="_3141842167472">
   <g id="_3104458126016">
    <path class="fil0" d="M83.78 18.17l3.72 0 0 3.43 -3.72 0 0 -3.43zm-2.28 0.58c0,1.54 -0.39,4.85 2.57,4.85 1.16,0 3.9,0.23 4.5,-0.35l0.75 -1.1c0.26,-0.63 0.24,-3.81 0.04,-4.41l-0.96 -1.34c-0.44,-0.28 -4.93,-0.56 -5.77,0.19 -0.77,0.69 -1.13,1.03 -1.13,2.16l0 0z"/>
    <path class="fil0" d="M51.79 19.6l-3.57 0 0 -1.85 3.14 0c0.41,0 0.71,0.69 0.71,1 0,0.24 -0.19,0.49 -0.28,0.85l0 0zm-5.43 -2.86l0 7.15c0,0.64 0.54,0.52 0.92,0.36 0.06,-0.02 0.4,-0.19 0.4,-0.19 0.87,-0.5 0.68,-1.39 0.68,-2.74l3 0c0.34,0 0.42,0.23 0.71,0.42 0,2.02 -0.2,1.86 1.72,1.86 0.97,0 0.5,-2.24 0.43,-2.43l-0.49 -0.65c-0.18,-0.2 -0.24,-0.3 -0.37,-0.49l0.53 -0.76c0.2,-0.42 0.18,-0.77 0.09,-1.13l-0.4 -0.89c-0.36,-0.54 -0.45,-0.24 -0.51,-0.93 -0.64,-0.02 -0.56,-0.14 -1.28,-0.14l-4.86 0c-0.33,0 -0.57,0.23 -0.57,0.56l0 0z"/>
    <path class="fil0" d="M95.63 19.6l-3.28 0 0 -1.71 3.28 0c0.48,0 0.69,0.54 0.86,0.86 -0.17,0.32 -0.38,0.85 -0.86,0.85zm-5 -2.86l0 7.15c0,0.99 1.61,0.25 1.87,-0.42 0.19,-0.51 0.14,-1.53 0.14,-2.15l2.99 0c0.35,0 0.43,0.23 0.72,0.42 0,1.91 -0.2,1.86 1.42,1.86 1.02,0 0.47,-2.4 0.41,-2.54 -0.44,-1.02 -0.92,-0.14 -0.14,-1.77 0.7,-1.44 -0.2,-1.62 -0.53,-2.42 -0.16,-0.37 -0.1,0.16 -0.16,-0.55 -0.65,-0.02 -0.57,-0.14 -1.29,-0.14l-4.85 0c-0.33,0 -0.58,0.23 -0.58,0.56l0 0z"/>
    <path class="fil0" d="M67.5 18.17l3.71 0c0,1.45 0.14,2.31 0.14,3.71l-3.99 0c0,-1.4 0.14,-2.26 0.14,-3.71l0 0zm-2.01 0.58c0,1.6 -0.25,3 0.5,3.79l0.42 0.43c0.29,0.27 0.35,0.35 0.8,0.35l4.58 0c0.6,0 1.43,-0.84 1.61,-1.4 0.15,-0.48 0.2,-3.68 -0.08,-4.28 -0.02,-0.03 -0.04,-0.06 -0.05,-0.09 -1.12,-1.9 -3.29,-1.37 -5.2,-1.37 -1.44,0 -2.58,1.13 -2.58,2.57l0 0z"/>
    <path class="fil0" d="M58.07 18.75c0,0.96 -0.15,2.93 0.3,3.57l0.76 0.78c0.03,0.03 0.12,0.13 0.15,0.15 0.67,0.54 4.31,0.55 5.01,0l0.22 -0.21c0.59,-0.58 0.52,-0.42 0.61,-0.83 0.06,-0.27 0.02,-0.61 -0.48,-0.61l-4.28 0 0 -3.43c0.7,0 2.78,0.07 3.35,-0.07 0.03,-0.01 0.28,-0.09 0.32,-0.11l0.34 -0.24c0.33,-0.29 0.52,-0.7 0.98,-0.86 -0.09,-0.36 -0.27,-0.71 -0.71,-0.71 -1.62,0 -4.63,-0.31 -5.44,0.41 -0.15,0.14 -0.13,0.15 -0.34,0.36 -0.56,0.57 -0.79,0.63 -0.79,1.8z"/>
    <path class="fil0" d="M40.07 18.17l0.58 0 0 5.72c0,0.84 0.95,0.38 1.31,0.17 0.61,-0.34 0.69,-0.71 0.69,-1.6l0 -4.29c0.55,0 1.19,0.06 1.67,-0.18l0.33 -0.24c0.12,-0.1 0.31,-0.32 0.43,-0.43l0.57 -0.43c-0.1,-0.36 -0.28,-0.71 -0.71,-0.71l-6.58 0c-1.1,0 -0.23,1.99 1.71,1.99l0 0z"/>
    <path class="fil0" d="M74.5 16.04c-0.02,0.64 -0.14,0.56 -0.14,1.28l0 5.71c0,0.34 0.23,0.57 0.56,0.57 1.5,0 4.87,0.27 5.65,-0.35 0.04,-0.03 0.12,-0.12 0.15,-0.14 0.02,-0.02 0.05,-0.05 0.07,-0.07l0.42 -0.45c0.2,-0.27 0.04,0.33 0.19,-0.38 0.07,-0.27 0.03,-0.61 -0.48,-0.61l-4.57 0 0 -5.72c0,-1.22 -1.3,0.11 -1.85,0.16z"/>
    <path class="fil0" d="M54.93 16.74l0 7.43c0,1.23 1.59,-0.11 1.6,-0.12l0.33 -0.23c0.2,-0.21 0.05,0 0.18,-0.25 0.32,-0.67 0.18,-5.71 0.18,-6.83 0,-0.85 -2.29,-0.85 -2.29,0z"/>
   </g>
   <g id="_3104458125632">
    <path class="fil0" d="M8.99 12.05l0.23 -0.23c0.23,-0.23 -0.19,0.16 0.09,-0.08 0.25,-0.24 0.46,-0.41 0.87,-0.42 0,0.02 -0.03,0.13 -0.03,0.14 0,0.18 -0.03,0 0.02,0.13 0.22,-0.02 0.15,-0.06 0.2,-0.08 0.38,-0.12 0.15,-0.04 0.52,0.08 0.1,-0.21 0.05,-0.19 0,-0.46 0.32,0.14 0.46,0.14 0.77,-0.03 0.34,-0.19 0.21,-0.25 0.42,-0.35 0,0 0.46,-0.07 0.66,-0.12 0.31,-0.09 0.53,-0.19 0.8,-0.04 0.33,-0.1 -0.12,-0.06 0.33,-0.18 0.21,-0.07 0.45,-0.07 0.64,-0.17l-0.08 -0.99c0.22,-0.56 -1.01,-6.04 -1.24,-7.02 -0.15,-0.66 -0.34,-1.74 -0.57,-2.23l-13.24 0c0.12,0.17 0.41,0.53 0.58,0.71l1.25 1.45c2.79,3.45 4.48,5.55 7.19,9.13 0.18,0.24 0.4,0.63 0.59,0.76l0 0z"/>
    <path class="fil0" d="M17.33 12.58l1.37 10.07c0.26,2.3 0.61,4.62 0.81,6.9 0.21,2.55 1,8.36 1,10.51l0.18 0c0,-1.35 0.2,-2.49 0.26,-3.72l0.33 -3.66c0.21,-1.52 0.3,-3.74 0.55,-5.43 0.39,-2.88 0.63,-6.08 1.06,-9.08l0.96 -7.2c-0.08,0.11 -0.06,0.06 -0.14,0.23l-0.15 0.15c-0.34,0.52 -0.04,0.01 -0.24,0.07l-0.04 0.6c-0.11,0.06 -0.22,-0.04 -0.23,0.39 -0.42,0 -0.4,-0.06 -0.74,-0.09 -0.24,-0.02 -0.55,0 -0.81,0 -3.33,0 -0.9,0.46 -3.99,0.46l-0.13 -0.15c-0.01,-0.02 -0.03,-0.02 -0.05,-0.04l0 -0.01z"/>
    <path class="fil0" d="M15.88 4.37l1.45 8.21c0.02,0.02 0.04,0.02 0.05,0.05l0.13 0.15c3.09,0 0.66,-0.46 3.99,-0.46 0.26,0 0.57,-0.02 0.81,0 0.34,0.03 0.32,0.09 0.74,0.09 0.01,-0.43 0.12,-0.33 0.23,-0.39l0.04 -0.6c0.2,-0.06 -0.1,0.45 0.24,-0.07l0.15 -0.15c0.08,-0.17 0.06,-0.12 0.14,-0.23 0.11,-0.07 0.04,0.04 0.1,-0.26l0.8 -4.83c0.1,-0.59 0.28,-1.3 0.28,-1.9 -0.35,0.32 -0.17,0.52 -0.36,0.91 -0.04,-0.34 -0.11,-0.32 -0.12,-0.78l-0.21 0.21c-0.02,-0.02 -0.05,-0.09 -0.07,-0.1 -0.2,-0.23 -1.13,-0.23 -1.56,-0.17 -0.78,0.1 -0.69,-0.12 -1.99,-0.12 0.05,0.01 0.18,0.02 0.24,0.05 0.24,0.09 0.02,-0.05 0.21,0.13l-0.53 -0.07c-0.4,-0.12 -1.64,-0.01 -1.96,0.04 -0.64,0.09 -1.18,0.09 -1.72,0.26 -1,0.33 -0.81,0 -0.9,-0.22 -0.1,0.24 -0.07,0.12 -0.18,0.25l0 0z"/>
    <path class="fil0" d="M26.91 7.52l-0.09 0.82 0.98 0.41c0.63,0.28 0.39,0.26 0.76,0.42 0.73,0.29 0.43,0.21 0.92,0.53l0.81 0.37c0.32,0.1 0.28,0.09 0.72,0.09 0.14,0.29 -0.15,0.06 0.2,0.28 0.08,-0.24 -0.18,-0.18 0.34,-0.18 0.12,0.26 -0.09,0.13 0.28,0.28 0.14,0.05 0.13,-0.14 0.18,0.08 0.06,0.25 0.23,-0.18 -0.07,0.1l-0.12 0.08c0.75,-0.02 0.14,-0.17 0.53,-0.12 0.39,0.05 0.04,0.27 0.57,0.11 0.23,-0.12 1.72,-2.27 1.91,-2.53 0.33,-0.43 1.91,-2.35 1.99,-2.64l-0.36 -0.09c-0.08,0.13 -0.08,0.05 -0.01,0.36 -0.14,-0.11 0,-0.02 -0.14,-0.13l-0.26 -0.2c-0.33,-0.27 -0.03,-0.21 -0.42,-0.26 -0.11,-0.01 -0.12,0.02 -0.35,0.04l-0.09 -0.36c-0.58,0 -0.67,-0.03 -1.05,-0.21l-0.25 -0.12c-0.64,-0.31 -0.72,-0.59 -1.1,-1.07 -0.16,-0.19 -0.28,-0.21 -0.59,-0.38l-0.5 -0.17c-0.11,-0.02 -0.1,0.02 -0.24,-0.03 -0.49,-0.45 0.62,0.31 -0.64,-0.72l-0.92 -0.72c-0.25,-0.22 -0.18,-0.03 -0.35,-0.28 -0.11,-0.14 -0.03,-0.06 -0.09,-0.18 -0.2,-0.42 -0.18,-0.16 -0.55,-0.73l-0.35 0.63c0,-1.12 -0.33,-0.5 -0.01,-1l-0.34 0 -0.76 3.69c-0.1,0.61 -0.66,3.34 -0.54,3.83l0 0z"/>
    <path class="fil0" d="M8.99 12.05c0.29,0.56 3.39,4.94 4.45,6.89l0.98 1.81c1.5,2.88 1.46,2.84 2.43,5.82l0.12 0.26c0,-0.78 -0.12,-1.47 -0.21,-2.25 -0.09,-0.68 -0.18,-1.47 -0.29,-2.24 -0.5,-3.7 -0.95,-7.34 -1.55,-10.96l-0.31 -1.86c-0.12,-0.31 0.09,-0.06 -0.18,-0.27l0.08 0.99c-0.19,0.11 -0.43,0.11 -0.64,0.17 -0.45,0.12 0,0.08 -0.33,0.18 -0.27,-0.15 -0.49,-0.05 -0.8,0.04 -0.2,0.05 -0.66,0.12 -0.66,0.12 -0.21,0.1 -0.08,0.16 -0.42,0.35 -0.31,0.17 -0.45,0.17 -0.77,0.03 0.05,0.27 0.1,0.25 0,0.46 -0.37,-0.12 -0.14,-0.2 -0.52,-0.08 -0.05,0.02 0.02,0.06 -0.2,0.08 -0.05,-0.12 -0.02,0.05 -0.02,-0.12 0,-0.02 0.03,-0.13 0.03,-0.15 -0.41,0.01 -0.62,0.19 -0.87,0.42 -0.28,0.24 0.14,-0.15 -0.09,0.08l-0.23 0.23 0 0z"/>
    <path class="fil0" d="M36.82 5.62l2.92 -3.51c0.23,-0.26 0.35,-0.43 0.59,-0.69l1.2 -1.42 -12.98 0c-0.32,0.5 0.01,-0.12 0.01,1l0.35 -0.63c0.37,0.57 0.35,0.31 0.55,0.73 0.06,0.12 -0.02,0.04 0.09,0.18 0.17,0.25 0.1,0.06 0.35,0.28l0.92 0.72c1.26,1.03 0.15,0.27 0.64,0.72 0.14,0.06 0.13,0.01 0.24,0.03l0.5 0.17c0.31,0.17 0.44,0.19 0.59,0.38 0.38,0.48 0.46,0.76 1.1,1.07l0.25 0.12c0.38,0.18 0.47,0.21 1.05,0.21l0.09 0.36c0.23,-0.02 0.24,-0.05 0.35,-0.04 0.39,0.05 0.09,-0.01 0.42,0.26l0.27 0.2c0.13,0.11 -0.01,0.02 0.13,0.13 -0.07,-0.31 -0.07,-0.23 0.01,-0.35l0.36 0.08 0 0z"/>
    <path class="fil0" d="M15.88 4.37c0.11,-0.13 0.08,-0.01 0.18,-0.25 0.09,0.22 -0.1,0.55 0.9,0.23 0.54,-0.18 1.08,-0.18 1.72,-0.27 0.32,-0.05 1.56,-0.16 1.96,-0.04l0.53 0.07c-0.19,-0.18 0.03,-0.04 -0.21,-0.13 -0.06,-0.03 -0.19,-0.04 -0.24,-0.05 1.3,0 1.21,0.22 1.99,0.12 0.43,-0.06 1.36,-0.06 1.56,0.18 0.02,0 0.05,0.08 0.07,0.1l0.21 -0.22c0.01,0.46 0.08,0.44 0.12,0.78 0.19,-0.39 0.01,-0.58 0.36,-0.91 0.17,-0.14 0.16,-0.58 0.22,-0.87l0.6 -3.11 -10.88 0c0.08,0.96 0.82,3.15 0.91,4.37l0 0z"/>
    <path class="fil0" d="M25.62 15.68l-0.03 0.61c0.33,-0.18 0.42,0 0.44,-0.53l2.37 0c0.17,0.65 0.53,0.35 0.53,0.35 0.19,-0.02 0.02,0 0.23,0.09 0.14,-0.39 -0.02,-0.18 0.32,-0.34 0.17,-0.06 0.72,-0.99 0.83,-1.16l2.61 -3.91c-0.53,0.16 -0.18,-0.06 -0.57,-0.11 -0.39,-0.05 0.22,0.1 -0.53,0.12l0.12 -0.08c0.3,-0.28 0.13,0.15 0.07,-0.1 -0.05,-0.22 -0.04,-0.03 -0.18,-0.08 -0.37,-0.15 -0.16,-0.02 -0.28,-0.28 -0.52,0 -0.26,-0.06 -0.34,0.18 -0.35,-0.22 -0.06,0.01 -0.2,-0.28 -0.44,0 -0.4,0.01 -0.72,-0.09l-0.81 -0.37c-0.49,-0.32 -0.19,-0.24 -0.92,-0.53 -0.37,-0.16 -0.13,-0.14 -0.76,-0.42l-0.98 -0.41 0.09 -0.82c-0.12,0.11 -0.09,-0.03 -0.18,0.43l-0.25 1.57c-0.11,0.66 -0.2,1.32 -0.32,2.03 -0.12,0.72 -0.63,3.6 -0.54,4.13l0 0z"/>
    <path class="fil0" d="M24.31 24.93c-0.02,0.15 -0.05,0.31 -0.07,0.45 0,0.06 -0.02,0.21 -0.01,0.26 0.02,0.21 0.01,0.11 0.08,0.21 0.08,-0.39 0.35,-0.92 0.52,-1.32 1.08,-2.52 2.5,-5.04 3.92,-7.4 0.26,-0.41 0.56,-0.76 0.73,-1.27 -0.34,0.16 -0.18,-0.05 -0.32,0.35 -0.21,-0.1 -0.04,-0.12 -0.23,-0.1 0,0 -0.36,0.3 -0.53,-0.35l-2.37 0c-0.02,0.53 -0.11,0.35 -0.44,0.53l0.03 -0.61c-0.18,0.19 -0.01,-0.07 -0.1,0.2l-0.67 4.33c-0.12,0.74 -0.71,4.27 -0.54,4.72l0 0z"/>
    <path class="fil0" d="M24.31 25.85c-0.07,-0.1 -0.06,0 -0.08,-0.21 -0.01,-0.05 0.01,-0.2 0.01,-0.26 0.02,-0.14 0.05,-0.3 0.07,-0.45 -0.24,0 -0.16,-0.14 -0.27,0.73 -0.04,0.38 -0.1,0.53 -0.1,0.9 0.06,-0.07 0.06,-0.04 0.12,-0.16 0.07,-0.14 0.03,-0.07 0.08,-0.19 0.07,-0.16 0.08,-0.21 0.17,-0.36l0 0z"/>
    <polygon class="fil0" points="16.97,26.83 17.02,27.02 "/>
   </g>
  </g>
 </g>
</svg>
