<?xml version="1.0" encoding="UTF-8"?>
<!DOCTYPE svg PUBLIC "-//W3C//DTD SVG 1.1//EN" "http://www.w3.org/Graphics/SVG/1.1/DTD/svg11.dtd">
<!-- Creator: CorelDRAW -->
<svg xmlns="http://www.w3.org/2000/svg" xml:space="preserve" width="58px" height="40px" version="1.1" style="shape-rendering:geometricPrecision; text-rendering:geometricPrecision; image-rendering:optimizeQuality; fill-rule:evenodd; clip-rule:evenodd"
viewBox="0 0 58 40.02"
 xmlns:xlink="http://www.w3.org/1999/xlink"
 xmlns:xodm="http://www.corel.com/coreldraw/odm/2003">
 <defs>
  <style type="text/css">
   <![CDATA[
    .fil0 {fill:white}
    .fil1 {fill:white;fill-rule:nonzero}
   ]]>
  </style>
 </defs>
 <g id="Layer_x0020_1">
  <metadata id="CorelCorpID_0Corel-Layer"/>
  <g id="_3141892715504">
   <path class="fil0" d="M26.7 0.12c-0.29,0.43 -0.1,2.69 -0.1,3.39 0,0.54 -0.14,3.2 0.08,3.42 0.1,0.1 0.57,0.16 0.76,0.04 0.2,-0.13 0.14,-0.45 0.13,-0.75 -0.01,-0.91 -0.06,-4.76 0.05,-5.17 1.12,-0.1 2.55,-0.02 3.7,-0.02l21.99 0c3.99,0 3.63,-0.42 3.62,1.17l0 35.7c0.01,1.5 0.32,1.09 -3.7,1.09l-11 0c-1.56,0 -13.39,0.09 -14.61,-0.02 -0.27,-1.01 0.19,-5.69 -0.18,-5.92 -0.19,-0.12 -0.66,-0.06 -0.76,0.04 -0.22,0.22 -0.08,2.88 -0.08,3.42 0,3.72 -0.41,3.48 1.05,3.47l6.81 0c2.17,0 22.3,0.1 23.44,-0.02 0.17,-1.28 0.04,-3.64 0.04,-5.03 0,-5.04 0.12,-34.61 -0.09,-34.82 -0.18,-0.19 -20.42,-0.07 -23.48,-0.07l-7.33 -0.01c-0.14,0.01 -0.12,0.02 -0.22,0.04 -0.01,0 -0.05,0.04 -0.06,0.02 -0.01,-0.01 -0.04,0.02 -0.06,0.03z"/>
   <path class="fil0" d="M1.1 26.31l-0.02 -6.94c1.27,-0.08 3.44,-0.24 4.34,0.35 0.91,0.6 1.59,1.63 1.61,3.08 0.02,1.28 -0.69,2.55 -1.59,3.1 -1.01,0.63 -2.92,0.49 -4.34,0.41zm-1.09 -7.94l-0.02 8.46c0.01,0.68 0.12,0.51 1.57,0.51 1.92,0 3.83,0.24 5.18,-1.19 1.73,-1.82 1.58,-4.96 0.29,-6.37 -0.29,-0.32 -0.73,-0.7 -1.16,-0.94 -0.38,-0.22 -1.14,-0.47 -1.6,-0.51 -0.78,-0.06 -3.56,-0.08 -4.26,0.04z"/>
   <path class="fil0" d="M50.7 16.22c-1.75,-0.01 -2.6,-0.29 -3.07,-1.79l-0.95 -0.01c-0.38,3.31 6.34,3.72 7.31,1.22 1.3,-3.37 -3.5,-3.31 -5.25,-4.14 -1.5,-0.71 -1.16,-2.6 1.78,-2.51 1.69,0.06 1.95,0.65 2.38,1.56l0.99 0c0.1,-0.83 -0.71,-1.7 -1.19,-1.98 -1.35,-0.77 -4.01,-0.86 -5.18,0.32 -0.52,0.52 -0.9,1.59 -0.45,2.44 1.2,2.23 6.83,1.25 5.96,3.85 -0.3,0.88 -1.53,1.04 -2.33,1.04z"/>
   <path class="fil0" d="M16.31 16.22l-0.09 0c-0.9,0 -1.31,-0.05 -1.91,-0.4 -0.69,-0.4 -0.72,-0.62 -0.97,-1.39l-0.95 0c-0.07,0.63 0.17,1.12 0.43,1.47 1.01,1.37 2.92,1.46 4.61,1.22 2.52,-0.35 3.43,-3.11 1.19,-4.31 -0.46,-0.25 -0.85,-0.36 -1.41,-0.52 -1.21,-0.35 -4.19,-0.57 -3.53,-2.34 0.47,-1.23 3.34,-1.3 4.34,-0.38 0.78,0.72 -0.05,1.05 1.5,0.99 0.16,-0.96 -0.57,-1.65 -1.18,-2.02 -1.25,-0.76 -3.99,-0.8 -5.12,0.35 -0.6,0.6 -0.82,1.68 -0.41,2.47 0.86,1.71 3.97,1.32 5.52,2.51 0.35,0.27 0.54,0.55 0.35,1.33 -0.21,0.85 -1.37,1.02 -2.37,1.02z"/>
   <path class="fil0" d="M13.34 24.65l-1.02 0.01c-0.1,2.41 3.01,3.03 4.97,2.71 1.1,-0.19 2.01,-0.64 2.36,-1.58 0.17,-0.46 0.19,-1.39 -0.04,-1.84 -0.5,-0.98 -1.63,-1.23 -2.47,-1.46 -1.36,-0.38 -4.21,-0.71 -3.45,-2.4 0.55,-1.21 3.28,-1.23 4.33,-0.31 0.76,0.68 -0.04,1.09 1.5,1 0.26,-3.27 -6.71,-3.53 -6.95,-0.42 -0.14,1.87 1.62,2.42 3.15,2.77 0.7,0.17 2.48,0.52 2.89,1.1 0.33,0.47 0.19,1.12 -0.08,1.5 -0.41,0.57 -2.09,0.97 -3.02,0.73 -0.07,-0.02 -0.12,-0.05 -0.34,-0.1 -0.22,-0.04 -0.22,-0.01 -0.43,-0.09 -1.27,-0.48 -1.19,-1.12 -1.4,-1.62z"/>
   <path class="fil0" d="M40.74 19.64c0.2,0.05 0.13,0 0.26,0.11 0.17,0.14 0.65,1.59 0.77,1.85 0.18,0.42 0.78,1.71 0.81,2.17l-3.51 0.01c0,-0.33 1.34,-3.66 1.67,-4.14zm-4.35 7.69c1.36,0.03 0.95,0.24 1.95,-2.14 0.17,-0.38 0.15,-0.52 0.66,-0.52l3.98 0c0.27,0.37 0.43,0.79 0.64,1.26 0.21,0.5 0.3,1.02 0.62,1.39l1.02 0c-0.04,-0.48 -0.24,-0.74 -0.4,-1.13 -0.16,-0.35 -0.29,-0.74 -0.47,-1.11l-2.91 -6.76 -1.31 -0.01c-0.23,0.39 -0.3,0.73 -0.47,1.09l-0.97 2.17c-0.16,0.37 -0.28,0.84 -0.47,1.2 -0.27,0.52 -1.86,4.17 -1.87,4.56z"/>
   <path class="fil0" d="M32.59 13.5c0.03,-0.5 0.61,-1.73 0.82,-2.21 0.13,-0.29 0.28,-0.7 0.43,-1.07 0.16,-0.36 0.28,-0.63 0.46,-0.93 0.2,0.27 1.69,3.84 1.75,4.2l-3.46 0.01zm-2.75 3.54l0.78 0.04c0,0 0.45,0.03 0.87,-1.26 0.11,-0.35 0.33,-1.09 0.62,-1.23 0.39,-0.19 3.63,-0.07 4.37,-0.07l1.17 2.55 1.03 0.01c-0.05,-0.68 -0.64,-1.63 -0.89,-2.3l-2.61 -6.13c-0.27,-0.6 -0.31,-0.65 -1.5,-0.56l-3.84 8.95z"/>
   <path class="fil0" d="M22.5 23.15l-0.04 -3.8c1.1,-0.02 2.48,-0.06 3.54,0.01 1.06,0.08 1.66,1 1.64,1.87 -0.07,2.44 -2.84,1.95 -5.14,1.92zm-1.08 4.13c1.28,0.05 1.03,0.1 1.03,-1.16 -0.01,-2.44 -0.61,-2.06 2.32,-2.06 0.68,0 1.7,0.06 2.2,-0.2 1.28,-0.63 1.72,-1.34 1.6,-3.16 -0.08,-1.31 -1.2,-2.17 -2.41,-2.35 -0.99,-0.15 -3.62,-0.06 -4.72,-0.02l-0.02 8.95z"/>
   <path class="fil0" d="M21.35 8.58l0 4.45c0,1.57 0.18,2.13 0.95,2.99 1.48,1.64 4.22,1.56 5.63,0.17 0.82,-0.81 1.08,-1.49 1.08,-2.99l-0.01 -5.01 -0.87 -0.02c-0.1,1.58 0.2,5.19 -0.12,6.02l-0.28 0.56c-0.62,0.99 -1.15,1.5 -2.79,1.46 -0.91,-0.03 -1.46,-0.4 -1.91,-0.91 -0.89,-1.02 -0.63,-3.32 -0.63,-4.98 0,-2.25 0.22,-2.25 -0.77,-2.25 -0.28,0 -0.28,0.22 -0.28,0.51z"/>
   <path class="fil0" d="M4.87 17.09c0.01,-0.02 3.64,-8.73 3.63,-9 -1.48,-0.09 -0.99,0.09 -1.47,0.99 -0.16,0.29 -0.25,0.54 -0.37,0.91 -0.21,0.6 -1.97,5.47 -2.4,5.76 -0.31,-0.44 -1.38,-3.32 -1.57,-3.87l-1.15 -2.86c-0.06,-0.14 -0.14,-0.36 -0.2,-0.5 -0.22,-0.47 -0.36,-0.49 -1.23,-0.43 -0.02,0.65 1.52,3.89 1.91,4.92l1.5 3.72c0.19,0.46 0.38,0.46 1.35,0.36z"/>
   <path class="fil0" d="M48.14 27.28l1.11 0.05c0.23,-2.2 -0.38,-3.14 0.47,-4.28l2.93 -4.14c0.18,-0.27 0.21,-0.31 0.26,-0.58l-1.18 0 -2.2 3.22c-0.51,0.6 -0.51,0.88 -0.84,0.99 -0.28,-0.19 -1.86,-2.56 -2.22,-3.11l-0.75 -1.08 -1.18 -0.04c0.08,0.63 2.65,3.96 3.14,4.71 0.3,0.45 0.45,0.43 0.45,1.18 0.01,1 -0.05,2.08 0.01,3.08z"/>
   <path class="fil0" d="M30.04 18.37c-0.13,2.41 -0.02,5.13 -0.02,7.57 0,1.34 -0.14,1.4 0.5,1.41 0.96,0.03 5.07,0.04 5.55,-0.05 0.02,-0.32 0.09,-0.74 -0.07,-0.89 -0.36,-0.26 -4.09,-0.07 -4.9,-0.1l-0.01 -7.92c-0.34,-0.12 -0.7,-0.09 -1.05,-0.02z"/>
   <path class="fil0" d="M39.95 17.09c0.66,0.06 5.79,0.1 5.94,-0.05 0.1,-0.09 0.13,-0.42 0.09,-0.6 -0.1,-0.48 -0.7,-0.28 -2.01,-0.28 -0.77,0 -2.31,0.08 -2.99,-0.04l-0.02 -7.93 -1 0.01 -0.01 8.89z"/>
   <path class="fil0" d="M9.64 18.4c-0.04,1.68 0,3.42 0,5.1 0,4.1 -0.39,3.96 1.02,3.86 0.2,-0.81 0.12,-7.78 0.05,-9 -0.38,-0.07 -0.69,-0.08 -1.07,0.04z"/>
   <path class="fil0" d="M9.69 8.58c0,2.02 -0.08,6.78 0.02,8.5l0.98 0.02c0.14,-0.99 0.05,-7.04 0.05,-8.52 0,-0.48 -0.06,-0.51 -0.54,-0.51 -0.43,0 -0.51,0.08 -0.51,0.51z"/>
   <path class="fil1" d="M1.9 31.8c-0.18,0.1 -0.41,0.15 -0.69,0.15 -0.36,0 -0.64,-0.12 -0.86,-0.35 -0.21,-0.23 -0.32,-0.53 -0.32,-0.9 0,-0.4 0.12,-0.72 0.36,-0.97 0.24,-0.25 0.55,-0.37 0.92,-0.37 0.24,0 0.44,0.03 0.59,0.1l0 0.31c-0.18,-0.1 -0.38,-0.15 -0.59,-0.15 -0.29,0 -0.52,0.1 -0.7,0.29 -0.18,0.19 -0.27,0.45 -0.27,0.77 0,0.31 0.08,0.55 0.25,0.73 0.17,0.18 0.39,0.27 0.66,0.27 0.25,0 0.47,-0.05 0.65,-0.16l0 0.28z"/>
   <path id="_1" class="fil1" d="M4.29 31.91l-0.35 0 -0.42 -0.71c-0.04,-0.06 -0.08,-0.12 -0.11,-0.16 -0.04,-0.05 -0.08,-0.09 -0.12,-0.12 -0.03,-0.02 -0.07,-0.05 -0.12,-0.06 -0.04,-0.01 -0.09,-0.02 -0.15,-0.02l-0.24 0 0 1.07 -0.29 0 0 -2.51 0.75 0c0.11,0 0.21,0.01 0.3,0.04 0.09,0.03 0.17,0.07 0.24,0.13 0.07,0.05 0.12,0.12 0.16,0.21 0.04,0.08 0.06,0.18 0.06,0.29 0,0.08 -0.01,0.16 -0.04,0.24 -0.03,0.07 -0.06,0.14 -0.11,0.19 -0.05,0.06 -0.11,0.11 -0.18,0.15 -0.06,0.04 -0.14,0.07 -0.23,0.09l0 0.01c0.05,0.02 0.08,0.04 0.11,0.06 0.03,0.03 0.06,0.05 0.09,0.09 0.03,0.03 0.06,0.07 0.08,0.11 0.03,0.04 0.06,0.09 0.1,0.14l0.47 0.76zm-1.51 -2.24l0 0.91 0.4 0c0.08,0 0.14,-0.02 0.21,-0.04 0.06,-0.02 0.11,-0.05 0.16,-0.09 0.04,-0.05 0.08,-0.1 0.1,-0.16 0.03,-0.06 0.04,-0.12 0.04,-0.2 0,-0.13 -0.04,-0.24 -0.13,-0.31 -0.08,-0.08 -0.21,-0.11 -0.37,-0.11l-0.41 0z"/>
   <path id="_2" class="fil1" d="M6.65 31.91l-0.33 0 -0.26 -0.71 -1.07 0 -0.25 0.71 -0.32 0 0.96 -2.51 0.3 0 0.97 2.51zm-0.69 -0.97l-0.39 -1.07c-0.02,-0.03 -0.03,-0.09 -0.04,-0.17l-0.01 0c-0.01,0.08 -0.02,0.13 -0.04,0.17l-0.39 1.07 0.87 0z"/>
   <polygon id="_3" class="fil1" points="8.37,29.67 7.39,29.67 7.39,30.53 8.29,30.53 8.29,30.8 7.39,30.8 7.39,31.91 7.09,31.91 7.09,29.4 8.37,29.4 "/>
   <polygon id="_4" class="fil1" points="10.43,29.67 9.7,29.67 9.7,31.91 9.41,31.91 9.41,29.67 8.69,29.67 8.69,29.4 10.43,29.4 "/>
   <polygon id="_5" class="fil1" points="11.19,31.91 10.9,31.91 10.9,29.4 11.19,29.4 "/>
   <path id="_6" class="fil1" d="M13.95 31.91l-0.36 0 -1.29 -2c-0.03,-0.05 -0.06,-0.1 -0.08,-0.16l-0.01 0c0.01,0.06 0.01,0.17 0.01,0.35l0 1.81 -0.29 0 0 -2.51 0.38 0 1.25 1.97c0.05,0.08 0.09,0.13 0.1,0.16l0.01 0c-0.01,-0.07 -0.02,-0.19 -0.02,-0.37l0 -1.76 0.3 0 0 2.51z"/>
   <path id="_7" class="fil1" d="M16.55 31.73c-0.25,0.15 -0.53,0.22 -0.83,0.22 -0.36,0 -0.65,-0.12 -0.87,-0.35 -0.22,-0.23 -0.33,-0.53 -0.33,-0.91 0,-0.39 0.12,-0.71 0.37,-0.96 0.24,-0.25 0.55,-0.37 0.93,-0.37 0.27,0 0.5,0.04 0.68,0.13l0 0.33c-0.2,-0.13 -0.44,-0.2 -0.72,-0.2 -0.28,0 -0.51,0.1 -0.69,0.29 -0.18,0.2 -0.27,0.45 -0.27,0.75 0,0.32 0.09,0.57 0.26,0.75 0.16,0.18 0.39,0.27 0.67,0.27 0.2,0 0.37,-0.04 0.51,-0.11l0 -0.71 -0.55 0 0 -0.26 0.84 0 0 1.13z"/>
   <polygon id="_8" class="fil1" points="19.49,31.91 18.2,31.91 18.2,29.4 18.49,29.4 18.49,31.64 19.49,31.64 "/>
   <path id="_9" class="fil1" d="M21.74 30.89c0,0.71 -0.32,1.06 -0.95,1.06 -0.61,0 -0.92,-0.34 -0.92,-1.02l0 -1.53 0.3 0 0 1.51c0,0.52 0.21,0.77 0.65,0.77 0.42,0 0.63,-0.24 0.63,-0.74l0 -1.54 0.29 0 0 1.49z"/>
   <path id="_10" class="fil1" d="M24.17 31.91l-0.36 0 -0.57 -0.96c-0.02,-0.03 -0.04,-0.07 -0.06,-0.13l-0.01 0c-0.01,0.03 -0.03,0.07 -0.06,0.13l-0.59 0.96 -0.36 0 0.84 -1.26 -0.77 -1.25 0.35 0 0.52 0.88c0.03,0.06 0.06,0.12 0.09,0.18l0 0c0.04,-0.08 0.07,-0.14 0.1,-0.19l0.53 -0.87 0.34 0 -0.79 1.24 0.8 1.27z"/>
   <path id="_11" class="fil1" d="M26.46 30.89c0,0.71 -0.31,1.06 -0.95,1.06 -0.61,0 -0.91,-0.34 -0.91,-1.02l0 -1.53 0.29 0 0 1.51c0,0.52 0.22,0.77 0.65,0.77 0.42,0 0.63,-0.24 0.63,-0.74l0 -1.54 0.29 0 0 1.49z"/>
   <path id="_12" class="fil1" d="M28.96 31.91l-0.35 0 -0.42 -0.71c-0.03,-0.06 -0.07,-0.12 -0.11,-0.16 -0.03,-0.05 -0.07,-0.09 -0.11,-0.12 -0.04,-0.02 -0.08,-0.05 -0.12,-0.06 -0.04,-0.01 -0.09,-0.02 -0.15,-0.02l-0.24 0 0 1.07 -0.29 0 0 -2.51 0.74 0c0.11,0 0.21,0.01 0.31,0.04 0.09,0.03 0.17,0.07 0.24,0.13 0.07,0.05 0.12,0.12 0.16,0.21 0.04,0.08 0.06,0.18 0.06,0.29 0,0.08 -0.02,0.16 -0.04,0.24 -0.03,0.07 -0.07,0.14 -0.12,0.19 -0.04,0.06 -0.1,0.11 -0.17,0.15 -0.07,0.04 -0.15,0.07 -0.23,0.09l0 0.01c0.04,0.02 0.08,0.04 0.11,0.06 0.03,0.03 0.06,0.05 0.09,0.09 0.03,0.03 0.05,0.07 0.08,0.11 0.03,0.04 0.06,0.09 0.09,0.14l0.47 0.76zm-1.5 -2.24l0 0.91 0.4 0c0.07,0 0.14,-0.02 0.2,-0.04 0.06,-0.02 0.12,-0.05 0.16,-0.09 0.05,-0.05 0.08,-0.1 0.11,-0.16 0.02,-0.06 0.04,-0.12 0.04,-0.2 0,-0.13 -0.04,-0.24 -0.13,-0.31 -0.09,-0.08 -0.21,-0.11 -0.38,-0.11l-0.4 0z"/>
   <path id="_13" class="fil1" d="M30.94 29.4l-0.82 1.58 0 0.93 -0.3 0 0 -0.92 -0.8 -1.59 0.33 0 0.56 1.13c0.01,0.02 0.03,0.07 0.06,0.16l0.01 0c0.01,-0.04 0.03,-0.09 0.07,-0.16l0.58 -1.13 0.31 0z"/>
   <polygon id="_14" class="fil1" points="33.68,31.91 32.35,31.91 32.35,29.4 33.62,29.4 33.62,29.67 32.64,29.67 32.64,30.5 33.55,30.5 33.55,30.76 32.64,30.76 32.64,31.64 33.68,31.64 "/>
   <path id="_15" class="fil1" d="M35.98 31.91l-0.35 0 -0.58 -0.96c-0.02,-0.03 -0.04,-0.07 -0.06,-0.13l-0.01 0c-0.01,0.03 -0.03,0.07 -0.06,0.13l-0.59 0.96 -0.36 0 0.84 -1.26 -0.77 -1.25 0.36 0 0.51 0.88c0.03,0.06 0.06,0.12 0.09,0.18l0.01 0c0.03,-0.08 0.06,-0.14 0.09,-0.19l0.53 -0.87 0.34 0 -0.79 1.24 0.8 1.27z"/>
   <path id="_16" class="fil1" d="M36.74 30.96l0 0.95 -0.3 0 0 -2.51 0.69 0c0.27,0 0.48,0.07 0.62,0.2 0.15,0.13 0.22,0.31 0.22,0.55 0,0.24 -0.08,0.43 -0.24,0.58 -0.17,0.15 -0.39,0.23 -0.66,0.23l-0.33 0zm0 -1.29l0 1.02 0.3 0c0.21,0 0.36,-0.04 0.47,-0.14 0.1,-0.09 0.16,-0.22 0.16,-0.39 0,-0.33 -0.2,-0.49 -0.59,-0.49l-0.34 0z"/>
   <polygon id="_17" class="fil1" points="39.85,31.91 38.52,31.91 38.52,29.4 39.8,29.4 39.8,29.67 38.82,29.67 38.82,30.5 39.72,30.5 39.72,30.76 38.82,30.76 38.82,31.64 39.85,31.64 "/>
   <path id="_18" class="fil1" d="M42.21 31.91l-0.35 0 -0.42 -0.71c-0.04,-0.06 -0.08,-0.12 -0.11,-0.16 -0.04,-0.05 -0.08,-0.09 -0.11,-0.12 -0.04,-0.02 -0.08,-0.05 -0.13,-0.06 -0.04,-0.01 -0.09,-0.02 -0.14,-0.02l-0.24 0 0 1.07 -0.3 0 0 -2.51 0.75 0c0.11,0 0.21,0.01 0.3,0.04 0.1,0.03 0.18,0.07 0.24,0.13 0.07,0.05 0.13,0.12 0.16,0.21 0.04,0.08 0.06,0.18 0.06,0.29 0,0.08 -0.01,0.16 -0.04,0.24 -0.02,0.07 -0.06,0.14 -0.11,0.19 -0.05,0.06 -0.11,0.11 -0.17,0.15 -0.07,0.04 -0.15,0.07 -0.23,0.09l0 0.01c0.04,0.02 0.08,0.04 0.11,0.06 0.03,0.03 0.06,0.05 0.08,0.09 0.03,0.03 0.06,0.07 0.09,0.11 0.02,0.04 0.06,0.09 0.09,0.14l0.47 0.76zm-1.5 -2.24l0 0.91 0.39 0c0.08,0 0.15,-0.02 0.21,-0.04 0.06,-0.02 0.11,-0.05 0.16,-0.09 0.04,-0.05 0.08,-0.1 0.11,-0.16 0.02,-0.06 0.03,-0.12 0.03,-0.2 0,-0.13 -0.04,-0.24 -0.13,-0.31 -0.08,-0.08 -0.21,-0.11 -0.37,-0.11l-0.4 0z"/>
   <polygon id="_19" class="fil1" points="42.92,31.91 42.63,31.91 42.63,29.4 42.92,29.4 "/>
   <polygon id="_20" class="fil1" points="44.99,31.91 43.66,31.91 43.66,29.4 44.93,29.4 44.93,29.67 43.95,29.67 43.95,30.5 44.86,30.5 44.86,30.76 43.95,30.76 43.95,31.64 44.99,31.64 "/>
   <path id="_21" class="fil1" d="M47.57 31.91l-0.36 0 -1.29 -2c-0.03,-0.05 -0.06,-0.1 -0.08,-0.16l-0.01 0c0.01,0.06 0.01,0.17 0.01,0.35l0 1.81 -0.29 0 0 -2.51 0.38 0 1.25 1.97c0.06,0.08 0.09,0.13 0.11,0.16l0 0c-0.01,-0.07 -0.01,-0.19 -0.01,-0.37l0 -1.76 0.29 0 0 2.51z"/>
   <path id="_22" class="fil1" d="M50.01 31.8c-0.19,0.1 -0.42,0.15 -0.69,0.15 -0.36,0 -0.65,-0.12 -0.86,-0.35 -0.21,-0.23 -0.32,-0.53 -0.32,-0.9 0,-0.4 0.12,-0.72 0.36,-0.97 0.24,-0.25 0.55,-0.37 0.92,-0.37 0.24,0 0.43,0.03 0.59,0.1l0 0.31c-0.18,-0.1 -0.38,-0.15 -0.6,-0.15 -0.28,0 -0.52,0.1 -0.7,0.29 -0.17,0.19 -0.26,0.45 -0.26,0.77 0,0.31 0.08,0.55 0.25,0.73 0.16,0.18 0.38,0.27 0.66,0.27 0.25,0 0.46,-0.05 0.65,-0.16l0 0.28z"/>
   <polygon id="_23" class="fil1" points="51.92,31.91 50.6,31.91 50.6,29.4 51.87,29.4 51.87,29.67 50.89,29.67 50.89,30.5 51.8,30.5 51.8,30.76 50.89,30.76 50.89,31.64 51.92,31.64 "/>
   <path id="_24" class="fil1" d="M52.37 31.8l0 -0.34c0.04,0.03 0.09,0.07 0.14,0.09 0.06,0.03 0.11,0.05 0.17,0.07 0.07,0.02 0.13,0.04 0.19,0.05 0.06,0.01 0.12,0.01 0.17,0.01 0.18,0 0.32,-0.03 0.41,-0.1 0.08,-0.06 0.13,-0.16 0.13,-0.29 0,-0.06 -0.02,-0.12 -0.05,-0.17 -0.02,-0.05 -0.07,-0.1 -0.12,-0.14 -0.05,-0.04 -0.11,-0.08 -0.19,-0.12 -0.07,-0.04 -0.14,-0.08 -0.23,-0.12 -0.08,-0.04 -0.17,-0.09 -0.24,-0.13 -0.08,-0.05 -0.14,-0.1 -0.2,-0.15 -0.05,-0.06 -0.1,-0.12 -0.13,-0.19 -0.03,-0.07 -0.05,-0.15 -0.05,-0.24 0,-0.12 0.03,-0.22 0.08,-0.3 0.05,-0.08 0.11,-0.15 0.19,-0.21 0.09,-0.05 0.18,-0.09 0.28,-0.12 0.11,-0.03 0.21,-0.04 0.32,-0.04 0.25,0 0.43,0.03 0.54,0.09l0 0.33c-0.15,-0.1 -0.34,-0.16 -0.57,-0.16 -0.06,0 -0.13,0.01 -0.19,0.02 -0.06,0.02 -0.12,0.04 -0.17,0.07 -0.05,0.03 -0.09,0.07 -0.12,0.12 -0.04,0.04 -0.05,0.1 -0.05,0.17 0,0.07 0.01,0.12 0.03,0.17 0.03,0.04 0.06,0.09 0.11,0.13 0.05,0.03 0.1,0.07 0.17,0.11 0.07,0.03 0.15,0.07 0.23,0.12 0.09,0.04 0.18,0.09 0.26,0.13 0.08,0.05 0.15,0.11 0.21,0.17 0.06,0.06 0.11,0.12 0.14,0.2 0.04,0.07 0.06,0.15 0.06,0.24 0,0.13 -0.03,0.23 -0.08,0.32 -0.04,0.08 -0.11,0.15 -0.19,0.21 -0.08,0.05 -0.18,0.09 -0.29,0.11 -0.1,0.03 -0.22,0.04 -0.33,0.04 -0.04,0 -0.09,-0.01 -0.15,-0.01 -0.06,-0.01 -0.12,-0.02 -0.18,-0.03 -0.06,-0.01 -0.12,-0.03 -0.17,-0.05 -0.06,-0.01 -0.1,-0.03 -0.13,-0.06z"/>
  </g>
 </g>
</svg>
