<?xml version="1.0" encoding="UTF-8"?>
<!DOCTYPE svg PUBLIC "-//W3C//DTD SVG 1.1//EN" "http://www.w3.org/Graphics/SVG/1.1/DTD/svg11.dtd">
<!-- Creator: CorelDRAW -->
<svg xmlns="http://www.w3.org/2000/svg" xml:space="preserve" width="176px" height="40px" version="1.1" style="shape-rendering:geometricPrecision; text-rendering:geometricPrecision; image-rendering:optimizeQuality; fill-rule:evenodd; clip-rule:evenodd"
viewBox="0 0 176 40.07"
 xmlns:xlink="http://www.w3.org/1999/xlink"
 xmlns:xodm="http://www.corel.com/coreldraw/odm/2003">
 <defs>
  <style type="text/css">
   <![CDATA[
    .fil0 {fill:white}
   ]]>
  </style>
 </defs>
 <g id="Layer_x0020_1">
  <metadata id="CorelCorpID_0Corel-Layer"/>
  <g id="_3104151823840">
   <path class="fil0" d="M5.9 39.53c2.67,0 1.87,0.37 2.67,-2.11l5.64 -17.53 5.31 17.6c0.69,2.26 0.34,2.04 2.74,2.04 0.03,-1.26 2.43,-10.2 2.92,-12.18 1.05,-4.21 2.16,-8.09 3.12,-12.24l-2.01 0 -5.17 20.67c-0.55,-1.88 -1.17,-3.55 -1.63,-5.31l-3.77 -13.1c-0.6,-2.2 -0.42,-2.26 -2.02,-2.26 -1,0 -1.52,3.23 -1.98,4.81 -1.35,4.63 -3.59,11.63 -4.56,15.83l-0.42 -1.09c-0.13,-0.5 -0.21,-0.91 -0.29,-1.22l-4.58 -18.33 -2.02 0 3.07 12.03c0.49,1.94 1,3.97 1.52,6.05 0.35,1.4 1.42,4.9 1.46,6.34z"/>
   <path class="fil0" d="M118.45 39.53l2.26 0 0 -20.14 14.6 19.65c0.51,0.53 -0.39,0.49 2.02,0.49l0 -24.42 -2.27 0 0 19.89 -7.33 -9.78c-0.57,-0.76 -7.01,-9.14 -7.27,-10.11l-2.01 0 0 24.42z"/>
   <path class="fil0" d="M104.6 38.02c-5.37,0 -9.07,-4.26 -9.07,-9.06 0,-3.55 -0.08,-6.62 2.7,-9.64 3.29,-3.55 9.95,-3.56 13.11,-0.13 4.42,4.81 4.09,18.83 -6.74,18.83zm-11.33 -11.58l0 1.76c0,9.98 9.38,13.94 16.36,10.83 3.86,-1.71 6.55,-6.11 6.55,-10.83 0,-3.99 -0.32,-7.28 -3.08,-10.27 -4.19,-4.53 -12.22,-4.36 -16.5,0 -1.69,1.72 -3.33,5.18 -3.33,8.51z"/>
   <path class="fil0" d="M79.42 37.52l-4.79 0 0 -20.4c3.96,0 8.64,-0.44 11.66,2.2 3.64,3.18 3.72,11.92 0.06,15.56 -1.48,1.47 -4.1,2.64 -6.93,2.64zm-6.8 2.01l7.05 0c6.41,0 11.58,-5.19 11.58,-11.58 0,-4.3 -0.07,-6.75 -3.2,-9.89 -3.73,-3.74 -9.91,-2.95 -15.43,-2.95l0 24.42z"/>
   <polygon class="fil0" points="139.6,39.53 151.18,39.53 151.18,37.52 141.61,37.52 141.61,24.42 149.92,24.42 149.92,22.41 141.61,22.41 141.61,17.12 151.18,17.12 151.18,15.11 139.6,15.11 "/>
   <polygon class="fil0" points="30.57,39.53 42.15,39.53 42.15,37.52 32.59,37.52 32.59,24.42 40.9,24.42 40.9,22.41 32.59,22.41 32.59,17.12 42.15,17.12 42.15,15.11 30.57,15.11 "/>
   <polygon class="fil0" points="44.42,39.53 56.25,39.53 56.25,37.52 46.69,37.52 46.69,15.11 44.42,15.11 "/>
   <path class="fil0" d="M58.52 39.53l11.83 0 0 -1.26c0,-0.58 -0.17,-0.75 -0.75,-0.75l-8.81 0 0 -22.41 -2.27 0 0 24.42z"/>
   <polygon class="fil0" points="169.81,0.25 169.81,5.79 170.06,6.04 175.6,6.04 175.85,5.79 175.85,0.25 175.6,0 170.06,0 "/>
   <polygon class="fil0" points="170.06,0 169.81,0.25 "/>
   <polygon class="fil0" points="175.85,0.25 175.6,0 "/>
   <polygon class="fil0" points="170.06,6.04 169.81,5.79 "/>
   <polygon class="fil0" points="175.85,5.79 175.6,6.04 "/>
  </g>
 </g>
</svg>
